/* XPM */
static char *_738_3c0c3c87f19af87f9b3902a1be500c82c328878bfcf95b4a6a05b83e71212ab3[] = {
/* columns rows colors chars-per-pixel */
"100 75 225 2 ",
"   c #050200",
".  c #0C0500",
"X  c #120601",
"o  c #190701",
"O  c #150901",
"+  c #1C0B01",
"@  c #1D1004",
"#  c #1C140D",
"$  c #240701",
"%  c #230D01",
"&  c #2A0E01",
"*  c #320F01",
"=  c #3C0A01",
"-  c #251102",
";  c #2C1302",
":  c #2E1904",
">  c #29180A",
",  c #331502",
"<  c #3A1602",
"1  c #341903",
"2  c #3C1B03",
"3  c #331C0A",
"4  c #2A1D13",
"5  c #3D2105",
"6  c #3B250C",
"7  c #2C2116",
"8  c #352314",
"9  c #342419",
"0  c #3C2618",
"q  c #3D2818",
"w  c #3A2F24",
"e  c #410B02",
"r  c #431502",
"t  c #431D03",
"y  c #4A1D02",
"u  c #531E02",
"i  c #5D1D02",
"p  c #601F02",
"a  c #442204",
"s  c #4C2403",
"d  c #4A2707",
"f  c #4E2905",
"g  c #462509",
"h  c #442A0A",
"j  c #4C2B0A",
"k  c #532503",
"l  c #5B2603",
"z  c #542B04",
"x  c #5B2B03",
"c  c #532E09",
"v  c #5A2F09",
"b  c #4D310C",
"n  c #563007",
"m  c #5C3206",
"M  c #53310A",
"N  c #5B3409",
"B  c #5D380C",
"V  c #472618",
"C  c #442919",
"Z  c #4C2D18",
"A  c #522D18",
"S  c #593813",
"D  c #533219",
"F  c #5B3418",
"G  c #642402",
"H  c #682703",
"J  c #632D03",
"K  c #6A2D03",
"L  c #712702",
"P  c #712A02",
"I  c #633304",
"U  c #6B3303",
"Y  c #673907",
"T  c #6B3905",
"R  c #633509",
"E  c #6C3608",
"W  c #643B0B",
"Q  c #6C3E0A",
"!  c #733403",
"~  c #7B3502",
"^  c #733B03",
"/  c #7B3B03",
"(  c #733C0A",
")  c #633D14",
"_  c #6D3A17",
"`  c #633518",
"'  c #643B18",
"]  c #743D15",
"[  c #4C3522",
"{  c #4D3A28",
"}  c #533F31",
"|  c #6B420E",
" . c #754105",
".. c #7C4204",
"X. c #74430B",
"o. c #7B440B",
"O. c #77480E",
"+. c #7B4B0D",
"@. c #6C4411",
"#. c #69431B",
"$. c #714712",
"%. c #754A13",
"&. c #7B4E13",
"*. c #744219",
"=. c #7D4319",
"-. c #724B1A",
";. c #7E4A19",
":. c #7C5117",
">. c #54422F",
",. c #574638",
"<. c #694A2A",
"1. c #7E5425",
"2. c #74583D",
"3. c #574D43",
"4. c #625346",
"5. c #6D6256",
"6. c #786957",
"7. c #7C6F62",
"8. c #833502",
"9. c #883201",
"0. c #843C03",
"q. c #8A3B02",
"w. c #813C19",
"e. c #834203",
"r. c #8B4303",
"t. c #8C4B03",
"y. c #824509",
"u. c #854A08",
"i. c #904503",
"p. c #934B03",
"a. c #955203",
"s. c #9A5003",
"d. c #844519",
"f. c #894319",
"g. c #844D1A",
"h. c #8B4B19",
"j. c #904A19",
"k. c #865618",
"l. c #8C5E1E",
"z. c #965E15",
"x. c #90611E",
"c. c #8F4D20",
"v. c #845725",
"b. c #8F6429",
"n. c #976926",
"m. c #8D693C",
"M. c #946731",
"N. c #A1793C",
"B. c #8D6E4A",
"V. c #9B7443",
"C. c #9E7B42",
"Z. c #9A7E5D",
"A. c #877C72",
"S. c #A4804E",
"D. c #998169",
"F. c #8E857D",
"G. c #A5876C",
"H. c #B69468",
"J. c #A28E78",
"K. c #B79979",
"L. c #BFA27C",
"P. c #898786",
"I. c #8E8986",
"U. c #948C87",
"Y. c #998F86",
"T. c #958E89",
"R. c #9C9187",
"E. c #92908D",
"W. c #9A9189",
"Q. c #A29386",
"!. c #A29488",
"~. c #B29A84",
"^. c #A39B95",
"/. c #A39E9A",
"(. c #A89F99",
"). c #A6A09C",
"_. c #ABA29A",
"`. c #B8A591",
"'. c #B1A69A",
"]. c #ABA5A2",
"[. c #AEABA9",
"{. c #B2ABA4",
"}. c #BCAFA2",
"|. c #B4ADA8",
" X c #BAAFA9",
".X c #B8B0A8",
"XX c #BCB2AA",
"oX c #BBB5B1",
"OX c #BDBAB6",
"+X c #C2A78C",
"@X c #CBB38E",
"#X c #C5AD94",
"$X c #C7B39D",
"%X c #C2B4A9",
"&X c #CCBBA8",
"*X c #D2BCA4",
"=X c #C2BFBC",
"-X c #D5C2A8",
";X c #D5C5B1",
":X c #DACBB6",
">X c #DCCDBC",
",X c #DFD0BD",
"<X c #E5D3B6",
"1X c #C8C5C2",
"2X c #D2CFCD",
"3X c #DED4C8",
"4X c #D5D3D0",
"5X c #D9D6D3",
"6X c #DCD8D5",
"7X c #DEDBD9",
"8X c #E4D8C9",
"9X c #E3DAD2",
"0X c #E3DDD9",
"qX c #E9DFD9",
"wX c #E7E2DC",
"eX c #EAE1D9",
"rX c #E5E3E2",
"tX c #E9E7E5",
"yX c #EEE9E3",
"uX c #EDECEB",
"iX c #F6F2EE",
"pX c #F4F3F2",
"aX c #F8F6F2",
"sX c #FBF9F7",
"dX c #FFFFFF",
/* pixels */
"dXdXdXdXdXdXdXdXdXdXdXdXdXdXdXdXdXdXdXdXdXdXdXdXdXdXdXdXdXdXdXdXdXdXdXdXdXdXdXdXdXdXdXdXdXdXdXdXdXdXdXdXdXdXdXdXdXdXdXdXdXdXdXdXdXdXdXdXdXdXdXdXdXdXdXdXdXdXdXdXdXdXdXdXdXdXdXdXdXdXdXdXdXdXdXdXdXdXdXdX",
"dXdXdXdXdXdXdXdXdXdXdXdXdXdXdXdXdXdXdXdXdXdXdXdXdXdXdXdXdXdXdXdXdXdXdXdXdXdXdXdXdXdXdXdXdXdXdXdXdXdXdXdXdXdXdXdXdXdXdXdXdXdXdXdXdXdXdXdXdXdXdXdXdXdXdXdXdXdXdXdXdXdXdXdXdXdXdXdXdXdXdXdXdXdXdXdXdXdXdXdX",
"dXdXdXdXdXdXdXdXdXdXdXdXdXdXdXdXdXdXdXdXdXdXdXdXdXdXdXdXdXdXdXdXdXdXdXdXdXdXdXdXdXdXdXdXdXdXdXdXdXdXdXdXdXdXdXdXdXdXdXdXdXdXdXdXdXdXdXdXdXdXdXdXdXdXdXdXdXdXdXdXdXdXdXdXdXdXdXdXdXdXdXdXdXdXdXdXdXdXdXdX",
"dXdXdXdXdXdXdXdXdXdXdXdXdXdXdXdXdXdXdXdXdXdXdXdXdXdXdXdXdXdXdXdXdXdXdXdXdXdXdXdXdXdXdXdXdXdXdXdXdXdXdXdXdXdXdXdXdXdXdXdXdXdXdXdXdXdXdXdXdXdXdXdXdXdXdXdXdXdXdXsXdXdXdXdXdXdXdXdXdXdXdXdXdXdXdXdXdXdXdXdX",
"dXdXdX7X5XdXdXdXdXdXdXdXdXdXdXdXdXdXdXdXdXdXdXdXdXdXdXdXdXdXdXdXdXdXdXdXdXdXdXdXdXdXdXdXdXdXdXdXdXdXdXdXdXdXdXdXdXdXdXdXiX;X%XXX&XXX|.XXXX[.[.|.|.|.|..X[.[.|.|.[.|.%X X X|..X XXXXX X|.|.|.|.|.6XdXdXdX",
"dXdXdX^.A.dXdXdXdXdXdXdXdXdXdXdXdXdXdXdXdXdXdXdXdXdXdXdXdXdXdXdXdXdXdXdXdXdXdXdXdXdXdXdXdXdXdXdXdXdXdXdXdXdXdXdXdXdXdXdX#Xo.Y S S , 3 g j @ O @ + + & - @ - + > o o 1 : , & : , 1 < 2 , : , - % T.dXdXdX",
"dXdXdX/.W.dXdXdXdXdXdXdXdXdXdXdXdXdXdXdXdXdXdXdXdXdXdXdXdXdXdXdXdXdXdXdXdXdXdXdXdXdXdXdXdXdXdXdXdXdXdXdXdXdXdXdXdXdXdXeXM.^ ^ _ ' a 3 j c o   O + O o : > % % @ o O . o < , & % & & ; ; , ; + O U.dXdXdX",
"dXdXdX).oXdXdXdXdXdXdXdXdXdXdXdXdXdXdXdXdXdXdXdXdXdXdXdXdXdXdXdXdXdXdXdXdXdXdXdXdXdXdXdXdXdXdXdXdXdXdXdXdXdXdXdXdXdXyXS.e. .^ ) -.W c S g . + + ; + - : , o % O . . . . + 2 < , , < ; % , & % % U.dXdXdX",
"dXdXdXoX5XdXdXdXdXdXdXdXdXdXdXdXdXdXdXdXdXdXdXdXdXdXdXdXdXdXdXdXdXdXdXdXdXdXdXdXdXdXdXdXdXdXdXdXdXdXdXdXdXdXdXdXdXdX8Xz.t.T  .n -.@.n g % % , + o - ; - , @ - + . o O O . X O : 2 2 ; + X . o + U.dXdXdX",
"dXdXdXOX0XdXdXdXdXdXdXdXdXdXdXdXdXdXdXdXdXdXdXdXdXdXdXdXdXdXdXdXdXdXdXdXdXdXdXdXdXdXdXdXdXdXdXdXdXdXdXdXdXdXdXdXdXdX<Xz. .s f s ' #.j , o & ; o O + - - - + - ; @ ; % o . O O + o ; + X . . . . I.dXdXdX",
"dXdXdX=XrXdXdXdXdXdXdXdXdXdXdXdXdXdXdXdXdXdXdXdXdXdXdXdXdXdXdXdXdXdXdXdXdXdXdXdXdXdXdXdXdXdXdXdXdXdXdXdXdXdXdXdXdXdXH.^ n 2 5 1 j g g : o o % + O + - - ; : , - O + , + . O - +   + X . . .   . P.dXdXdX",
"dXdXdXoX6XdXdXdXdXdXdXdXdXdXdXdXdXdXdXdXdXdXdXdXdXdXdXdXdXdXdXdXdXdXdXdXdXdXdXdXdXdXdXdXdXdXdXdXdXdXdXdXdXdXdXdXdX8Xl.z z z a a g > 1 ; > % + o + O : ; ; ; t O . % 1 ; + + - O . . . . .   .   P.dXdXdX",
"dXdXdX1XtXdXdXdXdXdXdXdXdXdXdXdXdXdXdXdXdXdXdXdXdXdXdXdXdXdXdXdXdXdXdXdXdXdXdXdXdXdXdXdXdXdXdXdXdXdXdXdXdXdXdXdXdX@X) c c t a f 2 3 g ; > , % % - - ; , , : 5 ; ; - ; , 2 % + o   .   . O . . . P.dXdXdX",
"dXdXdX1XrXdXdXdXdXdXdXdXdXdXdXdXdXdXdXdXdXdXdXdXdXdXdXdXdXdXdXdXdXdXdXdXdXdXdXdXdXdXdXdXdXdXdXdXdXdXdXdXdXdXdXdXiXN._ E z f k c 2 5 a 3 - g , ; , , , t , ; ; , ; ; % % , , + O . . . O X . O . P.dXdXdX",
"dXdXdX).).dXdXdXdXdXdXdXdXdXdXdXdXdXdXdXdXdXdXdXdXdXdXdXdXdXdXdXdXdXdXdXdXdXdXdXdXdXdXdXdXdXdXdXdXdXdXdXdXdXdXdXqX1.o.u./ x x J j > : 1 2 a 1 ; ; - - ; 1 , + - < & % % % % & X O O . X . . . . I.dXdXdX",
"dXdXdX).F.dXdXdXdXdXdXdXdXdXdXdXdXdXdXdXdXdXdXdXdXdXdXdXdXdXdXdXdXdXdXdXdXdXdXdXdXdXdXdXdXdXdXdXdXdXdXdXdXdXdXdX>X( X.y.J k y 2 f 1 ; - - , < , , - + + , , % - , & + $ & ; * X . . . . . . O . I.dXdXdX",
"dXdXdX).5.dXdXdXdXdXdXdXdXdXdXdXdXdXdXdXdXdXdXdXdXdXdXdXdXdXdXdXdXdXdXdXdXdXdXdXdXdXdXdXdXdXdXdXdXdXdXdXdXdXdXdX*XK Y ! k d k < < v , o % % t 2 2 & + O X - - - , % % % % & + . O o X . . X .   P.dXdXdX",
"dXdXdX/.,.pXdXdXdXdXdXdXdXdXdXdXdXdXdXdXdXdXdXdXdXdXdXdXdXdXdXdXdXdXdXdXdXdXdXdXdXdXdXdXdXdXdXdXdXdXdXdXdXdXdXdX+XP ] R y r t g > j & $ % % + % ; o o X . . o % , $ % $ % % o X O O o X . . X . P.dXdXdX",
"dXdXdX_.{ wXdXdXdXdXdXdXdXdXdXdXdXdXdXdXdXdXdXdXdXdXdXdXdXdXdXdXdXdXdXdXdXdXdXdXdXdXdXdXdXdXdXdXdXdXdXdXdXdXdXdX~.K ( ( k 2 < k , 2 * o $ o + o * + . . . . % , < , % % $ % O O . O % X X X O X I.dXdXdX",
"dXdXdX{.} rXdXdXdXdXdXdXdXdXdXdXdXdXdXdXdXdXdXdXdXdXdXdXdXdXdXdXdXdXdXdXdXdXdXdXdXdXdXdXdXdXdXdXdXdXdXdXdXdXdXdX$XK J I y r r y * g v & & , < , < & % % + - < 1 < , ; & % % o X O & ; + . . o o U.dXdXdX",
"dXdXsXoX3 P.sXdXdXdXdXdXdXdXdXdXdXdXdXdXdXdXdXdXdXdXdXdXdXdXdXdXdXdXdXdXdXdXdXdXdXdXdXdXdXdXdXdXdXdXdXdXdXdXdXdX*XE K / u u v y , v R r , s y t t t , & % % + + + ; , % % ; o X . - ; + . . o X U.dXdXdX",
"dXdXdXrX3.>.tXdXdXdXdXdXdXdXdXdXdXdXdXdXdXdXdXdXdXdXdXdXdXdXdXdXdXdXdXdXdXdXdXdXdXdXdXdXdXdXdXdXdXdXdXdXdXdXdXsX~.l E K y u P y & t v c g 3 0 2 ; , > o O O X . o , & + % % X X . . X X o X X . I.dXdXdX",
"dXdXdXsX{.3.rXdXdXdXdXdXdXdXdXdXdXdXdXdXdXdXdXdXdXdXdXdXdXdXdXdXdXdXdXdXdXdXdXdXdXdXdXdXdXdXdXdXdXdXdXdXdXdXdX8Xc.8.y.P y l ( l % < j t 1 $ o & + o o o X       & < , + + O . O X X + + o . X X I.dXdXdX",
"dXdXdXtXT.w }.dXdXdXdXdXdXdXdXdXdXdXdXdXdXdXdXdXdXdXdXdXdXdXdXdXdXdXdXdXdXdXdXdXdXdXdXdXdXdXdXdXdXdXdXdXdXdXsXH.( U d.R < K ( r & , y < t & & * & < o o . . . O a t ; & o . X o . O & o . X + % U.dXdXdX",
"dXdXdX=X# @ >.6XdXdXdXdXdXdXdXdXdXdXdXdXdXdXdXdXdXdXdXdXdXdXdXdXdXdXdXdXdXdXdXdXdXdXdXdXdXdXdXdXdXdXdXdXdXdX9Xv.R H o.] z Y E r * * k z y g 2 * < , o X X X . % 2 2 + & , % + % o + % + o X X X U.dXdXdX",
"dXdXsXOX# + 4 1XdXdXdXdXdXdXdXdXdXdXdXdXdXdXdXdXdXdXdXdXdXdXdXdXdXdXdXdXdXdXdXdXdXdXdXdXdXdXdXdXdXdXdXdXdXdX*Xv R / J o.E ^ ( k + r y y < 2 y y & o X X X X o * t - % , < & O % o X + + , ; + X I.dXdXdX",
"dXdXdX[.@ + [ 7XsX2XiXdXdXdXdXdXdXdXdXdXdXdXdXdXdXdXdXdXdXdXdXdXdXdXdXdXdXdXdXdXdXdXdXdXdXdXdXdXdXdXdXdXdXdX$Xl K y.l ..e.k I c & t y y t < u z y * o . . o & * < ; ; , ; % % + X o % + , , % o U.dXdXdX",
"dXdXdX[.+ - 3 ). XC 4.|.dXdXdXdXdXdXdXdXdXdXdXdXdXdXdXdXdXdXdXdXdXdXdXdXdXdXdXdXdXdXdXdXdXdXdXdXdXdXdXdXdXdXZ.! 0.K H r.t.s f c c l u l k 2 g r y < $ . o & & * , < < , & $ $ o X X + % % + + + U.dXdXdX",
"dXdXdX].O + + 4 C y < >.tXdXdXdXdXdXdXdXdXdXdXdXdXdXdXdXdXdXdXdXdXdXdXdXdXdXdXdXdXdXdXdXdXdXdXdXdXdXdXdXdXaXV.J z k K ! I < & 1 c J J H x g k k y * * * * & & , & , , & & & & % X X % % % o + o U.dXdXdX",
"dXdXdX].O + - O % - ; 1 |.dXdXdXdXdXdXdXdXdXdXdXdXdXdXdXdXdXdXdXdXdXdXdXdXdXdXdXdXdXdXdXdXdXdXdXdXdXdXdXdX9X*.! H y v k , 1 k , k K y k k t f v l < , & , $ $ & & , , , , & % & % , ; & % % % o U.dXdXdX",
"dXdXdX).O O : - + @ - - 4.uXdXdXdXdXdXdXdXdXdXdXdXdXdXdXdXdXdXdXdXdXdXdXdXdXdXdXdXdXdXdXdXdXdXdXdXdXdXdXdXwXv.y.x x v t & - E s v ( < k s ; g v k * * & & & $ & $ , , % ; & & & - , - + + & - o U.dXdXdX",
"dXdXdX).- + - - @ - @ + q 5XdXdXdXdXdXdXdXdXdXdXdXdXdXdXdXdXdXdXdXdXdXdXdXdXdXdXdXdXdXdXdXdXdXdXdXdXdXdXdX8XM.o.g y g g ; + c g , g * t d t z d t < < < < & & & + - < % $ ; % % O + % - o % ; + U.dXdXdX",
"dXdXdX).- ; - - ; : - O 9 6XdXdXdXdXdXdXdXdXdXdXdXdXdXdXdXdXdXdXdXdXdXdXdXdXdXdXdXdXdXdXdXdXdXdXdXdXdXdXdX:XV.N 2 , 1 3 , 1 2 % + O + > a s I f 1 t ; 1 t , , = & o 3 ; & < & + O . O + O . X o U.dXdXdX",
"dXdXdX/.O @ ; 2 : ; 1 ; > ].dXdXdXdXdXdXdXdXdXdXdXdXdXdXdXdXdXdXdXdXdXdXdXdXdXdXdXdXdXdXdXdXdXdXdXdXdXdXdX$Xv.6 ; a t + % ; , O . .     O 1 v f % % < < 2 r * * % + + & , < , + o O O + O . . + U.dXdXdX",
"dXdXdX).O + + ; - ; , - . 3.iXsXdXdXdXdXdXdXdXdXdXdXdXdXdXdXdXdXdXdXdXdXdXdXdXdXdXdXdXdXdXdXdXdXdXdXdXdXdXG.-.1 5 t - ; & % ; X .         6 z - % & 2 t 1 t , & * , o o % 2 ; % - + O % + O + % I.dXdXdX",
"dXdXdX).O + - ; ; + - + . # |.dXdXdXdXdXdXdXdXdXdXdXdXdXdXdXdXdXdXdXdXdXdXdXdXdXdXdXdXdXdXdXdXdXdXdXdXdXaXS.S - z 2 , : + ; ; + O       . 6 a , + 2 s t & 3 , & % o o X O < , , - % @ % O . O O U.dXdXdX",
"dXdXdX^.O - ; 2 1 : + - O O ,.tXdXdXdXdXdXdXdXdXdXdXdXdXdXdXdXdXdXdXdXdXdXdXdXdXdXdXdXdXdXdXdXdXdXdXdXdXyXV.-.f z z 1 % : < > % O O - - c k ; 1 o 2 k 2 * ; & & & o o o X % t 2 - o . . .     . U.dXdXdX",
"dXdXsX/.O @ - : 1 , + % @ @ 7 4XdXdXdXdXdXdXdXdXdXdXdXdXdXdXdXdXdXdXdXdXdXdXdXdXdXdXdXdXdXdXdXdXdXdXdXdX8XC.v.m N c < < ; , , % . > s t < r $ $ % , k y t , & o & & & % o . O O . .           o Q.dXdXdX",
"dXdXdX/.O X O ; ; - % - O O # E.4XdXdXdXdXdXdXdXdXdXdXdXdXdXdXdXdXdXdXdXdXdXdXdXdXdXdXdXdXdXdXdXdXdXdXdX,Xn.n.X.T z g , 2 - % + o a 3 t & * % * < , r d < & % o & $ % + X . . . .           . O U.dXdXdX",
"dXdXdX/.O . O @ + - O . X @ O # 3.uXdXdXdXdXdXdXdXdXdXdXdXdXdXdXdXdXdXdXdXdXdXdXdXdXdXdXdXdXdXdXdXdXdXdX,Xl.:.M g s 5 + 1 2 j M f c 1 , + o > & & % , t , , & % & % + + + o + O . O + o .   % - U.dXdXdX",
"dXdXdX/.O O O - - + + + O @ O O w wXdXdXdXdXdXdXdXdXdXdXdXdXdXdXsXdXdXdXdXdXdXdXdXdXdXdXdXdXdXdXdXdXdXdX:X&.&.f 2 t g a I +.| c Q s - % % o % o O % < a 2 s , o + o $ , % o o X + - & % O o % - R.dXdXdX",
"dXdXsX/.O O O - - + @ + O + O + 7 1XdXdXdXdXdXdXdXdXdXdXdXdXdXdXsXdXdXdXdXdXdXdXdXdXdXdXdXdXdXdXdXdXdXdX-Xk.x.R x U / J m O.| M W a ; , + o % % % s z s a t 2 & % & & 2 & X O O - % & % % ; - + U.dXdXdX",
"dXdXdX/.. O O + + + O O + O O @ - U.dXdXdXdXdXdXdXdXdXdXdXdXdXdXdXdXdXdXdXdXdXdXdXdXdXdXdXdXdXdXdXdXdXdX:Xx.l.N z T u.Y X.O.W m m 2 & % : 2 2 2 2 s s 2 2 < 1 , & % & 1 + O O @ - % + & ; , - : R.dXdXdX",
"dXdXdX/.O O O + @ + O + ; ; @ @ + { 4XdXdXdXdXdXdXdXdXdXdXdXdXdXdXdXdXdXdXdXdXdXdXdXdXdXdXdXdXdXdXdXdXdX*Xn.:.n f X.X.X.u.+. .Q N a ; , c t 1 , 2 t 5 < t 1 < , & , % ; + O O , t : % & - & - 5 !.dXdXdX",
"dXdXdX/.+ + O o - + O O - @ @ - @ @ 5.pXdXdXdXdXdXdXdXdXdXdXdXdXdXdXdXdXdXdXdXdXdXdXdXdXdXdXdXdXdXdXdXsXH.l.@.n W n 5 W %.o...T 2 @ 5 s z t 1 = t s , 2 t 2 < & & & o - & + - 1 , ; - - @ + : - Q.dXdXdX",
"dXdXdX_.- % O o @ O o + - + O + @ X 3 .XdXdXdXdXdXdXdXdXdXdXdXdXdXdXdXdXdXdXdXdXdXdXdXdXdXdXdXdXdXdXdXyXN.l.$.B a - . 1 Q ..Y f 1 @ B v x < t , 2 2 1 2 1 a 1 < 1 % % O % , ; : : : ; - @ 5 5 - W.dXdXdX",
"dXdXdX/.% + O O O O . o o O O @ @ . @ 6.aXdXdXdXdXdXdXdXdXdXdXdXdXdXdXdXdXdXdXdXdXdXdXdXdXdXdXdXdXdXdX-X1.$.@.n - : : j T m % m t 1 k d l t , , , 1 2 f , 2 , ; * % o o > , 2 , ; 1 1 : 6 h h 5 Q.dXdXdX",
"dXdXdX/.O O O O + O . O . . O @ @ O - 6 {.dXdXdXdXdXdXdXdXdXdXdXdXdXdXdXdXdXdXdXdXdXdXdXdXdXdXdXdXdXdX@X-.$.j 5 2 W $.$.B f c I g Y s t l t < , < ; ; 2 a < ; % % + & ; % ; , ; : 5 5 5 M 6 5 : W.dXdXdX",
"dXdXdX/.O O o o + . O @ O . . @ - @ @ 5 >.5XdXdXdXdXdXdXdXdXdXdXdXdXdXdXdXdXdXdXdXdXdXdXdXdXdXdXdXdXdXK.&.$.5 : b $.O.N Y Q I f g m s 2 y < 2 < 2 1 & 1 f 1 ; + + - , , , , 1 1 ; , , f n b 5 : U.dXdXdX",
"dXdXdX/.o + O + O . + + O O . O ; - - 5 > OXdXdXdXdXdXdXdXdXdXdXdXdXdXdXdXdXdXdXdXdXdXdXdXdXdXdXdXdX8XM.+.M : M X.+. .W Y I I a s z t s s s t 2 s t 2 , a 2 1 : : 1 5 < ; ; 1 , , , 1 z f 5 1 ; R.dXdXdX",
"dXdXdX/.o + + + O o ; , @ @ X ; O + - - > ).sXdXdXdXdXdXdXdXdXdXdXdXdXdXdXdXdXdXdXdXdXdXdXdXdXdXsX;Xm.W B d W W N M f | T c c f 2 - a t r s t t t s f < a 2 5 5 5 , ; 1 ; 1 2 2 2 ; a 2 , 2 < ; R.dXdXdX",
"dXdXdX/.O + - + @ - ; ; - @ ; - @ O - ; - 5.aXsXdXdXdXdXdXdXdXdXdXdXdXdXdXdXdXdXdXdXdXdXdXdXdX:XD.-.N B %.%.%.N b 5 5 N R s m f ; t s t k y t a t s < , ; ; 1 a 1 , ; ; a t a 2 5 5 a 1 , , - - W.dXdXdX",
"dXdXdX/.O + @ + O O + - - - ; - + + @ @ : 8 oXsXdXdXdXdXdXdXdXdXdXdXdXdXdXdXdXdXdXdXdXdXdXsX$Xb.| b 5 | :.O.%.B d > d B n 5 5 < < z z x x x I s y s r ; 1 - 2 s f a a 2 2 2 2 a z z s t , ; , - Y.dXdXdX",
"dXdXdX^.+ + - - ; - + + - - ; ; - + + O @ : 5.sXdXdXdXdXdXdXdXdXdXdXdXdXdXdXdXdXdXdXdXdXeXH.k.&.%.| f | | | d : @ 5 d Y a % - 1 a z l x x l k 2 k r y 2 s t f x f 5 a a < t s f n m u < < , , : R.dXdXdX",
"dXdXdX_.; 1 : 1 1 a 5 , : ; - ; ; @ + O @ ; >.tXdXdXdXdXdXdXdXdXdXdXdXdXdXdXdXdXdXdXdX>XB.| W | N a M | N B f h h d m Y a + O f f T x l s l J x x t r k I z x m y s x x J J z z x m t , t 1 , < Q.dXdXdX",
"dXdXdX_.; , , 1 5 f n f 2 ; ; - ; : O + - : 3 {.dXdXdXdXdXdXdXdXdXdXdXdXdXdXdXdXdXdX3X1. .f c m 5 5 m Y m n f B N z m T a ; , c z U x m x I T l I I x I x  .x k a I U ^ ^ ^ I T I k < t s a 5 , Q.dXdXdX",
"dXdXdX).- : 2 2 f f n z 2 ; - % - , + + : ; - 4.iXdXdXdXwXpXdXdXdXdXdXdXdXdXdXdXdX8Xm.W m c f m m n m s I U z d 5 h Y ^ J k I Y I U J x z k I s a x s t s k G t , k l I I l T J l s x s & ; : 1 R.dXdXdX",
"dXdXdX^., a 5 a s f s d a 5 , - - @ + - ; ; : 3 7.'.6X}.<.B.5XdXdXdXdXdXdXdXdXdXdX`.R m z s f m s f T I T ^ K s : m T l x z E J l x x x k t a < 2 s l l l k J l , t s s x s , t k t n z t < 1 < R.dXdXdX",
"dXdXdX'.5 a a s a a t a a 1 ; ; ; : - 1 1 1 1 ; ; 1 { S 1 5 <.J.9XsXsXdXdXdXdXdXsXH. .z m m z T I .... ...! ! U T ^ U U J s l l l l x G t t t f I J U x z J U l s I U I J I , < x s z l t s s 2 Q.dXdXdX",
"dXdXdX'.5 a a a f s 2 s 2 , 1 : ; : ; : : , : - ; : 2 n 2 5 a f #.Z.uXdXdXdXsXsXL.X.s x I I I T  ... .t.t.^ / r.e.! G K E U ! E x y t t s z z l J x I x G x G l G J / ^ U K r r z x s , 1 s s 2 Q.dXdXdX",
"dXdXdX_.; a 2 t s a < t , , 1 5 , 1 : ; ; ; , ; - , a B f t f s a c 2.`.~.Z.K.*Xx.T a n x x ^ ^ ..e.T ..s.u.a.t./ / U J K ! ^ U l I l x U K J J x I l I I t r l G U P p ! t $ r x T k t s s s t !.dXdXdX",
"dXdXdX_., < t t t 5 a < ; : 1 1 5 ; ; - - - , ; - , a 1 , a s s a 1 2 c d c W $.m n a c x I I m ..t.t.t.p.t.a.p.0.! K G K H K J G K x U ^ U x U ! G l l x l s k x y = e r , y x k l s t s a a , Q.dXdXdX",
"dXdXdX_., , 2 t a 5 5 , : 1 ; 1 1 - ; - - % ; ; - : a ; + < t f z 1 1 s a m c a d 5 a l s a s x ^ a.a.r.r.t.p.r.! 0./ u G P U H U U K ! J U I U I l z I x x l k I ; * * t l l G k k t s s a 2 , Q.dXdXdX",
"dXdXdX(., < 2 2 a a a 1 , , ; ; & - ; , ; - - ; 1 < f 5 + - , < s m Q k s 1 5 f d , , s y k x n e.s.r.0.q.r.e.0.~ t.0.U ^ e.^ G J ! P l l ^ / ..t.t. . .! x n z x 2 * s J J l l l l s k t a s t Q.dXdXdX",
"dXdXdX_.& 1 2 t f a 2 , < , , ; % & - - - - ; , 2 s m 2 , - - ; t y s 2 t 2 2 s g < < s l l y s / q.0.0.0.r.r.q.0.q.t.e.i.r.0.K K P L G H e.U ^ s.t.e...U I Y n f l 2 k x K G l l x z a t s s a R.dXdXdX",
"dXdXdX'.2 2 1 5 a < , - ; ; - ; % % - & - ; < , s m I a < 2 - % , < < , < t t 2 , y k y < < , k J ~ ~ ~ 0.q.0.0.8.q.q.0.~ P L L G H G p G 0.e.e.r.q.e./ ^ ^ Y m m x I x l l y k l U l x s t s a R.dXdXdX",
"dXdXdX_.5 2 , , , , , - - - - - - ; - 2 < 1 2 a  . .x t 2 < t , & - , & % % 2 2 t k y 2 ; ; , ^ / ~ / ~ ~ ~ P 8.q.q.q.9.L L p u i i G K P ~ 0.r./ 0./ / I ! T Y z J k s r y y k x m k x I x s 2 Q.dXdXdX",
"dXdXdX`., : , , $ ; - + - - % ; ; < t t , 1 s  ...U z < < t , < & o & & % o , t 2 , < < s l ^ / / ! / ! ! ~ ~ 9.9.9.~ L L L P K G P L L ~ e.0.~ 0./ / ! K ^ / U x x y y k l K U T x k I x x r < Q.dXdXdX",
"dXdXsX|.q 8 8 C C 0 9 0 q 0 9 0 q D F Z Z D #.g.d.F A Z A ` A D D Z A Z 9 q C D D D A F *.;.g.g.h.h.h.d.f.h.j.f.f.] _ ] w.w.d.d.*.d.f.f.d.d.] ] =.h.d.=.] =.*.` _ *.F _ @.=.*._ ;.*.) ' ) ` V 0 ^.dXdXdX",
"dXdXdXiX7X7X7X7X0X7X0X7X7X7X6X7X7X7X0X6XeXwXeXeX0X6X0X0X0X0X0X0X0X0X0X7X7X0X7X0X0X0X0X0X0XwXeXeXeXeXeXeXeXeXqXqXqXqXqXqXqXeXeXqX0XqXqXqXeXeX0XeXeXeX0X0X0XeX0X0X0X0X6X0X0XqX0XqXwXqX0X0X0X0X0X6XuXdXdXdX",
"dXdXdXdXdXdXdXdXdXdXdXdXdXdXdXdXdXdXdXdXdXdXdXdXdXdXdXdXdXdXdXdXdXdXdXdXdXdXdXdXdXdXdXdXdXdXdXdXdXdXdXdXdXdXdXdXdXdXdXdXdXdXdXdXdXdXdXdXdXdXdXdXdXdXdXdXdXdXdXdXdXdXdXdXdXdXdXdXdXdXdXdXdXdXdXdXdXdXdXdX",
"dXdXdXdXdXdXdXdXdXdXdXdXdXdXdXdXdXdXdXdXdXdXdXdXdXdXdXdXdXdXdXdXdXdXdXdXdXdXdXdXdXdXdXdXdXdXdXdXdXdXdXdXdXdXdXdXdXdXdXdXdXdXdXdXdXdXdXdXdXdXdXdXdXdXdXdXdXdXdXdXdXdXdXdXdXdXdXdXdXdXdXdXdXdXdXdXdXdXdXdX",
"dXdXdXdXdXdXdXdXdXdXdXdXdXdXdXdXdXdXdXdXdXdXdXdXdXdXdXdXdXdXdXdXdXdXdXdXdXdXdXdXdXdXdXdXdXdXdXdXdXdXdXdXdXdXdXdXdXdXdXdXdXdXdXdXdXdXdXdXdXdXdXdXdXdXdXdXdXdXdXdXdXdXdXdXdXdXdXdXdXdXdXdXdXdXdXdXdXdXdXdX",
"dXdXdXdXdXdXdXdXdXdXdXdXdXdXdXdXdXdXdXdXdXdXdXdXdXdXdXdXdXdXdXdXdXdXdXdXdXdXdXdXdXdXdXdXdXdXdXdXdXdXdXdXdXdXdXdXdXdXdXdXdXdXdXdXdXdXdXdXdXdXdXdXdXdXdXdXdXdXdXdXdXdXdXdXdXdXdXdXdXdXdXdXdXdXdXdXdXdXdXdX",
"dXdXdXdXdXdXdXdXdXdXdXdXdXdXdXdXdXdXdXdXdXdXdXdXdXdXdXdXdXdXdXdXdXdXdXdXdXdXdXdXdXdXdXdXdXdXdXdXdXdXdXdXdXdXdXdXdXdXdXdXdXdXdXdXdXdXdXdXdXdXdXdXdXdXdXdXdXdXdXdXdXdXdXdXdXdXdXdXdXdXdXdXdXdXdXdXdXdXdXdX"
};
