/* XPM */
static char *_2451_6d1698ed777a164368fab2b5abe92f43604c654cd998f61840831fa020d94dd3[] = {
/* columns rows colors chars-per-pixel */
"100 75 186 2 ",
"   c #050301",
".  c #0A0603",
"X  c #0E0805",
"o  c #0D0B09",
"O  c #120701",
"+  c #140B06",
"@  c #190D07",
"#  c #150E09",
"$  c #1B0F08",
"%  c #13110E",
"&  c #1E110A",
"*  c #151412",
"=  c #181614",
"-  c #1B1816",
";  c #1D1C1A",
":  c #23140C",
">  c #28170E",
",  c #27180F",
"<  c #29180F",
"1  c #261911",
"2  c #2C1B12",
"3  c #211F1D",
"4  c #2C1F18",
"5  c #311E14",
"6  c #23201E",
"7  c #2E221C",
"8  c #352116",
"9  c #382317",
"0  c #35241A",
"q  c #3B2519",
"w  c #3E281B",
"e  c #262322",
"r  c #282624",
"t  c #2B2927",
"y  c #2D2C2A",
"u  c #352720",
"i  c #352A23",
"p  c #3B2C25",
"a  c #322E2B",
"s  c #3C2F28",
"d  c #33312F",
"f  c #3C312B",
"g  c #363432",
"h  c #3A3734",
"j  c #3A3937",
"k  c #3D3B3A",
"l  c #432B1E",
"z  c #462E20",
"x  c #482F20",
"c  c #463123",
"v  c #4C3222",
"b  c #45352C",
"n  c #48372D",
"m  c #4B392F",
"M  c #513625",
"N  c #543927",
"B  c #553B29",
"V  c #5A3D2A",
"C  c #453A33",
"Z  c #463B35",
"A  c #4D3D34",
"S  c #413E3C",
"D  c #503E33",
"F  c #5E402C",
"G  c #44413F",
"H  c #4D413B",
"J  c #564030",
"K  c #5E4534",
"L  c #53443B",
"P  c #5D483C",
"I  c #61422E",
"U  c #654631",
"Y  c #684731",
"T  c #674933",
"R  c #6B4A34",
"E  c #644C3B",
"W  c #6B4E3B",
"Q  c #714F37",
"!  c #6C513F",
"~  c #725037",
"^  c #745239",
"/  c #7A563C",
"(  c #7E593F",
")  c #464543",
"_  c #494745",
"`  c #4B4947",
"'  c #4D4B4A",
"]  c #504641",
"[  c #544A45",
"{  c #5D4D44",
"}  c #514E4D",
"|  c #594F48",
" . c #52504E",
".. c #5D524D",
"X. c #545351",
"o. c #595756",
"O. c #5A5856",
"+. c #5D5C5A",
"@. c #644E41",
"#. c #645145",
"$. c #64544B",
"%. c #6B584E",
"&. c #755945",
"*. c #665C56",
"=. c #6A5B53",
"-. c #615F5D",
";. c #725E54",
":. c #64615E",
">. c #776359",
",. c #656361",
"<. c #6B6663",
"1. c #6B6967",
"2. c #6C6B6A",
"3. c #716660",
"4. c #756963",
"5. c #796B62",
"6. c #726E6C",
"7. c #73706E",
"8. c #7A716C",
"9. c #757371",
"0. c #7A7775",
"q. c #7A7877",
"w. c #7C7B7A",
"e. c #805B3F",
"r. c #825D41",
"t. c #88674E",
"y. c #8B6C56",
"u. c #8A7364",
"i. c #82746C",
"p. c #837B77",
"a. c #897B72",
"s. c #857E7A",
"d. c #84807E",
"f. c #8A827D",
"g. c #848382",
"h. c #8B8785",
"j. c #8C8B8A",
"k. c #928A85",
"l. c #9A8D86",
"z. c #938F8C",
"x. c #9B8F89",
"c. c #94908E",
"v. c #9D938D",
"b. c #959493",
"n. c #9B9693",
"m. c #9B9897",
"M. c #9D9B9A",
"N. c #A69C97",
"B. c #A29E9C",
"V. c #A3A09E",
"C. c #A5A4A2",
"Z. c #A9A4A2",
"A. c #AAA8A7",
"S. c #ADACAB",
"D. c #B1AAA5",
"F. c #B8ABA3",
"G. c #B2AEAA",
"H. c #B3B0AE",
"J. c #BBB3AF",
"K. c #B4B3B2",
"L. c #BAB7B5",
"P. c #BCB9B7",
"I. c #BCBBBA",
"U. c #C2BEBC",
"Y. c #C4C1BF",
"T. c #C6C4C4",
"R. c #C9C6C4",
"E. c #C9C8C7",
"W. c #CDCCCB",
"Q. c #D2CDCB",
"!. c #D2D0CE",
"~. c #D5D4D3",
"^. c #D8D5D3",
"/. c #DAD8D6",
"(. c #DCDBDA",
"). c #E0DEDC",
"_. c #E3E0DF",
"`. c #E4E3E3",
"'. c #E9E7E6",
"]. c #ECEBEA",
"[. c #F0EFEE",
"{. c #F1F0EF",
"}. c #F4F4F3",
"|. c #F8F7F7",
" X c #F8F8F7",
".X c #FFFFFF",
/* pixels */
".X.X.X.X.X.X.X.X.X.X.X.X.X.X.X.X.X.X.X.X.X.X.X.X.X.X.X.X.X.X.X.X.X.X.X.X.X.X.X.X.X.X.X.X.X.X.X.X.X.X.X.X.X}.`.).].}..X.X.X.X.X.X.X.X.X.X.X.X.X.X.X.X.X.X.X.X.X.X.X.X.X.X.X.X.X.X.X.X.X.X.X.X.X.X.X.X.X.X",
".X.X.X.X.X.X.X.X.X.X.X.X.X.X.X.X.X.X.X.X.X.X.X.X.X.X.X.X.X{.~.S.g.2.<.b.]..X.X.X.X.X.X.X.X.X.X.X.X.X.X.XL.} a y g ` 1.b.L.Y.W.}..X.X.X.X.X.X.X.X.X.X.X.X.X.X.X.X.X.X.X.X.X.X.X.X.X.X.X.X.X.X.X.X.X.X.X.X",
".X.X.X.X.X.X.X.X.X.X.X.X.X.X.X.X.X.X.X.X.X.X.X.X.X.X.X`.g.) ; o         h..X.X.X.X.X.X X}.}. X.X.X.X`.I.a               o o = ,.`..X.X.X.X.X.X.X.X.X.X.X.X.X.X.X.X.X.X.X.X.X.X.X.X.X.X.X.X.X.X.X.X.X.X.X",
".X.X.X.X.X.X.X.X.X.X.X.X.X.X.X.X.X.X.X.X.X.X.X.X.X.X.Xq.          * ; ; z..X.X.X.XC.-.' ) ) X.M.|.z.a 1 $ + + @ + o X           9..X.X.X.X.X.X.X.X.X.X.X.X.X.X.X.X.X.X.X.X.X.X.X.X.X.X.X.X.X.X.X.X.X.X.X",
".X.X.X.X.X.X.X.X.X.X.X.X.X.X.X.X.X.X.X.X.X.X.X.X.X.X|.M.o       X.W.(.(. X{.C.b.j.3   + & X   = H...& : : < > : : 1 1 #         _ }..X.X.X.X.X.X.X.X.X.X.X.X.X.X.X.X.X.X.X.X.X.X.X.X.X.X.X.X.X.X.X.X.X.X",
".X.X.X.X.X.X.X.X.X.X.X.X.X.X.X.X.X.X.X.X].S.w.2.<.+.` e         e 2.j.m.z. .        # 8 0 >     e s 9 9 8 q 9 9 9 9 9 :         2..X.X.X.X.X.X.X.X.X.X.X.X.X.X.X.X.X.X.X.X.X.X.X.X.X.X.X.X.X.X.X.X.X.X.X",
".X.X.X.X.X.X.X.X.X.X.X.X.X.X.X.X.X.X.X~.X.o                                 - w x 7 : w l 8       . 2 v v v v v v v z #         -.W.`..X.X.X.X.X.X.X.X.X.X.X.X.X.X.X.X.X.X.X.X.X.X.X.X.X.X.X.X.X.X.X.X.X",
".X.X.X.X.X.X.X.X.X.X.X.X.X.X.X.X.X XM.r           + . .                 & 0 l w 8 8 : < x 8 O + + . + q I U I Y U U w .         . * y A..X.X.X.X.X.X.X.X.X.X.X.X.X.X.X.X.X.X.X.X.X.X.X.X.X.X.X.X.X.X.X.X",
".X.X.X.X.X.X.X.X.X.X.X.X.X.X.X.X.X].y     .   o $ : : : X . $ : & + + + : $ & > < < : @ < 2 9 x M M w > w T e.&.r.U #       o O       o..X.X.X.X.X.X.X.X.X.X.X.X.X.X.X.X.X.X.X.X.X.X.X.X.X.X.X.X.X.X.X.X",
".X.X.X.X.X.X.X.X.X.X.X.X.X.X.X.X.X.Xb.; o   . & 2 2 5 2 @ : 1 5 7 8 8 : $ : < 8 9 w 9 l M 2 2 8 q B B > X $ q J B :         X o   . # C..X.X.X.X.X.X.X.X.X.X.X.X.X.X.X.X.X.X.X.X.X.X.X.X.X.X.X.X.X.X.X.X",
".X.X.X.X.X.X.X.X.X.X.X.X XT.j.9.g.E..X/.j.o . 1 5 5 2 : : < 5 5 9 l l w : 8 9 w l l v I v 2 < < < < : + + X         o X       X $ @ & k..X.X.X.X.X.X).M.2.+.,.d.I. X.X.X.X.X.X.X.X.X.X.X.X.X.X.X.X.X.X.X",
".X.X.X.X.X.X.X.X.X.X.XE.+.*       g..X}.9.    # < < : 1 < 5 5 9 l v M l 2 l l c v v 8 @ $ 8 8 8 8 8 < + + + X X   X 5 5 &   X : : : $ i W.(.~. X.X/.j           * q.~.K.C.K.~.}..X.X.X.X.X.X.X.X.X.X.X.X",
".X.X.X.X.X.X.X.X.X.XM.3         ; S.K.} X   . + $ : < 2 2 9 l z M B V V I R w 8 9 2 @ : & > w l l w : + + 8 & X X o q v 8 o : 5 2 1 < > h ; d (..X!.y             o ; o   o - 2.}..X.X.X.X.X.X.X.X.X.X.X",
".X.X.X.X.X.X.X.X.Xb.*     X     X * o       O : : 2 5 5 9 l z M V V V I I l > + + + & v 0 & v M M M < @ & B w & @ + 2 M l 2 8 8 5 5 5 5 &   j ]..X.X~.g.X.- .         X       _ '..X.X.X.X.X.X.X.X.X.X.X",
".X.X.X.X.X.X.X.XK.*     & 9 o               & : 2 5 5 q l x M V V B I V 9 9 8 @ + + 9 N 8 : x v N F I w & N F V V v 2 q U M l w w 9 9 9 1 . * X.2.H..X.XS.7 @ O     # 2 $ ) Z.`..X~.L.E.`..X.X.X.X.X.X.X",
".X.X.X.X.X.X.X].k     # q z : +       O - 1 : 2 5 5 q z x N B V I Q Q 9 q l > + @ < v N 8 & & , 8 F I v & 8 w Y R I I 5 1 9 x x x l l l q : +     o 2.T.J , : @ +   0 l 2 { }..X{.$.1 2 i M..X.X.X.X.X.X",
".X.X.X.X.X.X.X~.-   . 2 q x 5 . $ 2 w x N l < 5 8 l V R Q Q ^ ^ e./ w + : > < 8 q v M v > & + & : M F q : < 8 F F 8 B F 9 , M N M v v x M M 9 +     o b w 8 > : @ o v I z b (..X|.5.2 : O <..X.X.X.X.X.X",
".X.X.X.X.X.X.X|.m.S : 5 w v q $ z M N v x N M 5 < : 1 9 w w M Q I 2 + < 8 q l 2 2 v v 8 : $ + & & l F 8 < 8 > c q $ v R F l M F F F V V I Y F 9 O   : M x w 8 > : $ # 2 2 C I.|..XQ.L : & Z..X.X.X.X.X.X",
".X.X.X.X.X.X.X.X.XB.5 5 l M z 2 v M q < 8 R v $ + + : > : @ + & $ + $ > 9 l q > : l l > & $ @ & @ 8 M < 8 < $ , > & l F 5 , 2 c T Y T I M I T I x & v T N x w 9 1 > : + .   * +.W..X^.i.3.`..X.X.X.X.X.X",
".X.X.X.X.X.X.X.X{.| > 5 l M q 5 M q < 1 9 c $ + & > q l l w : $ @ & : @ : l 9 : & w 8 & & + + $ @ & 8 5 < : + @ # : q l $ @ $ : l F I w $ $ : B R B R ^ U V x w 9 l 9 : # .     t W..X.X X.X.X.X.X.X.X.X",
".X.X.X.X.X.X X}.H.4 5 9 z M < q l > 2 4 9 $ + & l w l l l w : : & : & $ $ 9 5 : @ 8 < & X + @ O + $ < 8 < & $ + + , 8 8 $ @ @ $ < < & & 2 , & > T ~ ^ ( ^ T V v M V x 8 : +       q..X.X.X.X.X.X.X.X.X.X",
".X.X.X XE.g.X.h r : 2 q x 9 : w 1 2 5 9 8 # + 1 9 : 5 l l > @ & : & & & : 5 5 $ $ : & @ . + @   . @ 2 < < & + + @ , l 9 & $ $ $ > < $ , < > 8 & 2 F R ( t.^ I F M I V l 1 X       g..X.X.X.X.X.X.X.X.X.X",
".X.X.XM.*       O : 5 w x : 5 9 < 5 9 l 2 : 2 9 : : : 5 8 @ + $ : : & & & < < $ $ $ + +   + @     # < 8 < & + + + $ x 8 @ & + X : 7 2 < & & < < & & 2 F ^ r./ Y V M N 8 X     % :.`..X.X.X.X.X.X.X.X.X.X",
".X.X.Xh..       . & 5 l l : x 9 5 q l l & 9 z 9 : : : 1 5 + + & @ : & & & : > O : : + o   + @   . & q w < $ + + X + l < $ @ X X & q 8 : & & : < 8 2 , : , K ( / Y V w X     S I.|..X.X.X.X.X.X.X.X.X.X.X",
".X.X.X}.A.+.g ; * X # 1 1 l M x w l l 2 : l l 5 : : : > 2 O o & : : : : $ & $ O & & + X   + $   . : l l > # + + X O q , # $ X X : l w & + & : < 2 2 2 2 $ % 8 U N 2 o       -.}..X.X.X.X.X.X.X.X.X.X.X.X",
".X.X.X.X.X X].(.W.2.  . 2 v x R Y x > $ : 2 w 5 & & : & : + O $ : : $ $ : : : O & & X +   + &   X : x M , $ $ O X + 8 , + + X X > v c + X & & , 2 : > 8 : + & U z + .       o n..X.X.X.X.X.X.X.X.X.X.X.X",
".X.X.X.X.X.X}.}.`.7.  o 2 v M / Q 5 @ : : : 2 5 > : : : & + o $ @ @ $ : & & $ O : & O + X + & . X & v I < + # X X + , & + + X . 1 F w . . & > : : & X 1 : O & T v : $ +     ' `..X X|..X.X.X.X.X.X.X.X.X",
".X.X.X.X.X~.' j e X     : x M ^ 8 @ & & : : : 1 $ & & $ & + O @ : : $ : & : @ X & & X + + + & . O & x Y < $ $ + X + + + + + X . 2 U 1 .   + : # o     & > + + 8 8 : : +     ,..X{.6._ +.b.]..X.X.X.X.X.X",
".X.X.X.X).}     X + #   . w v T : $ & # & & & : O . o + $ + + @ : & @ : & : @ X # $ X $ + + $ X + & q R > $ & & O $ + + @ + O X 1 v +   . O : .       : : + : w 9 2 : @     o 9.I.,.      M..X.X.X.X.X.X",
".X.X].V.j     $ 2 5 &   X 9 x U 1 $ & . . & # & X .   + & + + $ & & @ : & $ @ X + + X $ & & & + $ & 8 T : & & : $ & @ @ $ + X X + + . . . X & X .     : & & l v w 8 8 1 l v 1   o %       j M.(..X.X.X.X",
".XT.k .     # 1 2 2 #   . 5 v V : & +     . . $       . @ + + @ : & $ & $ $ @ X O X O $ & & & % & : < K : & : > : : & @ & + O + + + X . X o & . .   o : $ > v l 8 M U &.r.~ V 2 .         X y S..X.X.X.X",
".Xq.      o : : : + . X # 5 v z : &         . .         + + @ @ & & $ $ $ $ @ X X X + $ & & : & 1 : : J 2 : > 2 < , : & : & + $ @ @ O . X X @ . . . + < @ + $ + & V ! y.r.Y V z &       # b.`..X.X.X.X.X",
".XK.%     @ : + .     o & l M 8 $ #                   . . O @ @ & & $ $ $ & & O . X O & & & : : > : : 2 > > 2 2 2 2 > > : & $ & $ $ + . + . O   . . # 1 + @ + + q T F T ( T B l 2 .     ' |..X.X.X.X.X.X",
".X X2.  X @ @ .       O 2 l F 0 $ +       .               O @ @ $ : $ $ $ : & O . . + : : & : : : > > : > 2 5 5 5 5 2 5 2 : & & $ $ + O + . . X . X & 5 : + + : M I v > I ~ N l 1   * X.E..X.X.X.X.X.X.X",
".X.X`.' . $ & X       + 8 z I w & $                       + @ @ & & $ $ $ : : O X . @ : : : : : : 2 2 < 5 5 5 5 q 5 5 5 5 > : : $ $ + + @ .   o X o : 5 1 + > V I v > O 8 I v 8 o X M. X.X.X.X.X.X.X.X.X",
".X.X.X(.G O $ $ X     + w l v v $ : X .                   + $ $ $ & $ $ $ & $ X X X @ : & & : > < 2 2 2 5 5 l l l l l q 5 2 : > : $ + + @ + . . . + > 5 & & B I V 8 + .   % +   o } ]..X.X.X.X.X.X.X.X.X",
".X.X.X.X~.S + : $     + 5 z l M 1 : @     . O             # $ $ $ & $ $ & & & O . O + : & : : > < 2 5 5 5 l l x x x z q 5 5 2 > : $ @ @ $ + X O X O < 2 & 9 F V V 8 .     S j.M.I.]..X.X.X.X.X.X.X.X.X.X",
".X.X.X.X.XT.6 + : O   X : l l M v & : +   # #     . X   . O $ $ $ $ $ & & & @ X X X + & : & : > 2 5 5 5 5 l x M N v w $ $ 2 2 > : & $ @ + + . + X + 1 2 & B V V V 8       9..X.X.X.X.X.X.X.X.X.X.X.X.X.X",
".X.X.X.X.X.Xq.  + +     O 1 l x I 1 $ $   $ +   . $ X   . @ $ $ & @ & $ $ : @ . O X @ & : : : : > 5 5 5 l z M F V V u .   $ < + . $ $ @ $ + + @ O + : 2 1 Y V B v +       * S..X.X.X.X.X.X.X.X.X.X.X.X.X",
".X.X.X.X.X.XT.*   $     X + 1 l I 9 $ & # : $ . o & .   . $ $ & & $ $ $ $ $ @ O O O @ : & : & > 2 2 5 5 l z N F U U v .   $ &     + $ $ @ $ @ @ + + & 2 1 I V l &           9..X.X.X.X.X.X.X.X.X.X.X.X.X",
".X.X.X.X.X.X X1.  + X     X @ 9 M w @ : : : & @ $ : @   . # & & & @ @ & & & @ . + + + & & : & : 2 5 5 9 l x N Y R Y B #   & :   . + $ @ @ @ + + @ + & 2 1 x M $       y q.M.`..X.X.X.X.X.X.X.X.X.X.X.X.X",
".X.X.X.X.X.X.X].q.# X       o 2 v w @ 2 : : & : : & $ . . $ & & @ @ @ @ $ $ @ O + X # & & & & : < 5 5 9 l x V I U U V 9 . $ 2 X . $ $ $ @ @ @ @ + + + 1 5 0 q @ o   o S..X.X.X.X.X.X.X.X.X.X.X.X.X.X.X.X",
".X.X.X.X.X.X.X.X.Xq.          # v l + q > : > : & : $ X . $ $ : @ O O O @ $ # + O + @ $ & : : & > 2 5 5 q l M V V V 9 & o . 2 # . & $ @ @ @ + + @ + $ 5 l 9 5 > + . X _ w.C.{..X.X.X.X.X.X.X.X.X.X.X.X.X",
".X.X.X.X.X.X.X.X.X/.e           0 0 + : : @ 1 2 & : & O . $ & & @ # O # + @ @ . + + @ $ & & @ : : 2 2 5 l l x M N M 9 4 + X $ X . $ $ @ @ # + @ + + : x M w 5 : $ .       . C..X.X.X.X.X.X.X.X.X.X.X.X.X",
".X.X.X.X.X.X.X.X.X}.S     .     2 v $ & + @ q 2 $ : : @ O & $ : @ + + X # O + X + + @ @ $ $ $ : : < 2 5 9 q l x v l l w + .       + $ @ @ @ + @ @ + 5 V M w 5 > & +     .  .)..X.X.X.X.X.X.X.X.X.X.X.X.X",
".X.X.X.X.X.X.X.X.X XX.  . X .   # v w l w : 9 9 $ > 2 $ @ & : : $ + + X O # + + + # + @ $ $ $ & : : 1 < 5 8 9 l l l l 8 o X       . $ $ @ @ $ $ + + 2 M M l 8 1 & .     X ' L. X.X.X.X.X.X.X.X.X.X.X.X.X",
".X.X.X.X.X.X.X.X.X.X+.  . + X   o : 2 5 q w q 2 @ 2 5 $ $ : : > : # O + + + O + + + + + @ # $ & $ $ : > 2 5 5 8 5 9 8 5 o $ #     . @ # + + @ O + + 2 5 2 8 9 2 @ .         % C..X.X.X.X.X.X.X.X.X.X.X.X",
".X.X.X.X.X.X.XJ.Z..Xc.o   @ $   . & > 1 5 q l l q q l l 2 & & l 2 @ + + + + + X + + @ + + + $ $ @ @ & : : 2 5 2 2 5 2 : + $ : .   + + + O + o X + $ 2 : $ : 9 l 1 + O o       ,..X.X.X.X.X.X.X.X.X.X.X.X",
".X.X.X.X.X.X}.=.p J.}.A.a X $ +   + $ : < 5 w l v v M V U N l x 8 : + + + + O + # + + + O + $ @ + + @ : > < < < < 2 < : + $ & O X + @ + + + + + + : 2 & 1 x 5 5 l w : @ @ + < m N.'..X.X.X.X.X.X.X.X.X.X",
".X.X.X.X.X.X}.{ 5 @.`..XL.% . +   . X : : 2 9 v x x x v B ^ ^ F 9 : $ + + + + + + $ + + + O : : + O @ $ > 5 5 2 2 5 5 < + # 1 # X & > : : & & $ @ > 2 + 2 z 9 8 v M 5 X . < l l 9 { U..X.X.X.X.X.X.X.X.X",
".X.X.X.X.X.X}...2 q x..Xb.o         . @ > : 8 l x x M v M N / / v , & o + + + @ @ @ $ + O # $ : @ . # $ & 2 2 5 5 5 2 5 + . : :   X & : & & $ & $ < 9 q v v w 8 M v v :.9.D q q 8 5 b P..X.X.X.X.X.X.X.X",
".X.X.X.X.X.X.X>.< 5 K N.;             + @ 2 l l x x M v x M V r.V , > : & : O @ + @ $ + O @ : $ # O @ @ @ : 2 5 2 5 2 2 $   X : X   . + $ @ & : + 8 M M q l # : M l E _.}.#.q 9 8 5 1 L _..X.X.X.X.X.X.X",
".X.X.X.X.X.X.Xk.< 5 w i .     o       + + 2 l 5 > 5 x M M M M R Q 8 q l : : : O @ $ $ + + $ : : $ # @ @ # @ & < 2 5 2 2 * .   @ @   . . + @ : < : l V l 8 : . # q l B W.{.%.9 9 5 5 < < v..X.X.X.X.X.X.X",
".X.X.X.X.X.X.XE.p 2 5 2 .   X .     o + + # $ + + @ 9 x x M N B ~ V N M l 2 : @ $ : & & + $ : $ : @ @ @ @ + # $ 2 2 2 < : . . . $ + X   X + < l w v v w 2 : @ + + & . o.].=.8 5 5 < < > [ [..X.X.X.X.X.X",
".X.X.X.X.X.X.X.Xf.& & #           X $ : + . + + @ : < 5 9 x N N I Y I V V V M 2 @ : : $ & : & & : & @ @ @ # @ : 5 2 : < : + . O O # X     + 9 l l M v 9 > $ + + +     e !.$.8 8 2 < < > i ^..X.X.X.X.X.X",
".X.X.X.X.X.X.X.X`.1.y %             . # & .   X + < 2 5 5 q z x N Y Q R ~ / ^ V < @ & @ $ $ & : $ & $ @ @ & > 2 2 < & 1 : # . # . + + . X & M M M v w 2 : + + O .     k R.n 5 2 2 > > : i /..X.X.X.X.X.X",
".X.X.X.X.X.X.X!.B.J.W.T.X.    . .   . . . . . O + > : 2 5 5 w l v V Y ~ / ^ Q Q I x l > & : & & $ @ @ # & < < , > : & : : & @ $ X X + < : l V M V l 2 1 + . . X o ; X.E.^.n 2 2 2 > : $ L ]..X.X.X.X.X.X",
".X.X.X.X.X.X.Xn.: : A P.W.i + X O X   . . .   + 1 9 2 > 1 5 8 q l M N V V V V I R ~ ~ I F F F F F x , + @ : , & < : : : $ $ $ $ O + + M N I F 8 V 8 5 1 t b.A.S.L./. X.X.XD.A 2 > : : : m..X.X.X.X.X.X.X",
".X.X.X.X.X.X.X}.h.0 @ ..].$.7 i @ @ + X .     # < 8 8 : > 2 5 8 q M V V V V V I I ~ R M 9 9 N ~ ^ ( ~ N 2 + @ + $ : : & $ $ + + X X 1 R ~ ~ F : q 2 l $ g ~..X.X.X].F.l.L.}.`.n...Z A z.}..X.X.X.X.X.X.X",
".X.X.X.X.X'.T.U.E.G.s.G.}.=.b L...: @ @ @ +   + : < 5 2 : > 2 5 8 < 9 x l l l N I v : + + 5 w v N F T ( R $ X # & $ # O + # O # 0 # B / / / x % 2 l q # 2 a 2.(.].u.N w w a.U.Y.Q.(.}..X.X.X.X.X.X.X.X.X",
".X.X.X.X/.[ 1 1 7 n 4.R..XD.*.].[.G.<.f : @   . $ : > < < > : 2 2 : $ 1 < 5 5 l M N 5 : 8 w w q q w w v ^ F B W ~ ! F w + X O v / U v U ( / l Y F v 2 % x 2   o.Q.U l 9 > : 1 2 p $.s.K.).|..X.X.X.X.X.X",
".X.X.X.X0.@ @ & & & & i Z. X}..X.X.X.XW.3       O & & : < : : < > O $ : > < 2 2 w F F V V w 8 9 9 8 8 9 l J B v c v K #.D c P t.t.! % & 0 q x V v l 8 & 9 2 . 3 Q.i.9 1 : @ : : : $ $ : p *.m.(..X.X.X.X",
".X.X.X}.] O $ & & : : : z R..X X.X.X.X}.g.y o     + + + @ @ $ > #   . $ : > > < < w q 8 9 2 8 8 8 8 8 5 , + + + + + & 0 v J W E J 1 X X X 2 w w 2 q l : . .   k ]./.b : @ + : : & & : $ @ @ $ p d.'..X.X",
".X.X.X`.c @ $ $ $ & : : 1 { V.5.Q..X}.l.a.v.n.j     .     . X o .     . O & : : X X + X X : < < < < < 8 B v q < $ & 2 l v B M l @ . o X . X o + + & i a y k 7.Q..X).b : @ : > : : $ $ $ $ @ $ @ $ ..]..X",
".X.X.XT.1 $ $ $ $ & : & > > 5 2 E _.).v q v >.<.      X           X .     + # .     X . . + : : > > : v R Y z < : : & & : 5 9 9 X k b.C.2.=       # C././.(./.^.[.).n < : > : : $ $ $ $ $ $ $ & @ 0 ~..X",
".X.X.X6.@ $ $ $ $ & : : > > 2 2 8 k.~.c 9 l l #                 + : &       o d X   . + X X . + $ : : M V 5 & @ & & > w M v 7 o   % j g.].<.      1 #.;.%.{ A z 4.'.>.> > : : $ & $ $ $ $ & $ $ $ p..X.X",
".X.XE.0 : & $ & & $ $ & : > > 5 5 n } 2 8 8 %                 o $ : : r h 2.I.].j.e . . + X     X . + # + .     . + # & % X   o y ` +.g.].g.t ; 4 x l l l 9 5 5 5 G.Q.b : : : & $ $ & @ $ $ $ & 8.}..X.X",
".X.XG.2 < > : $ $ $ $ & : : > 2 5 2 . . + .                     + $ Z ~.[.(.K.Z.W./.V.2.h +               X & 1 1 : .     o O.L.`. X.X.X.X.X`.!.;.l l l q 9 9 5 2 8..XY.A $ $ & $ $ $ & & @ 5 l.}..X.X.X",
".X].$.5 5 < 2 & $ & @ : & : < : 2 0 o                         . +.z.z. XV.s : $ u p.W.~.Z.*     o & % + + 1 5 & % k _ k k b.}..X.X.X.X.X.X.X.X`.E l z l q 9 9 2 2 $.}..X(.<.: $ $ @ $ @ $ L U..X.X.X.X.X",
".XD.9 5 5 5 5 > $ $ & @ $ : : > L T.V.X.e o o         o % t X.V.]..X.X}.[ O @ @ & 4 p 0 0 $ # & < < < 2 2 2 o   <.].}.}.}..X.X.X.X.X.X.X.X.X.X~.B l l q 9 9 5 5 1 A ]..X.X|.V.C & @ @ p k.'..X.X.X.X.X.X",
".Xv.5 9 9 9 5 5 $ $ $ @ $ 1 Z f.(..X.X X`.T.K.M.b.b.M.K.T.`. X.X.X.X.X.XU.[ [ s.S.W.,.X # # + X + $ & : & % -  .~..X.X.X.X.X.X.X.X.X.X.X.X.X.X'.#.l w q 9 8 5 5 < n `..X.X.X.X`.Z.p.c.^..X.X.X.X.X.X.X.X",
".X).5.v q 5 q 5 @ @ 7 ..k.U.'..X.X.X.X.X.X.X.X.X.X.X.X.X.X.X.X.X.X.X.X.X.X}.}..X.X.Xc.6 o   3 2.g.d.d.j.C.L.~.}..X.X.X.X.X.X.X.X.X.X.X.X.X.X.X.XU.$.c w 9 < 2 < > b `..X.X.X.X.X.X.X.X.X.X.X.X.X.X.X.X.X",
".X.X}.Q.v.i.v.G.6.s.W.|..X.X.X.X.X.X.X.X.X.X.X.X.X.X.X.X.X.X.X.X.X.X.X.X.X.X.X.X.X.X X(.K.C.~..X.X.X.X.X.X.X.X.X.X.X.X.X.X.X.X.X.X.X.X.X.X.X.X.X.X[.Q.L.G.f.A < : H ]..X.X.X.X.X.X.X.X.X.X.X.X.X.X.X.X.X",
".X.X.X.X.X.X.X.X.X.X.X.X.X.X.X.X.X.X.X.X.X.X.X.X.X.X.X.X.X.X.X.X.X.X.X.X.X.X.X.X.X.X.X.X.X.X.X.X.X.X.X.X.X.X.X.X.X.X.X.X.X.X.X.X.X.X.X.X.X.X.X.X.X.X.X.X.X.X_.B.8.H..X.X.X.X.X.X.X.X.X.X.X.X.X.X.X.X.X.X",
".X.X.X.X.X.X.X.X.X.X.X.X.X.X.X.X.X.X.X.X.X.X.X.X.X.X.X.X.X.X.X.X.X.X.X.X.X.X.X.X.X.X.X.X.X.X.X.X.X.X.X.X.X.X.X.X.X.X.X.X.X.X.X.X.X.X.X.X.X.X.X.X.X.X.X.X.X.X.X.X.X.X.X.X.X.X.X.X.X.X.X.X.X.X.X.X.X.X.X.X"
};
