/* XPM */
static char *_192f8241781402cce6da9deb84e1568Vp6tddpwApNDKdZ2[] = {
/* columns rows colors chars-per-pixel */
"100 75 211 2 ",
"   c #171614",
".  c #181715",
"X  c #171816",
"o  c #1A1916",
"O  c #1D1C1A",
"+  c #221C17",
"@  c #221E1A",
"#  c #2B1D1B",
"$  c #351E1C",
"%  c #272117",
"&  c #23211E",
"*  c #2B231D",
"=  c #34231E",
"-  c #3C221E",
";  c #362A1B",
":  c #32291C",
">  c #3E3218",
",  c #252524",
"<  c #2A2623",
"1  c #272827",
"2  c #2A2826",
"3  c #2C2C2B",
"4  c #322721",
"5  c #3C2320",
"6  c #352A23",
"7  c #392A22",
"8  c #322E2C",
"9  c #373027",
"0  c #32302E",
"q  c #3B322B",
"w  c #333332",
"e  c #3A3634",
"r  c #393937",
"t  c #36393B",
"y  c #3D3C3B",
"u  c #4B2622",
"i  c #452B23",
"p  c #532824",
"a  c #5C2A25",
"s  c #4B3426",
"d  c #46352A",
"f  c #503627",
"g  c #553928",
"h  c #5A3B2A",
"j  c #443B35",
"k  c #473B36",
"l  c #493E33",
"z  c #423E3B",
"x  c #5D3F33",
"c  c #6B2D27",
"v  c #642F29",
"b  c #69352D",
"n  c #74312A",
"m  c #7B322B",
"M  c #5B471F",
"N  c #624B1E",
"B  c #5B4824",
"V  c #4D4134",
"C  c #42403D",
"Z  c #4E423B",
"A  c #52443B",
"S  c #56493A",
"D  c #5C4D3D",
"F  c #634E2A",
"G  c #6C5434",
"H  c #454443",
"J  c #484745",
"K  c #484847",
"L  c #454748",
"P  c #4D4C4B",
"I  c #574942",
"U  c #514F4E",
"Y  c #55514B",
"T  c #4B4F52",
"R  c #545353",
"E  c #595857",
"W  c #5C5C5B",
"Q  c #675646",
"!  c #64544C",
"~  c #715F49",
"^  c #6D5A51",
"/  c #605F5E",
"(  c #735E55",
")  c #5F605F",
"_  c #74614A",
"`  c #60605F",
"'  c #7E6851",
"]  c #7A645A",
"[  c #7B655B",
"{  c #595E61",
"}  c #646463",
"|  c #696767",
" . c #6D6C6B",
".. c #756E6A",
"X. c #71706F",
"o. c #686E72",
"O. c #6F7274",
"+. c #757574",
"@. c #797777",
"#. c #787878",
"$. c #7B7B7A",
"%. c #82352E",
"&. c #8A362E",
"*. c #90362F",
"=. c #863931",
"-. c #923730",
";. c #943932",
":. c #9D3B33",
">. c #A33C34",
",. c #AC3E35",
"<. c #94473B",
"1. c #B0493D",
"2. c #886726",
"3. c #997427",
"4. c #AB5645",
"5. c #B75344",
"6. c #846D54",
"7. c #80685E",
"8. c #8B7256",
"9. c #8D755C",
"0. c #977A5C",
"q. c #BC614D",
"w. c #BC6A53",
"e. c #866D62",
"r. c #886E63",
"t. c #8F796E",
"y. c #977C64",
"u. c #C6785D",
"i. c #C87E61",
"p. c #B18428",
"a. c #9C8162",
"s. c #81817F",
"d. c #9B8376",
"f. c #A58565",
"g. c #AC8D6B",
"h. c #B2926E",
"j. c #B89672",
"k. c #BB9975",
"l. c #CB8565",
"z. c #C29E75",
"x. c #C69E78",
"c. c #D79F78",
"v. c #C9A47A",
"b. c #CCA67C",
"n. c #D6AB7F",
"m. c #7A8287",
"M. c #838484",
"N. c #888787",
"B. c #868788",
"V. c #8C8C8B",
"C. c #918F8E",
"Z. c #90908F",
"A. c #868C91",
"S. c #8B9399",
"D. c #939493",
"F. c #95989A",
"G. c #9B9A9A",
"H. c #A0A09F",
"J. c #8C99A2",
"K. c #979EA3",
"L. c #96A3AD",
"P. c #9EADB8",
"I. c #A4A4A4",
"U. c #A7A9AA",
"Y. c #ABABAC",
"T. c #B0AFAF",
"R. c #A7AFB5",
"E. c #AEB2B4",
"W. c #A2B2BD",
"Q. c #B3B3B3",
"!. c #B5B8BA",
"~. c #BCBCBB",
"^. c #D6AD81",
"/. c #DBB385",
"(. c #E0B788",
"). c #E3B98A",
"_. c #C0C0BF",
"`. c #A6B6C0",
"'. c #ABB9C3",
"]. c #B6BDC3",
"[. c #BBC2C7",
"{. c #BBC5CD",
"}. c #BDC8D0",
"|. c #C3C4C4",
" X c #C2C6C9",
".X c #C6C9CB",
"XX c #CACBCB",
"oX c #C4CDD4",
"OX c #C9CFD5",
"+X c #CCD1D5",
"@X c #CDD4DB",
"#X c #D3D4D4",
"$X c #D2D7DC",
"%X c #D6DBDE",
"&X c #DCDCDC",
"*X c #E0E0DF",
"=X c #DADEE1",
"-X c #DDE2E5",
";X c #DFE4E8",
":X c #E3E4E5",
">X c #E6E7E9",
",X c #E4E7EA",
"<X c #E5E8EB",
"1X c #E6E9EC",
"2X c #E9EBEC",
"3X c #EDEFF0",
"4X c #EFF0F1",
"5X c #F2F3F4",
"6X c gray97",
"7X c #F6F7F8",
"8X c #F9F9F9",
/* pixels */
"6X6X6X6X6X6X6X6X6X6X6X6X6X6X6X6X6X6X6X6X6X6X6X6X6X6X6X6X6X6X6X6X6X6X6X6X6X6X6X6X6X6X6X6X6X6X6X6X6X6X6X6X6X6X6X6X6X6X6X6X6X6X6X6X6X6X6X6X6X6X6X6X6X6X6X6X6X6X6X6X6X6X6X6X6X6X6X6X6X6X6X6X6X6X6X6X6X6X6X6X",
"6X6X6X6X6X6X6X6X6X6X6X6X6X6X6X6X6X6X6X6X6X6X6X6X6X6X6X6X6X6X6X6X6X6X6X6X6X6X6X6X6X6X6X6X6X6X6X6X6X6X6X6X6X6X6X6X6X6X6X6X6X6X6X6X6X6X6X6X6X6X6X6X6X6X6X6X6X6X6X6X6X6X6X6X6X6X6X6X6X6X6X6X6X6X6X6X6X6X6X6X",
"6X6X6X6X6X6X6X6X6X6X6X6X6X6X6X6X6X6X6X6X6X6X6X6X6X6X6X6X6X6X6X6X6X6X6X6X6X6X6X6X6X6X6X6X6X6X6X6X6X6X6X6X6X6X6X6X6X6X6X6X6X6X6X6X6X6X6X6X6X6X6X6X6X6X6X6X6X6X6X6X6X6X6X6X6X6X6X6X6X6X6X6X6X6X6X6X6X6X6X6X",
"6X6X6X6X6X6X6X6X6X6X6X6X6X6X6X6X6X6X6X6X6X6X6X6X6X6X6X6X6X6X8X8X6X6X6X6X6X6X6X6X6X6X6X6X6X6X6X6X6X6X6X6X6X6X6X6X6X6X6X6X6X6X6X6X6X6X6X6X6X6X6X6X6X6X6X6X6X6X6X6X6X6X6X6X6X6X6X6X6X6X6X6X6X6X6X6X6X6X6X6X",
"6X6X6X6X6X6X6X6X6X6X6X6X6X6X6X6X6X6X6X6X6X6X6X6X6X6X6X6X6X6X|.&X8X8X6X6X6X6X6X6X6X6X6X6X6X6X6X6X6X6X6X6X6X6X6X6X6X6X6X6X6X6X6X6X6X6X6X6X6X6X6X6X6X6X6X6X6X6X6X6X6X6X6X6X6X6X6X6X6X6X6X6X6X6X6X6X6X6X6X6X",
"6X6X6X6X6X6X6X6X6X6X6X6X6X6X6X6X6X6X6X6X6X6X6X6X6X6X6X6X8X|.0 y V.&X8X6X6X6X6X6X6X6X6X6X6X6X6X6X6X6X6X6X6X6X6X6X6X6X6X6X6X6X6X6X6X6X6X6X6X6X6X6X6X6X6X6X6X6X6X6X6X6X6X6X6X6X6X6X6X6X6X6X6X6X6X6X6X6X6X6X",
"6X6X6X6X6X6X6X6X6X6X6X6X6X6X6X6X6X6X6X6X6X6X6X6X6X6X6X6X5X .. O . H Q.6X6X6X6X6X6X6X6X6X6X6X6X6X6X6X6X6X6X6X6X6X6X6X6X6X6X6X6X6X6X6X6X6X6X6X6X6X6X6X6X6X6X6X6X6X6X6X6X6X6X6X6X6X6X6X6X6X6X6X6X6X6X6X6X6X",
"6X6X6X6X6X6X6X6X6X6X6X6X6X6X6X6X6X6X6X6X6X6X6X6X6X6X6X8X#X3 w D.E O 2 H.6X6X6X6X6X6X8X8X8X6X6X6X6X6X6X6X6X6X6X6X6X6X6X6X6X6X6X6X6X6X6X6X6X6X6X6X6X6X6X6X6X6X6X6X6X6X6X6X6X6X6X6X6X6X6X6X6X6X6X6X6X6X6X6X",
"6X6X6X6X6X6X6X6X6X6X6X6X6X6X6X6X6X6X6X6X6X8X8X8X8X8X6X8XI.. E V.N.} & 2 ~.8X6X6X5X2X>X:X:X>X2X4X5X5X5X6X6X6X6X6X6X6X6X6X6X6X6X6X6X6X6X6X6X6X6X6X6X6X6X6X6X6X6X6X6X6X6X6X6X6X6X6X6X6X6X6X6X6X6X6X6X6X6X6X",
"6X6X6X6X6X6X6X6X6X6X6X6X6X6X6X6X6X6X6X8X2XI.I.!.#X2X8X8Xs.  W } P #.U   } -XXXI.#.W P J P U ) #.G.|.=X2X2X2X4X5X6X6X6X6X6X6X6X6X6X6X6X6X6X6X6X6X6X6X6X6X6X6X6X6X6X6X6X6X6X6X6X6X6X6X6X6X6X6X6X6X6X6X6X6X",
"6X6X6X6X6X6X6X6X6X6X6X6X6X6X6X6X6X6X6X8XXX2 . O 3 R G.>X@.. E  .w } R O , P w O     . o o o . . o 2 P V.XX<X<X<X2X4X6X6X6X6X6X6X6X6X6X6X6X6X6X6X6X6X6X6X6X6X6X6X6X6X6X6X6X6X6X6X6X6X6X6X6X6X6X6X6X6X6X6X",
"6X6X6X6X6X6X6X6X6X6X6X6X6X6X6X6X6X6X6X8X!.O y / z O o U R o P E , & O o o . o O O & , , 3 0 3 3 8 2 O o w M.+X1X>X>X1X3X5X6X6X6X6X6X6X6X6X6X6X6X6X6X6X6X6X6X6X6X6X6X6X6X6X6X6X6X6X6X6X6X6X6X6X6X6X6X6X6X",
"6X6X6X6X6X6X6X6X6X6X6X6X6X6X6X6X6X6X6X8XY.. } Q.N.| r o o o & O o o O & , , , , , O o O , w w w w y J y , . H Y.>X<X>X>X1X2X5X6X6X6X6X6X6X6X6X6X6X6X6X6X6X6X6X6X6X6X6X6X6X6X6X6X6X6X6X6X6X6X6X6X6X6X6X6X",
"6X6X6X6X6X6X6X6X6X6X6X6X6X6X6X6X6X6X6X8XY.o E M.P } +.y o o o O , , , , 2 2 3 3 2 , & O o @ 3 w w 2 2 H U r o 2 V.:X<X>X>X<X2X3X6X6X6X6X6X6X6X6X6X6X6X6X6X6X6X6X6X6X6X6X6X6X6X6X6X6X6X6X6X6X6X6X6X6X6X6X",
"6X6X6X6X6X6X6X6X6X6X6X6X6X6X6X6X6X6X6X8X|.& y @.W w U 2 o O , , , , 2 w w w 3 w w 3 2 , O o O 3 w w , O 2 P J & @ N.:X<X>X>X>X<X2X5X6X6X6X6X6X6X6X6X6X6X6X6X6X6X6X6X6X6X6X6X6X6X6X6X6X6X6X6X6X6X6X6X6X6X",
"6X6X6X6X6X6X6X6X6X6X6X6X6X6X6X6X6X6X6X4X$Xy O } @.y o o O , , , 2 w w 2 , O , 8 w w w 3 2 , o O 3 w w 3 , O w z & & F.<X>X>X>X>X<X2X3X6X6X6X6X6X6X6X6X6X6X6X6X6X6X6X6X6X6X6X6X6X6X6X6X6X6X6X6X6X6X6X6X6X",
"6X6X6X6X6X6X6X6X6X6X6X6X6X6X6X6X6X5X4X5X6XV.. 0 R , o & , , 1 3 3 , O o O 2 w w w w w w w 2 & o , w w w w 3 , , 8 O 3 Q.1X>X>X>X>X<X2X2X5X6X6X6X6X6X6X6X6X6X6X6X6X6X6X6X6X6X6X6X6X6X6X6X6X6X6X6X6X6X6X6X",
"6X6X6X6X6X6X6X6X6X6X6X6X6X6X6X6X6X6X6X6X8X>X` o O o O , , , 2 , O o O 2 w w w w w 2 , 3 w 3 2 & O 3 3 , 3 w w 3 3 w o P $X<X>X>X>X>X<X2X2X4X6X6X6X6X6X6X6X6X6X6X6X6X6X6X6X6X6X6X6X6X6X6X6X6X6X6X6X6X6X6X",
"6X6X6X6X6X6X6X6X6X6X6X6X6X6X6X6X6X6X6X6X6X8X&XH   O , , , O o o & 2 w w w w w 2 O O 3 w w w w w , 2 w 2 O 2 w w y U w o B.<X>X>X>X>X>X<X1X2X4X6X6X6X6X6X6X6X6X6X6X6X6X6X6X6X6X6X6X6X6X6X6X6X6X6X6X6X6X6X",
"6X6X6X6X6X6X6X6X6X6X6X6X6X6X6X6X6X6X6X6X6X8X|.2 o , , & o O O 2 w w w w w 3 , o , 0 w w w w w w 0 2 w w 2 O , w H U U @ w .X1X>X>X>X>X>X1X2X2X4X6X6X6X6X6X6X6X6X6X6X6X6X6X6X6X6X6X6X6X6X6X6X6X6X6X6X6X6X",
"6X6X6X6X6X6X6X6X6X6X6X6X6X6X6X6X6X6X6X6X6X5X}   & , , O , , 1 w w w w w 2 O o , w w w w w w w w 0 3 w w w 2 O , w U } y . M.1X>X>X>X>X>X<X1X1X1X4X6X6X6X6X6X6X6X6X6X6X6X6X6X6X6X6X6X6X6X6X6X6X6X6X6X6X6X",
"6X6X6X6X6X6X6X6X6X6X6X6X6X6X6X6X6X6X6X6X8X.X2 o , , , , , , 3 w w w 3 , o O 2 w w w w w w w w 3 @ o O 2 w w 3 O , w R E O C $X<X>X>X>X,X>X<X2X1X2X4X6X6X6X6X6X6X6X6X6X6X6X6X6X6X6X6X6X6X6X6X6X6X6X6X6X6X",
"6X6X6X6X6X6X6X6X6X6X6X6X6X6X6X6X6X6X6X6X8XV.. O , , , , , , 3 3 2 , O o & 3 w w w w w w w w 2 O O 8 & o @ 3 w 3 , , y E 0 O Y.1X>X>X>X>X>X>X<X1X2X2X5X6X6X6X6X6X6X6X6X6X6X6X6X6X6X6X6X6X6X6X6X6X6X6X6X6X",
"6X6X6X6X6X6X6X6X6X6X6X6X6X6X6X6X6X6X6X6X5XE   , , , , , , , , , , o o , w w w w w w w w w , o o @ V 9 o o o , w w 2 3 J H   #.1X>X>X>X>X>X>X>X1X2X2X2X5X6X6X6X6X6X6X6X6X6X6X6X6X6X6X6X6X6X6X6X6X6X6X6X6X",
"6X6X6X6X6X6X6X6X6X6X6X6X6X6X6X6X6X6X6X8X:Xy o , , , , , , , , & o O 2 w w w w w w w w 2 O o O o o o o o O O o , w w w w P O R -X,X,X,X,X>X>X>X<X2X2X2X2X6X6X6X6X6X6X6X6X6X6X6X6X6X6X6X6X6X6X6X6X6X6X6X6X",
"6X6X6X6X6X6X6X6X6X6X6X6X6X6X6X6X6X6X6X8X#X3 o , , , , , , , & o O 2 w w w w w w w 3 & o @ P @.#.@.} P w 8 R y o & 0 w w J , r #X1X,X,X,X>X>X>X>X<X2X2X2X2X6X6X6X6X6X6X6X6X6X6X6X6X6X6X6X6X6X6X6X6X6X6X6X",
"6X6X6X6X6X6X6X6X6X6X6X6X6X6X6X6X6X6X6X8X.X2 O , , , , , , , o O , 1 w w w w w 2 & o O y @.N.X.| U 2 O & U C.C.z . , w w y 2 3 .X1X>X>X>X>X>X>X>X>X1X2X2X2X4X6X6X6X6X6X6X6X6X6X6X6X6X6X6X6X6X6X6X6X6X6X6X",
"6X6X6X6X6X6X6X6X6X6X6X6X6X6X6X6X6X6X6X8X|., O , , , , , , O , , , 2 w w 3 2 @ o O y X.G.I.V.W H w w w y } G.I.C.r o , w w , 2 [.1X>X>X>X>X>X>X>X>X<X2X2X2X2X5X6X6X6X6X6X6X6X6X6X6X6X6X6X6X6X6X6X6X6X6X6X",
"6X6X6X6X6X6X6X6X6X6X6X6X6X6X6X6X6X6X6X8X.X, O , , , , , , , , , , , 2 , O o o . , H U P P P P P J H H J P P P P r o O 3 w @ 3  X>X>X>X>X,X>X>X>X>X>X1X2X2X2X2X6X6X6X6X6X6X6X6X6X6X6X6X6X6X6X6X6X6X6X6X6X",
"6X6X6X6X6X6X6X6X6X6X6X6X6X6X6X6X6X6X6X8X#X2 o , , , , , , , , , , O o O O O O O O o o o o o o o o o o o o o o o o O o , 8 o r +X:X,X>X>X,X>X>X>X>X>X<X2X2X2X2X5X6X6X6X6X6X6X6X6X6X6X6X6X6X6X6X6X6X6X6X6X",
"6X6X6X6X6X6X6X6X6X6X6X6X6X6X6X6X6X6X6X8X&Xw o , , , , , , , , , , o q 6.9.9.9.9.9.9.9.9.9.9.9.9.9.9.9.9.9.9.9.9.9.8.8 o , . R =X-X:X>X>X,X>X>X>X>X>X>X1X2X2X2X2X6X6X6X6X6X6X6X6X6X6X6X6X6X6X6X6X6X6X6X6X",
"6X6X6X6X6X6X6X6X6X6X6X6X6X6X6X6X6X6X6X8X2XJ . , , , , , , , , , O o l V S 9.j.k.k.k.k.k.k.k.k.k.k.k.k.k.k.k.k.k.k.g.D o O o M.;X-X-X>X,X>X>X>X>X>X>X>X<X2X2X2X2X4X6X6X6X6X6X6X6X6X6X6X6X6X6X6X6X6X6X6X6X",
"6X6X6X6X6X6X6X6X6X6X6X6X6X6X6X6X6X6X6X6X6X}   , , , , , , , , , o o O * # & D h./././././././././././././././.b.~ 9 < o o 3 ].;X-X-X:X>X>X>X,X>X,X,X,X>X1X2X2X2X2X6X6X6X6X6X6X6X6X6X6X6X6X6X6X6X6X6X6X6X",
"6X6X6X6X6X6X6X6X6X6X6X6X6X6X6X6X6X6X6X6X8XV.. & , , , , , , , O o o % h h i # 6 6.^.).(.(.(.(.(.(.).).).).).z.S @ : @ o   } -X-X-X-X-X>X>X>X,X,X,X,X>X>X<X2X2X2X2X4X6X6X6X6X6X6X6X6X6X6X6X6X6X6X6X6X6X6X",
"6X6X6X6X6X6X6X6X6X6X6X6X6X6X6X6X6X6X6X6X8X~.& O , , , , , , , O o o 7 g g h g ; O l g.(.).(.(.(.(.(.).(.(.g.9 @ s h ; o , U.>X-X-X-X-X;X>X>X>X,X>X>X>X>X>X2X2X2X2X2X6X6X6X6X6X6X6X6X6X6X6X6X6X6X6X6X6X6X",
"6X6X6X6X6X6X6X6X6X6X6X6X6X6X6X6X6X6X6X6X8X>XH o , , , , , , & o < O 7 s s s f h s * & ~ b.(././.).(.^.^.9.< * s f s 7 . y +X-X-X-X-X-X-X>X>X>X>X>X>X>X>X>X<X2X2X2X2X5X6X6X6X6X6X6X6X6X6X6X6X6X6X6X6X6X6X",
"6X6X6X6X6X6X6X6X6X6X6X6X6X6X6X6X6X6X6X6X8X>XE   O O O o o o o o 6 & ; 7 @ O * 7 f g 7 @ d ~ V D h.8.9 j & : f i * * 7 o 2 ].;X-X-X-X-X-X;X,X,X,X>X>X>X>X>X<X1X2X2X2X3X6X6X6X6X6X6X6X6X6X6X6X6X6X6X6X6X6X",
"6X6X6X6X6X6X6X6X6X6X6X6X6X6X6X6X6X6X6X6X8X:XP . o O O @ * * O o D q O @ D ' j @ # 7 s s * @ * o 6.q # * 7 s : @ 6 & @ o o N.,X-X-X-X-X-X-X,X,X,X>X>X>X,X>X>X1X2X2X2X-X5X6X6X6X6X6X6X6X6X6X6X6X6X6X6X6X6X",
"6X6X6X6X6X6X6X6X6X6X6X6X6X6X6X6X6X6X6X6X6X8XH.o O * * 7 d d # & y.9.* j y.0.0.' l & # 7 s g 7 * h.S # s 7 @ o 9 6._ o o   P %X-X-X-X-X-X-X,X>X>X>X>X,X,X>X>X<X2X-XB.J G.6X6X6X6X6X6X6X6X6X6X6X6X6X6X6X6X",
"6X6X6X6X6X6X6X6X6X6X6X6X6X6X6X6X6X6X6X6X8X2XW   o @ @ O * 7 O 9 g.k.A f.b.y.Q l j 8 O o @ * O D /.a.& O o o & D j.v.6 & 2 , Q.>X-X-X-X-X-X-X>X>X>X>X,X,X>X<X1X.X` , 3 H 2X8X6X6X6X6X6X6X6X6X6X6X6X6X6X6X",
"6X6X6X6X6X6X6X6X6X6X6X6X6X6X6X6X6X6X6X6X6XM.o 3 O @ * O * * o q f.x.D f.).)./.v.a.Q &   O 9 Q v.)./.0.q O & 8./.).n.9 0 W   #.;X-X-X-X-X-X-X>X>X>X>X>X1X1X#XV.w w F.} H 2X8X6X6X6X6X6X6X6X6X6X6X6X6X6X6X",
"6X6X6X6X6X6X6X6X6X6X6X6X6X6X6X6X6X6X6X8XU., 8 Z.w o @ < d d O = <.4.b A l.c.n./.g.Q V _ g.b.(.).).(.(.b.0.G x 0.u.4.* r D., H +X-X-X-X-X-X-X>X>X1X1X-X XB.z , } !.+XP W 5X6X6X6X6X6X6X6X6X6X6X6X6X6X6X6X",
"6X6X6X6X6X6X6X6X6X6X6X6X6X6X6X6X6X6X8XXXw @ V.|.J . @ * 4 * o # =.:.;.$ v 1.5.4.=.<.w.u.i.l.l.i.u.u.w.q.5.1.>.>.,.*.+ J ~.P O Y.,X-X-X-X-X-X:X>X!.N.R 3 2 T S.+X$X].3 V.8X6X6X6X6X6X6X6X6X6X6X6X6X6X6X6X",
"6X6X6X6X6X6X6X6X6X6X6X6X6X6X6X6X6X6X6X+.   .|.Q.w . o o o O O O v ;.,.m # p ;.,.,.,.,.,.,.,.,.,.,.,.,.,.,.,.,.,.,.n . } .X .  D.,X-X-X-X-X-X>XU.3 2 L o.J.W.{.@X$XA., |.8X6X6X6X6X6X6X6X6X6X6X6X6X6X6X6X",
"6X6X6X6X6X6X6X6X6X6X6X6X6X6X6X6X6X8X>XC 2 Y.|.} o 8 P 8 } F.+.O - &.:.,.&.u - m ,.,.,.,.>.;.&.&.-.>.,.,.,.,.,.,.:.-   / .X} . F.>X-X-X-X-X;XE.w L J.W.W.W.`.oX@XoXJ R 2X8X6X6X6X6X6X6X6X6X6X6X6X6X6X6X6X",
"6X6X6X6X6X6X6X6X6X6X6X6X6X6X6X6X6X8X&X8 r ~.V.O o U #.y  .XX~.r + m ;.:.,.,.&.a &.,.,.c - = - - = u m >.,.,.,.:.u o 8 W !.H , !.>X-X-X-X;XE.w K L.`.W.W.W.}.@X@Xm., Q.8X6X6X6X6X6X6X6X6X6X6X6X6X6X6X6X6X",
"6X6X6X6X6X6X6X6X6X6X6X6X6X6X6X6X6X8X#X3 y Q.E 3 o R #.P H |.|.U . = v %.;.:.,.>.:.,.%.# a c p u a n m -.,.,.%.-     0  .V.& J $X-X-X-X-XI.w P [.`.W.W.`.{.@X@XK.2 +.5X6X6X6X6X6X6X6X6X6X6X6X6X6X6X6X6X6X",
"6X6X6X6X6X6X6X6X6X6X6X6X6X6X6X6X6X8X&Xw w V.E w . C @.R C _.~.C . o o # u b %.;.>.,.c + - i v ;.,.,.,.:.%.u O & } R o , 0 o B.;X-X;X%XV.2 E +X@XW.W.'.oX$X@XF.3 E :X8X6X6X6X6X6X6X6X6X6X6X6X6X6X6X6X6X6X",
"6X6X6X6X6X6X6X6X6X6X6X6X6X6X6X6X6X8X2XP o , o o o 2 X.J  .|. .O .   o , o o # 5 p v v u a %.;.;.&.n a = . O U T.2X#X#.0   y XX;X,X.X} , { @X1X{.`.{.+X@X[.O., ` &X8X6X6X6X6X6X6X6X6X6X6X6X6X6X6X6X6X6X6X",
"6X6X6X6X6X6X6X6X6X6X6X6X6X6X6X6X6X6X6X+.3 y W D.H O } @.I.` O o 9 V * r  .R 0 o o o O @ # # # # + o X @ } Q.2X8X6X>X-X[.m.K.,X-XI.y w m.'.>X,X}.oX$X+XF.y 3 V.2X8X6X6X6X6X6X6X6X6X6X6X6X6X6X6X6X6X6X6X6X",
"6X6X6X6X6X6X6X6X6X6X6X6X6X6X6X6X6X6X6X*X#X:X5X5XR O }  .w o o V f.v.8.& } W w O o O o   o , , o O @ o & Q.8X8X6X6X>X-X;X>X>X.X ., R ].{.}.1X1X$X@XR.W , E |.6X8X6X6X6X6X6X6X6X6X6X6X6X6X6X6X6X6X6X6X6X6X",
"6X6X6X6X6X6X6X6X6X6X6X6X6X6X6X6X6X6X6X8X8X8X8X:Xr   O   2 2 & 9.j.n.k.< O & q I ! ! ! Z < & & 8 ! ..e   E 2X8X6X6X1X;X>X$XD.y 2 o.OX;X].=X7X1X].o.2 z I.2X8X6X6X6X6X6X6X6X6X6X6X6X6X6X6X6X6X6X6X6X6X6X6X",
"6X6X6X6X6X6X6X6X6X6X6X6X6X6X6X6X6X6X6X6X6X6X8X|.0 y W V.Q.r S g.x./.x.8 8 I [ e.e.r.d.t.[ A 8 [ e.t.r., & Q.8X8X#XZ.R.U.P , T S.'.;X;X@X4X=XB.w w V.&X8X8X6X6X6X6X6X6X6X6X6X6X6X6X6X6X6X6X6X6X6X6X6X6X6X",
"6X6X6X6X6X6X6X6X6X6X6X6X6X6X6X6X6X6X6X6X6X6X8X:X.X:X5X8XG.o l 6.k.n.z.6 e ! [ e.e.e.e.e.e.[ j [ e.e.d.j   W 2XI.r @ , , y m.P.`.oX5X>X XD.C 3 @.#X8X8X6X6X6X6X6X6X6X6X6X6X6X6X6X6X6X6X6X6X6X6X6X6X6X6X6X",
"6X6X6X6X6X6X6X6X6X6X6X6X6X6X6X6X6X6X6X6X6X6X6X8X8X8X8X&XH * : @ 8 l l @ j ! 7.e.e.e.e.e.e.e.j ^ e.e.d.I o , Y.K > 3.: t L.`.].oX>X&XM.w 3 X..X6X8X6X6X6X6X6X6X6X6X6X6X6X6X6X6X6X6X6X6X6X6X6X6X6X6X6X6X6X",
"6X6X6X6X6X6X6X6X6X6X6X6X6X6X6X6X6X6X6X6X6X6X6X6X6X6X8XV.. B 2.2.G N f O j ! [ e.e.e.[ ( e.e.l ! 7.( ^ 8 : % ` } : p.2., A.oX+XE.#.r 0 +..X6X8X6X7X6X6X6X6X6X6X6X6X6X6X6X6X6X6X6X6X6X6X6X6X6X6X6X6X6X6X6X",
"6X6X6X6X6X6X6X6X6X6X6X6X6X6X6X6X6X6X6X6X6X6X6X6X6X8X2XJ @ % : M 2.3.2.% & 2 q j l Z j q Z Z 6 8 6 & O o O & , 2 o B 3.; H F.W 2 r s.#X6X8X6X6X6X6X6X6X6X6X6X6X6X6X6X6X6X6X6X6X6X6X6X6X6X6X6X6X6X6X6X6X6X",
"6X6X6X6X6X6X6X6X6X6X6X6X6X6X6X6X6X6X6X6X6X6X6X6X6X8X#X3 Q 6.D 9 < * % o O + O O O O O O O O @ @ & * 4 % & 9.V O & O B F @ & K F.&X8X8X6X6X6X6X6X6X6X6X6X6X6X6X6X6X6X6X6X6X6X6X6X6X6X6X6X6X6X6X6X6X6X6X6X",
"6X6X6X6X6X6X6X6X6X6X6X6X6X6X6X6X6X6X6X6X6X6X6X6X6X8X*Xr D h.g.f.g.h._ o # * * : 7 7 7 7 7 7 7 7 7 7 7 : @ l * O O . : F % J :X8X8X6X6X6X6X6X6X6X6X6X6X6X6X6X6X6X6X6X6X6X6X6X6X6X6X6X6X6X6X6X6X6X6X6X6X6X",
"6X6X6X6X6X6X6X6X6X6X6X6X6X6X6X6X6X6X6X6X6X6X6X6X6X8X4XR & 6.g.h.b./.a.O # * * : 7 7 7 7 7 7 7 7 7 * * 7 @ o o o P M.3 O w I.8X6X6X6X6X6X6X6X6X6X6X6X6X6X6X6X6X6X6X6X6X6X6X6X6X6X6X6X6X6X6X6X6X6X6X6X6X6X",
"6X6X6X6X6X6X6X6X6X6X6X6X6X6X6X6X6X6X6X6X6X6X6X6X8X>XM., o & D 9.j.z.S O # * # * 7 7 7 7 7 * 7 7 7 * @ * & o 3 D.>X6XY.V.#X6X6X6X6X6X6X6X6X6X6X6X6X6X6X6X6X6X6X6X6X6X6X6X6X6X6X6X6X6X6X6X6X6X6X6X6X6X6X6X",
"6X6X6X6X6X6X6X6X6X6X6X6X6X6X6X6X6X6X6X6X6X6X6X6X8XU.O . $ # o & 9 8 O O # @ O @ 4 7 4 4 * + * * * < < l 8 o D.8X8X6X8X8X8X6X6X6X6X6X6X6X6X6X6X6X6X6X6X6X6X6X6X6X6X6X6X6X6X6X6X6X6X6X6X6X6X6X6X6X6X6X6X6X",
"6X6X6X6X6X6X6X6X6X6X6X6X6X6X6X6X6X6X6X6X6X6X6X6X8X2X#.O O O , < o & j e e j 2 Z e < * 6 Z q I ! A ! j I Y @ Y.8X6X6X6X6X6X6X6X6X6X6X6X6X6X6X6X6X6X6X6X6X6X6X6X6X6X6X6X6X6X6X6X6X6X6X6X6X6X6X6X6X6X6X6X6X",
"6X6X6X6X6X6X6X6X6X6X6X6X6X6X6X6X6X6X6X6X6X6X6X6X6X8X2XD.w o   . o O 8 j j q , l ^ ^ ^ ^ I 2 2 l I q & 2 @ r #X8X6X6X6X6X6X6X6X6X6X6X6X6X6X6X6X6X6X6X6X6X6X6X6X6X6X6X6X6X6X6X6X6X6X6X6X6X6X6X6X6X6X6X6X6X",
"6X6X6X6X6X6X6X6X6X6X6X6X6X6X6X6X6X6X6X6X6X6X6X6X6X6X8X8X&XG.| J , o o O O O O O @ 8 q < O * 6 & @ O y ~.U..X6X6X6X6X6X6X6X6X6X6X6X6X6X6X6X6X6X6X6X6X6X6X6X6X6X6X6X6X6X6X6X6X6X6X6X6X6X6X6X6X6X6X6X6X6X6X",
"6X6X6X6X6X6X6X6X6X6X6X6X6X6X6X6X6X6X6X6X6X6X6X6X6X6X6X6X8X8X6X2X}     o & * * @ 2 } P o O * 6 4 * @ r :X8X8X6X6X6X6X6X6X6X6X6X6X6X6X6X6X6X6X6X6X6X6X6X6X6X6X6X6X6X6X6X6X6X6X6X6X6X6X6X6X6X6X6X6X6X6X6X6X",
"6X6X6X6X6X6X6X6X6X6X6X6X6X6X6X6X6X6X6X6X6X6X6X6X6X8X8X8X6X6X6X2XW o O O , , < O y #XY.O o o , , 2 & 3 XX8X8X8X8X6X6X6X6X6X6X6X6X6X6X6X6X6X6X6X6X6X6X6X6X6X6X6X6X6X6X6X6X6X6X6X6X6X6X6X6X6X6X6X6X6X6X6X6X",
"6X6X6X6X6X6X6X6X6X6X6X6X6X6X6X6X6X6X6X6X6X6X6X6X6X2X&X#X.X|.~.!.H O 3 3 r z j 3 @ V.V.& , 0 j C C 0 o @..X#X&X>X5X6X6X6X6X6X6X6X6X6X6X6X6X6X6X6X6X6X6X6X6X6X6X6X6X6X6X6X6X6X6X6X6X6X6X6X6X6X6X6X6X6X6X6X",
"6X6X6X6X6X6X6X6X6X6X6X6X6X6X6X6X6X6X6X6X6X6X6X6XXXQ.Y.Y.Y.Y.Y.Y.R 2 & O O O @ & 3 N.G.3 O O O O O @ 2  .Y.Y.Y.Y.|.2X8X6X6X6X6X6X6X6X6X6X6X6X6X6X6X6X6X6X6X6X6X6X6X6X6X6X6X6X6X6X6X6X6X6X6X6X6X6X6X6X6X6X",
"6X6X6X6X6X6X6X6X6X6X6X6X6X6X6X6X6X6X6X6X6X6X6X6X2X%X.X|.~.!.Q.Y.U.G.V.M.#.@.#.V.G.Y.Y.V.#.@.+.+.@.N.G.Q.~.~.|.#X>X6X6X6X6X6X6X6X6X6X6X6X6X6X6X6X6X6X6X6X6X6X6X6X6X6X6X6X6X6X6X6X6X6X6X6X6X6X6X6X6X6X6X6X",
"6X6X6X6X6X6X6X6X6X6X6X6X6X6X6X6X6X6X6X6X6X6X6X6X8X8X6X6X5X2X2X>X:X&X&X&X#X#X#X#X#X#X#X#X#X&X&X&X:X>X2X2X5X6X6X6X8X6X6X6X6X6X6X6X6X6X6X6X6X6X6X6X6X6X6X6X6X6X6X6X6X6X6X6X6X6X6X6X6X6X6X6X6X6X6X6X6X6X6X6X",
"6X6X6X6X6X6X6X6X6X6X6X6X6X6X6X6X6X6X6X6X6X6X6X6X6X6X6X6X6X8X8X6X8X8X8X8X8X8X8X8X8X8X8X8X8X8X8X8X8X8X8X8X6X6X6X6X6X6X6X6X6X6X6X6X6X6X6X6X6X6X6X6X6X6X6X6X6X6X6X6X6X6X6X6X6X6X6X6X6X6X6X6X6X6X6X6X6X6X6X6X",
"6X6X6X6X6X6X6X6X6X6X6X6X6X6X6X6X6X6X6X6X6X6X6X6X6X6X6X6X6X6X6X6X6X6X6X6X6X6X6X6X6X6X6X6X6X6X6X6X6X6X6X6X6X6X6X6X6X6X6X6X6X6X6X6X6X6X6X6X6X6X6X6X6X6X6X6X6X6X6X6X6X6X6X6X6X6X6X6X6X6X6X6X6X6X6X6X6X6X6X6X",
"6X6X6X6X6X6X6X6X6X6X6X6X6X6X6X6X6X6X6X6X6X6X6X6X6X6X6X6X6X6X6X6X6X6X6X6X6X6X6X6X6X6X6X6X6X6X6X6X6X6X6X6X6X6X6X6X6X6X6X6X6X6X6X6X6X6X6X6X6X6X6X6X6X6X6X6X6X6X6X6X6X6X6X6X6X6X6X6X6X6X6X6X6X6X6X6X6X6X6X6X",
"6X6X6X6X6X6X6X6X6X6X6X6X6X6X6X6X6X6X6X6X6X6X6X6X6X6X6X6X6X6X6X6X6X6X6X6X6X6X6X6X6X6X6X6X6X6X6X6X6X6X6X6X6X6X6X6X6X6X6X6X6X6X6X6X6X6X6X6X6X6X6X6X6X6X6X6X6X6X6X6X6X6X6X6X6X6X6X6X6X6X6X6X6X6X6X6X6X6X6X6X"
};
