/* XPM */
static char *bb5e3130161a4201d9b83956a83d6754TlT2JGo8p2YBaWdW[] = {
/* columns rows colors chars-per-pixel */
"100 75 196 2 ",
"   c None",
".  c #1D130E",
"X  c #171217",
"o  c #1C1414",
"O  c #171218",
"+  c #1B151B",
"@  c #1E181D",
"#  c #22160E",
"$  c #25180F",
"%  c #2B1C0E",
"&  c #201714",
"*  c #251913",
"=  c #2B1E14",
"-  c #241B1C",
";  c #2A1E1A",
":  c #2F200F",
">  c #2E2016",
",  c #2D211B",
"<  c #332315",
"1  c #392715",
"2  c #362817",
"3  c #3C2A16",
"4  c #33251B",
"5  c #38261A",
"6  c #36281D",
"7  c #3C2B1C",
"8  c #3F301E",
"9  c #1C1721",
"0  c #1E1922",
"q  c #231C23",
"w  c #291F21",
"e  c #241E29",
"r  c #272026",
"t  c #2C2224",
"y  c #26202B",
"u  c #2B242B",
"i  c #2F282F",
"p  c #332623",
"a  c #362924",
"s  c #3C2C23",
"d  c #312729",
"f  c #342A2B",
"g  c #3B2D2A",
"h  c #3F3124",
"j  c #3E312B",
"k  c #2B2531",
"l  c #2E2833",
"z  c #2E2938",
"x  c #322C34",
"c  c #392F31",
"v  c #322D3B",
"b  c #3D3234",
"n  c #36303B",
"m  c #3A333C",
"M  c #422D16",
"N  c #492F15",
"B  c #422E1C",
"V  c #44321D",
"C  c #4B341D",
"Z  c #4D3A1E",
"A  c #4E3316",
"S  c #51371E",
"D  c #533B1E",
"F  c #593E1E",
"G  c #412E22",
"H  c #402E28",
"J  c #443323",
"K  c #4A3623",
"L  c #473825",
"P  c #4C3A24",
"I  c #43332A",
"U  c #49362A",
"Y  c #47382B",
"T  c #4C3B2B",
"R  c #513721",
"E  c #533C24",
"W  c #593E25",
"Q  c #533D2B",
"!  c #593F29",
"~  c #423532",
"^  c #463833",
"/  c #4D3C31",
"(  c #423739",
")  c #45393B",
"_  c #4D3E3A",
"`  c #523E32",
"'  c #554C18",
"]  c #544125",
"[  c #5A4326",
"{  c #574823",
"}  c #5B4A23",
"|  c #55422B",
" . c #5B442B",
".. c #5D4A2C",
"X. c #554333",
"o. c #5B4532",
"O. c #5D4A32",
"+. c #54443B",
"@. c #594639",
"#. c #5D4A3A",
"$. c #614526",
"%. c #61462B",
"&. c #634C2D",
"*. c #6A4D2E",
"=. c #66512E",
"-. c #6C522E",
";. c #6C5A28",
":. c #70522F",
">. c #614630",
",. c #634C33",
"<. c #6A4E32",
"1. c #644E3A",
"2. c #655233",
"3. c #6B5434",
"4. c #6E5935",
"5. c #65523A",
"6. c #6B543B",
"7. c #6D593A",
"8. c #725535",
"9. c #735B35",
"0. c #7A5C35",
"q. c #72563A",
"w. c #75593D",
"e. c #735C3B",
"r. c #7A5C3C",
"t. c #766136",
"y. c #7C6337",
"u. c #76623C",
"i. c #7B633C",
"p. c #7E693D",
"a. c #342F40",
"s. c #353040",
"d. c #3A3442",
"f. c #3F3945",
"g. c #423A43",
"h. c #4A3F46",
"j. c #423B4B",
"k. c #4C4042",
"l. c #4B4148",
"z. c #564847",
"x. c #5E4D43",
"c. c #5C4D4D",
"v. c #55494E",
"b. c #4E4656",
"n. c #504752",
"m. c #614E45",
"M. c #624F43",
"N. c #655342",
"B. c #6B5542",
"V. c #6E5942",
"C. c #655249",
"Z. c #6E5A4A",
"A. c #6A564A",
"S. c #735D42",
"D. c #7A5E43",
"F. c #675651",
"G. c #735D52",
"H. c #756142",
"J. c #7B6342",
"K. c #7E6943",
"L. c #74634D",
"P. c #7A6457",
"I. c #83653C",
"U. c #856A3E",
"Y. c #886A3E",
"T. c #826642",
"R. c #846B44",
"E. c #8A6D44",
"W. c #81664C",
"Q. c #856C4B",
"!. c #8A6E49",
"~. c #867145",
"^. c #8B7246",
"/. c #8C734B",
"(. c #8E784A",
"). c #84704C",
"_. c #917745",
"`. c #92754B",
"'. c #937B4E",
"]. c #997C4F",
"[. c #8B6E53",
"{. c #846D5E",
"}. c #886F5C",
"|. c #837150",
" X c #8D7354",
".X c #927552",
"XX c #967B50",
"oX c #997E53",
"OX c #957B5B",
"+X c #987A5E",
"@X c #8C766D",
"#X c #97814F",
"$X c #968152",
"%X c #9D8254",
"&X c #9B8259",
"*X c #A2885B",
/* pixels */
"                                                                                                                                                                                                        ",
"@.                                                                                                                                                                                                      ",
"s a                                                                                                                                                                                                     ",
"< p t                                                                                                                                                                                                   ",
"7 s p b                                                                                                                                                                                                 ",
"< 4 s / o.J ,                                                                                                                                                                                           ",
"< I c b ( ~ a d                                                                                                                                                                                         ",
"a ) ( g.b ) b ( I 4                                                                                                                                                                                     ",
"g k.( t g ^ ^ I M.` j                                                                                                                                                                                   ",
"* g t ; I _ I I / 6 I )                                                                                                                                                                                 ",
". 4 , j f & # p p U X.                                                                                                                                                                                  ",
"4 7 J Y = # p ; a 4 J                                                                                                                                                                                   ",
"J  .,.q.Q #.@.a T 5 G                                                                                                                                                                                   ",
"B ,.3.w.&.6.T 7 U  .1.                                                                                                                                                                                  ",
"w.<. . .%.#.M.Q V %.w.@.                                                                                                                                                                                ",
"K 3 3 P  .X.F.@.B P &.W                                                                                                                                                                                 ",
"> $ % K m.m.@.5.6. .W Z Q                                                                                                                                                                               ",
"Q P J X.^ / G B T K R E  .                                                                                                                                                                              ",
"<.%. .5.| | 5.R P P A Z o.                                                                                                                                                                              ",
"R [ S  .o. .S.r.D.,.F C >.                                                                                                                                                                              ",
"3 < B J ` V D 3.W.%.D Z E                                                                                                                                                           ; o X &       - & & ",
"< < I +.U } e.P.}.}.3.D T z.                                                                                                                                                    > * o o o o o o & & & & ",
"B Q / 4 6 ' 5.@X{.P.@./ c.                                                                                                                                                  & 4 ; & o . o & & o o & , o ",
"V G = > 4 ' Q G.1.+.~ f g                                                                                                                                                   & > > o . * o . o o * * - o ",
"] C % > 6 =.B.A.C.+.j 4 L                                                                                                                                               $ # # 5 5 < = 5 = & o & * o o . ",
"=.4.] 5 P ..#.@.x.x.I s J                                                                                                                                             # 5 P %.-.-.9.3.,.T 6 & & ; & = & ",
"K ] [ E { Z X.C.C.^ , p Y                                                                                                                                             =  .U.I.0.Y.I.p.<.7 * o p * = 5 7 ",
"% 1 ] | ..P 5 5 I ^ +.+.O.                                                                                                                                          * 4 &.i.0.U.9.| V 5 = = * s J U O.V ",
"< < V ] =.] 5 = = 5 | r.9.[ ,.Z.m.                                                                                                                                u ; 4 >.Q.w.| > = 5 < < s J 7.Q.Q.Q.K ",
"< % < ] &.2.P > $ = 7 2.E.E.R.i.6.5.5.x.c.c.c.v.h.l.l.n.b.                                                                                                      s.u t #.V.T a ; & , J 5 6 U |  X.Xr.<. .",
"< = % < 3 ] ..Z < 5 K V [ I.R.3.[  .T X.N.Z.Z.+.C.Z.x.x.m l l x z d.                                                                                            y e g #.S.J p - & > s a = = 6 J.q.8.8.r.",
"V > : > 7 2.u.e.2.{ { &.P  .w.`.i.I. . . .#.#.+.B. X5.N.^ t q q q u v d.                                                                                      v l f g M.1.s ; t j g a I s 6 J 3.<.*.*.*.",
"C < B K K 2.u.9.3.;.;.t.2.R V J._._.%.B E X.1.+.I V.` I ^ f t - - t f l f.                                                                                    x l ~ f g p g p d _ , = a Y J P *.[ S A N ",
"Z Z | ,.2.e.R.J.&.V M [ 9.=.K V 7.R.R. .6. X+X[.5.1.g t t a , @ - t q q x f.                                                                                  r 0 t d t t a a s s s U s Y K B V C M A A ",
";.4.4.4.3.] D [ Z = < B Z 9.4.] P | R.6.Q S.[.+XW.Y t t w g p q - - q q r u v                                                                         v z k u I Y @.X.#.B.X.Y s 4 6.q.Q.S.<.P W $.R C C ",
"t.t.2.=.%.M 3 M < = < B V K <.9.2.3.w.2.6 >  .D.| - w - - p p q q + 9 0 0 q e k k   v v l z a.                                                        k u r a Q 1.5.5.S.V.a - > J  .3..Xw.W *.*.*.$.R V ",
"=...]  . . .2.4.Q 5 5 7 5 4 J ....3.>. .O.1. .<.q.Y a p , t - - q q q q q - 0 q e e e e r u z j.                                                    k y q p p s o.D.W.D.>.G 4 Q J.8.%.>.%.W &.%.*.&.B < ",
"=. .K J K 3.3.i.2.V 7 5 T J 7 V 7 7 T  .>.,.2.H.Q.R.I s U o.a t t r u g p ; - @ 9 9 0 q q r l f.                                                  v u y q q a Y 1.5.S.S.<.U s J | J 7 7 W R W W %.W B < ",
"..&...]  .J.i.p.R.&.P P | P P U J 6 4 7 6 4 s o.1.Q.T G U G - q q q r I a q - - - q q q q y l d.                                                  k r q q q a / j U 1.>. .W  .P 5 4 s P R Z W C 1 Z W R ",
"Q  . .Q Q | 6.9.i.=.] | Q | T 7 G J G T U J s Y X.V.X.U &.W , @ 0 0 q g p p - - q t q q q e k m                                                 k y y q 0 q t t t / B.Q R 8.3.6.O.7 J %.R %. .B B %.%.q.",
"T T J K P J Q  .4.3.[ ..P K J 5 4 5 s Q T J p I 1.S.H.o.Q <. .s q q q s p , p q 0 q t t t e y l m                                               v e q q 9 @ q d u f ` Q 8..Xw.J.J.,.r.D.q.<.$.[ &.*.8.0.",
"B 7 < 5 7 P B L  .4.~.u.Z V J U 6 6 7 s Q T p p J T O.H.#.h U s t - - p 4 6 s p t w g Q I e e r x m                                           v k e q 0 @ + + t f t g T 3.J.2. XR.J.T.D.,.! [ %.$.W W [ ",
"C 5 5 V 7 P ] P 5 J r.~.9.&.W  .>. .U 5 s #.X.X.h , 4 X.S.+.- a G p w s J s T Q Q Q I a d u u q q l m                           j.      d.f.n u q q q @ + + o q d p a a Y U  .T.q.r.q.,.R E E R R R S [ ",
"[ K K V 7 J K  .K J Q u.i.4.4.2.5. .Q U s I #.1.` Y T s #.L.I a G s p Y o.I I <.T.w.X.~ x g g t t d g x n n n d.m n m f.g.g.g.d.n v x m x l l q + 0 @ + X X + ; a I I p s J  .w.q.q.<.3. .! E R  .W W <.",
",.K P P B 7 7 P  .K 7  .K.i.i.e.Q U Q  .G p s I g a J p s 1.5. . .E 4 4 a s s  .r.6.V.N.1./ f t p t t u u u k u u x i l x n x x l k r u y e e 0 O + @ X o o ; p U g s J ,.Q J.R.T.<.8.q.!  .W P B B S $.",
"3.Q K P P 7 7 7 5 B Q 3.R.J.4.&. .J Q U s p p a a p s s ; Y 1.R.`.0.P E U Q 4.^._.R.w.6.7.X.g u q - q q t u r e q q q q u l u u u y q q q q q + + @ + X o - s Q I q w U i.R.T./.I.r.r.q.!  .W M = $ = P ",
"p.&.3. .Q B 5 B 7 B L Q >.R.R.e.9.U K J s s s s a s H a , , Y O./.w.I Y Y | o.9.e.7.1.X.^ f y q @ + @ @ q e q q q 0 0 q q r u d t r q 0 q q @ + X + + , U o.Q U T U X.T !./.<. .%.T.r.3.%.R C B 5 4 <  .",
"(.i.4...C P B B B < 5 5 7  .J.R.i.&.J Q Q U J U G a p s p * , T 5.X.g f d t d f f f d d r e e q 9 + + @ 0 0 q 0 0 0 q t a j d q q q - - - - - + + + - a U ,.w.6.5.q.,.>.r.w.i.q.&.E.^.r.*.C M 7 J B <.9.",
"R.K.=.%.R P J B 7 < 7 7 7 J 3.w.,.e.J.7.3.1.Q U U G s s p - ; s Y X./ d d d d d t u t u q 0 e 0 9 + @ - q q q q t d t t p t q 0 - - - @ @ - + X X @ t I 1.1.>.o.q.T.8.*.3.R.%XoX'.XX%X/._./.i.<.%.e.w.C ",
"(.p.=.[ W P K 7 7 7 7 5 5 G Q e.e.o.,.K.R.6. .U U T s p ; - 4 p I / @.Y f g @./ q t q q 0 0 9 q q w q w p H t f / ^ a t - q @ + - - - + + + + o @ p X.R.oXw.6.!.oX].E.i.^.oX.XT./.%X*XoXXX!.<.E V %.&.[ ",
"(.~.R.&.[ Q P J 7 5 5 5 5 J J J 7.e.o. .3.Q.J.Q U U 4 - & ; 4 4 a p s T J J 6.1.q 0 q q q q 9 t g a g d d f u f f p g ; ; + X o - - - + @ + - - t T J.S.S.!.R.E.E.T.R.!.oXoX&XoX'.R.p.8.<.s 6 6 7 P [ 8.",
"#XR.9.=... .Q P B 5 7 7 7 J G 7 | 7.2.,.e.J.OXS.Q J ; - > = - - ; p a o.J s J d 0 0 t t t t 0 t I g g g t f r f p a s ; - o X & 4 6 p t s U I I I I j f Q <.8.<.U W 3.i.r.Q.'.R.7.r.9.8.&.] K > 5 W -.I.",
"#X^.y.&.E ] [ W U J B B 7 J G 7 J J | O.| @.J.J.r.J ; > & X o o @ , 4 6.5.Q 7 4 w p ! J I a q a Y g d d g f d s U U s , & o o s J Q Q 1.6.,.>.3.Y t t a  .6. .s >  .3. .2.^.R.U.R.r.u.i.~.^.3.[ -.9.y.Y.",
"$X'.'.R.&.] P P E J 7 B 7 U J B U J J J G U  . .6.2.> = o o = & o 4 4 T J.w.] K J s U T ` I - s a d t I I p U Q %.,.U s a U T | 3.8.<.6.V.q.o.,.s ; p U ,.>.6 P  .*.*.0.U.U.I.E.I.0.I.R.4.<.-.*.8.0.-.:.",
"$X^.(.^.i.=.] P Q U 7 B J U J B T Q Q G J U | &.o.,.7 = X & = & - - - J &.E  .8.w.1.1.5.>.U s a t w t s J s J R <.8.o.Y ,. .J U <.w.r.q.>.>.` s J 6 J Q &.%. .*.&.9.0.=.-.&.*.3.-.-.9.e.,.2.8.<.&.I.9.&.",
"(.'.~.p.p.9.&. .o.Q B B J U K J U Q o.Q Q U | &.,.<.P 4 & o * o X o o 4 C L  .3.i.!..X/.!.r.T s s U T Q  .G s P  .r.r.6.,.,.J , J q.r.Q U Q o.Q U Q W E  .&.e. .-.I.0.&.-.$.R O...3.=.9.e.8.3.3.y.R.-.V ",
"9.u.~.R.4.3.=. .<. .J K U J J J J U U J B J E &.&.2.P 4 * o & & o o > J P  .8.u.U.E.q.q.J./.!.i.3.<.&.8.r.3.<.8.R.`.J.<.>.,. .Q s >.3.<.Q U U Q  .W  .E W  .P K [ *.Y.8.W C B Q K &.3.2.-.&.E $.y.0.[ 7 ",
"| E K 2.u.[ D [  . .J K E J K U U K B B 7 B Z R %.&.V = * o o * = 4 J | &. .9.R.^.XXR.i.i.w.T.R.i.&. .T._.^.E.E.E.E.E.<.>. .W  .q./..X!.r.! U U s 6 >.W K P %. .[  .&.P 7 B P Q J P P W V 7 R e.p.u.Q V ",
"B O.T P 2.e.S Z C R K K V V P B 7 V A A N M 3 B  .-.P = * ; ; ; 5 V P  .4.9.u.U.u.'.I.*.%.W  .i.3.J T 6.i./.R.E.R.6.&.U s O.w.w.I.E.8.q.w.r.8. .4 P %.J 6 U i.>.4 4 7 4 7 Q P J 7 7 J B 1 V | O...&.P ] ",
"5 T Q P ] K.K.%.Z V C C V 7 B 3 3 M N A N 3 < < Z -.E 4 4 J T  .,.w.J.K.9.9.9.*.2.9.R.u.e.r.r.r.w.r.6.6.r.6.>.w.T.6.Q Q s Q <.%.&.*.&.%.&.%.3.*. .<.W B > 7 9.| - ; ; 4 6 V 7 7 < 5 W  .&.E V K =.4. .3 ",
"5 6 5 < 6 | u.u.&.V B C V 1 1 < 1 3 M 1 < < = = > P <...=.i.e.6.9.6.O.3...U 6 J 7 5 | 3.i.r.8... .Y Y T O.o.Q U Q o.,. .>.!  .! E C  .3.8. .8.8.] K Z 5 5 V U a p s 4 4 5 > < > < V 3.-.0.3.Z ..2.E V V ",
"5 6 > > = < V K 8 | Z V B 1 < < < < < < < < 5 7 Q Q E K [ 2.3.7.3.| L 6 7 J L P ] ] s 6 J P T O.6.T j p t a h I s U  .o.s U Q s J E ! W %.&.w.E 4 > > < V C 4 h J s 6 4 5 > 4 5 < V [ &.-.] 7 V < 1 E %.",
"5 6 > = = = < = & L Z M B < = % = > < < 5 5 B K 3.>...3.i.4.i.e.4.&.Q K ] 2.&...P | s > ; - , s J J a , p a p s a T Q h , J J 6 K  .E C W  .U B V 5 = M V 7 7 P J J 6 4 < > 4 < < B Z V < > = 4 < [ =.9.",
"5 7 < < = = * $ * 6 ] V < < < 5 7 B Q | ..>.&.&.6.&.3.i.R.~.(.(.e.P C | 3.e.K.&.C L L L 5 4 = 4 4 4 4 J T X.#.| 4 p I Q O.6.K.H.2...&.Q R 5 > < < < 1 A Z V 7 6 G J 5 5 < = > > > < > * & * = 5 Z 9.9.i.",
"4 6 5 6 = > = = = > ] ] < B 1 7 B Q ,.=.2.&...4.&.L P E P W 6.u.3.....6.3.,.e.3.P | O...] B 6 6 4 5 J T a a #.K.X.h Y J s J 2.).Q.5.T <.3.P 5 B V E V $.8. .V 5 5 > > > = > > = > = = < 4 7 C C 2.~.i.u.",
"4 6 5 5 < 4 = = * * 6 ] V C C E %...9.9...] =.i.2.K V B 3 3 J  ...2.e.H.2.2.7.2.E K | ..3.J 7 7 B J G 6 - - 4 | 6.V.|.H.7.O.2.<.] 5.O.J s s J %.-.i.9.0.0.&.C V < * < > * = * = = = 6 C ..4.2.3...2.....",
"7 J J 5 5 7 > = = $ > E -.9.9.9.t.i.p.-.K C ..3.3...B 7 3 M 3 C O.| 6 8 O.2.2.3.4. .K K | T B C E P Q L 6 > > J O.1.5.5.6.S.J.>.] 2.e.O.J 6 6 P [ %.-.0.*.&.Z 7 < * = 4 > > & & > > 5 ] =.| ] L L L | Q ",
"P J P C L J 4 > = * % Z y.t.9.7.u.2...=.e.2. .| L 4 6 V B 3 1 7 J 7 6 8 7 5 s J O.e. .P Q  .&...V 7 > 6 s s Y O.7.T a J Q X.6.7.7.P P T U P | 3.2.&.&.3.=.&.P V > * = B 7 > o o 4 > 6  .K 2.7. .O.e...T ",
"| ..L 6 5 7 5 > * * 1 ] &...] P P T T P J J |  .K 6 7 C > > < V ] ] 7 a 4 = 4 s P 7.e.| X.,...3...] T s a d a I X.| J 6 h V 6 T S. .5 7 6 6 5 T 6.&. .[ P L L V L 7 7 Z C 5 o o > L | &...2.O.O... .P ] ",
"] T > * = = = * . # > < 6 4 6 5 ; > > * o & a 7 Z 3 6 L < = 2 V T 3.u.7.3.P L P T T T O.7.u...T 4 s 2.O.I g g j s 4 , ; 6 P T O.J.7.J 5 5 6 6 4 J ,.,.K < 4 4 ; 4 4 7 V B C 7 J | 7...| P Q O. .P Q P P ",
"> 5 = $ * * * # * * $ * * = > = * > , ; = > L ,.3...P P [ &.&.4.2.2.2.e.7.4. .7 4 s O.5.| J > 4 4 4 h L T Y g s , - - - , s | | ,. .Q J 7 7 7 6 5 B  .| P J 6 * * 4 P P [ 2.&.O.O. .7 J P ] T T 7.O.J 6 ",
"= 5 # . $ = = * $ * $ $ # * = * & & = 6 7 > 5 ,.3.4.u.=.[ T K 7.K.,.| T J ]  .J s | 5.O.T - * > V 7 6 - , T X.X.T 6 - ; 4 4 6 6 6 6 6 P 7 6 G G 5 5 K ..3.O.7 ; 4 7 ] &.4.3.| | K J s J J P L o.2.h 7 J ",
"* * $ = 5 7 = # # # $ $ * * # . . . . = L L L O.] ..2.e.u.3.| 2.u.e.&.J > 4 P | T J T / s - - * 4 s 6 - - ; a s h T P s s 4 4 > > 4 > s 6 > 6 5 < < C ] P B 5 4 6 6  .| ] 7.5.] T T T L 6 J 7 T J s h 4 ",
"> 5 7 V P 7 = $ # $ $ $ * & # # . o * 6 T  .] T Q .... .=.u.| ......P J 7 J J P Q Y s g t o - - , ; - ; - & - J h J ] 2.J > > > > ; ; > 6 > = = = = 1 C 7 5 4 4 > J ..7 V  .T L V L U J J 6 4 s 6 6 g t ",
"V L 6 < V < = * * * $ $ = $ . . . . * 4 J J  . .L L | ..] 4.] J ....| L 5 6 6 7 > , , p p - o - , , , , ; o o > 7 | ,.2.U 4 4 4 4 ; ; = 6 s 7 < < < V < = < 5 7 L K ] C C 8 > > 4 6 s s h , , 6 , s t t "
};
