/* XPM */
static char *_1949_cffad585c0bac71f9618e365cbd7360135181ebd1ff9b99a75c94154d2d98ce6[] = {
/* columns rows colors chars-per-pixel */
"100 75 240 2 ",
"   c #331D1C",
".  c #3B2825",
"X  c #4E2F2B",
"o  c #4B3836",
"O  c #543A38",
"+  c #523D3C",
"@  c #693E3B",
"#  c #58423E",
"$  c #65433E",
"%  c #513D42",
"&  c #5D4343",
"*  c #5A4849",
"=  c #5B4E52",
"-  c #5D5252",
";  c #624443",
":  c #654846",
">  c #6B4A45",
",  c #654C4D",
"<  c #6D4D4A",
"1  c #744B47",
"2  c #69514C",
"3  c #74524E",
"4  c #7B544D",
"5  c #694E52",
"6  c #7B4F51",
"7  c #655453",
"8  c #6C5453",
"9  c #6C5859",
"0  c #6D5B5B",
"q  c #735453",
"w  c #7A5552",
"e  c #755A54",
"r  c #7B5A54",
"t  c #73555B",
"y  c #7C5559",
"u  c #745B5C",
"i  c #7C5B5B",
"p  c #74615D",
"a  c #7C625C",
"s  c #755C63",
"d  c #7A5C62",
"f  c #6E6464",
"g  c #756263",
"h  c #7C6264",
"j  c #7D646B",
"k  c #776A68",
"l  c #7D6D6A",
"z  c #7B716D",
"x  c #7F6971",
"c  c #7C7373",
"v  c #943736",
"b  c #864C45",
"n  c #8D554C",
"m  c #96564C",
"M  c #835C56",
"N  c #8A5B54",
"B  c #835D5B",
"V  c #975B51",
"C  c #AF4D4C",
"Z  c #B74A4B",
"A  c #A35E54",
"S  c #AB5853",
"D  c #BA5559",
"F  c #84625C",
"G  c #8B635E",
"H  c #97655B",
"J  c #AA6359",
"K  c #B66759",
"L  c #BB705F",
"P  c #825E63",
"I  c #846264",
"U  c #8B6562",
"Y  c #836A66",
"T  c #8C6A64",
"R  c #83656B",
"E  c #8A656A",
"W  c #846A6C",
"Q  c #8C6A6C",
"!  c #906762",
"~  c #936A64",
"^  c #996B65",
"/  c #946D6B",
"(  c #9A6E6A",
")  c #88726C",
"_  c #987067",
"`  c #95726B",
"'  c #9C736D",
"]  c #816770",
"[  c #836971",
"{  c #8D6C71",
"}  c #936E73",
"|  c #986F75",
" . c #8D7373",
".. c #877977",
"X. c #947274",
"o. c #9B7273",
"O. c #9C7972",
"+. c #947879",
"@. c #9C7C7A",
"#. c #A86D69",
"$. c #B76C63",
"%. c #A3746D",
"&. c #A9776D",
"*. c #B77367",
"=. c #A47671",
"-. c #A47A74",
";. c #A67A77",
":. c #AB7C75",
">. c #AC7E79",
",. c #B57B75",
"<. c #C15C5E",
"1. c #C56C5C",
"2. c #C4715F",
"3. c #CC725E",
"4. c #D0705F",
"5. c #CB696A",
"6. c #C47364",
"7. c #CD7462",
"8. c #C77966",
"9. c #CD7965",
"0. c #D17563",
"q. c #D37865",
"w. c #D57A68",
"e. c #DD7E6C",
"r. c #CC7877",
"t. c #D8797C",
"y. c #E27D72",
"u. c #8B817F",
"i. c #94837B",
"p. c #9D837B",
"a. c #A78279",
"s. c #AD827A",
"d. c #B1827B",
"f. c #B6877D",
"g. c #D9816B",
"h. c #A17E82",
"j. c #DE7D82",
"k. c #8C8584",
"l. c #938483",
"z. c #9C8B85",
"x. c #988A88",
"c. c #9B918D",
"v. c #958E90",
"b. c #9C9695",
"n. c #A38B84",
"m. c #A88985",
"M. c #B78A85",
"N. c #A4928D",
"B. c #AC9389",
"V. c #B8948D",
"C. c #B08D91",
"Z. c #A79997",
"A. c #AC9A95",
"S. c #A39C9B",
"D. c #B49B94",
"F. c #B89995",
"G. c #BC9D94",
"H. c #B49D9B",
"J. c #A7A19D",
"K. c #BAA49A",
"L. c #BBA49C",
"P. c #ABA5A3",
"I. c #BCA5A1",
"U. c #B5AAA6",
"Y. c #BEAAA1",
"T. c #B2ADAB",
"R. c #BAB0AB",
"E. c #BBB8B7",
"W. c #D78689",
"Q. c #C39B94",
"!. c #C79C98",
"~. c #D19392",
"^. c #E6848A",
"/. c #EA979A",
"(. c #C3A39C",
"). c #CCA49A",
"_. c #D5A89C",
"`. c #C2ABA4",
"'. c #C8A9A5",
"]. c #CBABA4",
"[. c #D2ACA5",
"{. c #D8AAA7",
"}. c #C7B2AB",
"|. c #CAB4AD",
" X c #CDB9AE",
".X c #D4B3AC",
"XX c #DBB4AC",
"oX c #DAB9AE",
"OX c #C6B7B3",
"+X c #CDBBB2",
"@X c #C3BCBB",
"#X c #D2BBB4",
"$X c #DABBB7",
"%X c #DDBBB4",
"&X c #E6AEAD",
"*X c #E7BBB7",
"=X c #CAC1BE",
"-X c #D4C3BC",
";X c #D9C3BA",
":X c #E4C3BB",
">X c #EBC7BB",
",X c #F2C5BC",
"<X c #FFD0BE",
"1X c #C1BEC0",
"2X c #C7C5C2",
"3X c #CBC4C3",
"4X c #CDCBCA",
"5X c #D6CCC8",
"6X c #D4D0CE",
"7X c #D1CFD0",
"8X c #D5D4D4",
"9X c #DAD7D5",
"0X c #DCDBDB",
"qX c #E7C6C5",
"wX c #E4CCC3",
"eX c #EBCCC5",
"rX c #F4C8C2",
"tX c #F2CCC4",
"yX c #FBCDC2",
"uX c #EBD4C9",
"iX c #F5D3CC",
"pX c #F9D8CC",
"aX c #E6DAD7",
"sX c #F6D6D4",
"dX c #F5DDD2",
"fX c #FEDED4",
"gX c #DFE0DF",
"hX c #FEE0CD",
"jX c #FDE1D6",
"kX c #F7E4DA",
"lX c #FEE4D9",
"zX c #E2DFE0",
"xX c #E4E2E2",
"cX c #E9E7E7",
"vX c #EDECEC",
"bX c #F9E9E5",
"nX c #F4F0ED",
"mX c #F4F4F4",
"MX c #F8F9F7",
"NX c #FFFFFF",
/* pixels */
"NXNXNXNXNXNXNXNXNXNXNXNXNXNXNXNXNXNXNXNXNXNXNXNXNXNXNXNXNXNXNXNXNXNXNXNXNXNXNXNXNXNXNXNXNXNXNXNXNXNXNXNXNXNXNXNXNXNXNXNXNXNXNXNXNXNXNXNXNXNXNXNXNXNXNXNXNXNXNXNXNXNXNXNXNXNXNXNXNXNXNXNXNXNXNXNXNXNXNXNX",
"NXNXNXNXNXNXNXNXNXNXNXNXNXNXNXNXNXNXNXNXNXNXNXNXNXNXNXNXNXNXNXNXNXNXNXNXNXNXNXNXNXNXNXNXNXNXNXNXNXNXNXNXNXNXNXNXNXNXNXNXNXNXNXNXNXNXNXNXNXNXNXNXNXNXNXNXNXNXNXNXNXNXNXNXNXNXNXNXNXNXNXNXNXNXNXNXNXNXNXNX",
"NXNXNXNXNXNXNXNXNXNXNXNXNXNXNXNXNXNXNXNXNXNXNXNXNXNXNXNXNXNXNXNXNXNXNXNXNXNXNXNXNXNXNXNXNXNXNXNXNXNXNXNXNXNXNXNXNXNXNXNXNXNXNXNXNXNXNXNXNXNXNXNXNXNXNXNXNXNXNXNXNXNXNXNXNXNXNXNXNXNXNXNXNXNXNXNXNXNXNXNX",
"NXNXNXNXNXNXNXNXNXNXNXNXNXNXNXNXNXNXNXNXNXNXNXNXNXNXNXNXNXNXNXNXNXNXNXNXNXNXNXNXNXNXNXNXNXNXNXNXNXNXNXNXNXNXNXNXNXNXNXNXNXNXNXNXNXNXNXNXNXNXNXNXNXNXNXNXNXNXNXNXNXNXNXNXNXNXNXNXNXNXNXNXNXNXNXNXNXNXNXNX",
"NXNXNXNXNXNXNXNXNXNXNXNXNXNXNXNXNXNXNXNXNXNXNXNXNXNXNXNXNXNXNXNXNXNXNXNXNXNXNXNXNXNXNXNXNXNXNXNXNXNXNXNXNXNXNXNXNXNXNXNXNXNXNXNXNXNXNXNXNXNXNXNXNXNXNXNXNXNXNXNXNXNXNXNXNXNXNXNXNXNXNXNXNXNXNXNXNXNXNXNX",
"NXNXNXNXNXNXNXNXNXNXNXNXNXNXNXNXNXNXNXNXNXNXNXNXNXNXNXNXNXNXNXNXNXNXNXNXNXNXNXNXNXNXNXNXNXNXNXNXNXNXNXNXNXNXNXNXNXNXNXNXNXNXNXNXNXNXNXNXNXNXNXNXNXNXNXNXNXNXNXNXNXNXNXNXNXNXNXNXNXNXNXNXNXNXNXNXNXNXNXNX",
"NXNXNXNXNXNXNXNXNXNXNXNXNXNXNXNXNXNXNXNXNXNXNXNXNXNXNXNXNXNXNXNXNXNXNXNXNXNXNXNXNXNXNXNXNXNXNXNXNXNXNXNXNXNXNXNXNXNXNXNXNXNXNXNXNXNXNXNXNXNXNXNXNXNXNXNXNXNXNXNXNXNXNXNXNXNXNXNXNXNXNXNXNXNXNXNXNXNXNXNX",
"NXNXNXNXNXNXNXNXNXNXNXNXNXNXNXNXNXNXNXNXNXNXNXNXNXNXNXNXNXNXNXNXNXNXNXNXNXNXNXNXNXNXNXNXNXNXNXNXNXNXNXNXNXNXNXNXNXNXNXNXNXNXNXNXNXNXNXNXNXNXNXNXNXNXNXNXNXNXNXNXNXNXNXNXNXNXNXNXNXNXNXNXNXNXNXNXNXNXNXNX",
"NXNXNXNXNXNXNXNXNXNXNXNXNXNXNXNXNXNXNXNXNXNXNXNXNXNXNXNXNXNXNXNXNXNXMXNXNXNXNXNXNXNXNXNXNXNXNXNXNXNXNXNXNXNXNXNXNXNXNXNXNXNXNXNXNXNXNXNXNXNXNXNXNXNXNXNXNXNXNXNXNXNXNXNXNXNXNXNXNXNXNXNXNXNXNXNXNXNXNXNX",
"NXNXNXNXNXNXNXNXNXNXNXNXNXNXNXNXNXNXNXNXNXNXMXMXMXMXmXmXmXMXmXMXMXmXMXMXMXmXmXMXMXNXNXNXNXNXNXNXNXNXNXNXNXNXNXNXNXNXNXNXNXNXNXNXNXNXNXNXNXNXNXNXNXNXNXNXNXNXNXNXNXNXNXNXNXNXNXNXNXNXNXNXNXNXNXNXNXNXNXNX",
"NXNXNXNXNXNXNXNXNXNXNXNXNXNXNXNXNXNXNXMXMXMXmXMXMXNXNXNXNXNXNXNXNXNXNXNXNXNXNXMXmXmXmXMXMXNXNXNXNXNXNXNXNXNXNXNXNXNXNXNXNXNXNXNXNXNXNXNXNXNXNXNXNXNXNXNXNXNXNXNXNXNXNXNXNXNXNXNXNXNXNXNXNXNXNXNXNXNXNXNX",
"NXNXNXNXNXNXNXNXNXNXNXNXNXNXNXNXMXmXmXMXMXNXNXNXmXvXaX7XE.S.c.u.l.Z.P.R.2X0XvXNXNXNXNXMXmXmXMXMXNXNXNXNXNXNXNXNXNXNXNXNXNXNXNXNXNXNXNXNXNXNXNXNXNXNXNXNXNXNXNXNXNXNXNXNXNXNXNXNXNXNXNXNXNXNXNXNXNXNXNXNX",
"NXNXNXNXNXNXNXNXNXNXNXNXNXNXNXMXmXMXMXNXNXgXT.l.l h Y Y a F F F F F F r r u a ..P.4XmXNXNXNXMXMXmXMXNXNXNXNXNXNXNXNXNXNXNXNXNXNXNXNXNXNXNXNXNXNXNXNXNXNXNXNXNXNXNXNXNXNXNXNXNXNXNXNXNXNXNXNXNXNXNXNXNXNX",
"NXNXNXNXNXNXNXNXNXNXNXNXNXMXvXMXNXNXMX2X..* & F ` ' O.O.-.;.;.a.a.;.s.s.s.>.:.' T I l l.@XcXNXNXMXMXvXMXMXMXNXNXNXNXNXNXNXNXNXNXNXNXNXNXNXNXNXNXNXNXNXNXNXNXNXNXNXNXNXNXNXNXNXNXNXNXNXNXNXNXNXNXNXNXNXNX",
"NXNXNXNXNXNXNXNXNXNXNXNXmXmXMXNXNX8Xu.q F ` ' O.O.' O.O.=.=.-.;.~ G ~ ' ' ! _ -.s.s.>./ e ) P.0XNXNXMXMXMXmXmXNXNXNXNXNXNXNXNXNXNXNXNXNXNXNXNXNXNXNXNXNXNXNXNXNXNXNXNXNXNXNXNXNXNXNXNXNXNXNXNXNXNXNXNXNX",
"NXNXNXNXNXNXNXNXNXNXNXmXmXNXNXmXJ.7 e ` ` ` O.' ' O.O.%.-.-.;.;.:.-.=.( ! U ! ! ~ ;.s.d.d.;.-.O.P.mXMXmXNXNXMXvXNXNXNXNXNXNXNXNXNXNXNXNXNXNXNXNXNXNXNXNXNXNXNXNXNXNXNXNXNXNXNXNXNXNXNXNXNXNXNXNXNXNXNXNX",
"NXNXNXNXNXNXNXNXNXNXmXmXNXNX0X..a ` ' ` ' ` O./ / / ` ' =.;.;.>.:.a.s.s.s.:.' ~ U U ` d.d.s.s.d.O.l.R.P.3XNXNXmXmXNXNXNXNXNXNXNXNXNXNXNXNXNXNXNXNXNXNXNXNXNXNXNXNXNXNXNXNXNXNXNXNXNXNXNXNXNXNXNXNXNXNXNX",
"NXNXNXNXNXNXNXNXNXmXmXNXNX4Xf F ` ` ` ' ` O.G i B r 1 M G U ' >.s.s.:.s.a.s.d.s.=.^ B U ;.Q.Q.>.' F.>XtXH.6XNXNXmXNXNXNXNXNXNXNXNXNXNXNXNXNXNXNXNXNXNXNXNXNXNXNXNXNXNXNXNXNXNXNXNXNXNXNXNXNXNXNXNXNXNXNX",
"NXNXNXNXNXNXNXNXMXmXNXNX8X0 ) ` T ` ` F F r > r i E O.;.;.O.I F _ -.s.:.d.:.s.s.s.M.-.G 3 ;.M./ ).rX,X,X>XA.mXNXmXMXNXNXNXNXNXNXNXNXNXNXNXNXNXNXNXNXNXNXNXNXNXNXNXNXNXNXNXNXNXNXNXNXNXNXNXNXNXNXNXNXNXNX",
"NXNXNXNXNXNXNXNXvXNXNXcXf n.#X'.` T ; > a 3 Q n.$XeXtXiXpXyXtX:XK.p.' :.s.f.XX.XQ..Xf.d.( 4 ( m.rX*XXX).s.Z.mXNXmXvXNXNXNXNXNXNXNXNXNXNXNXNXNXNXNXNXNXNXNXNXNXNXNXNXNXNXNXNXNXNXNXNXNXNXNXNXNXNXNXNXNXNX",
"NXNXNXNXNXNXNXMXMXNXMXv.p *X$X(.a.+ > z.].%XuXdXlXlXfXjXjXfXfXfXpXpX Xm.%.a.XX>X[.M.s.d.M.U < ).).!._.&X).i.0XNXNXMXmXMXNXNXNXNXNXNXNXNXNXNXNXNXNXNXNXNXNXNXNXNXNXNXNXNXNXNXNXNXNXNXNXNXNXNXNXNXNXNXNXNX",
"NXNXNXNXNXNXMXmXNXNX7X7 ` m.m. .2 & Y.;X;XjXlXjXjXjXfXfXfXfXfXfXhXdX X`.J.i.@.M.M.,.d.d.>.O.X.F Q._.{.{.XXO.l =XMXNXMXmXMXNXNXNXNXNXNXNXNXNXNXNXNXNXNXNXNXNXNXNXNXNXNXNXNXNXNXNXNXNXNXNXNXNXNXNXNXNXNXNX",
"NXNXNXNXNXNXMXMXNXMXu.a T Y ` 3 u #XK.R.OXuXlXjXjXjXjXfXfXfXfXfXjXpX:XuX;XU.N.Z.O.%.;.;.&.%.U ( #.( %.' ' ' :.o.P.mXNXNXmXmXNXNXNXNXNXNXNXNXNXNXNXNXNXNXNXNXNXNXNXNXNXNXNXNXNXNXNXNXNXNXNXNXNXNXNXNXNXNX",
"NXNXNXNXNXNXmXMXNX1X7 T T ~ G # .XeXwXkXlXlXjXjXjXfXfXfXfXfXfXfXfXjXjXhXjXdX5XsXeX_.V.Q.m.M =.M.d.s.,.d.d.s.:.%.i h.cXNXMXmXMXNXNXNXNXNXNXNXNXNXNXNXNXNXNXNXNXNXNXNXNXNXMXNXMXNXMXMXNXNXNXNXNXNXNXNXNXNX",
"NXNXNXNXNXMXMXNXMXk e Y T _ # p.iXsXlXlXlXjXjXlXfXfXfXfXfXfXfXfXfXpXfXfXfXfXpXfXsXfXyXyX{.1 =.,.:.d.d.d.d.:.:.:.` 3 l vXNXNXmXmXMXNXNXNXNXNXNXNXNXNXNXNXNXNXNXMXMXmXMXmXMXMXMXMXMXMXmXmXMXNXNXNXNXNXNXNX",
"NXNXNXNXNXmXMXNX8X+ F T ~ F > :XfXlXlXlXlXjXlXfXfXfXfXfXfXfXfXfXjXhXhXjXfXpXfXfXfXfXpX<X{.> ( M.d.d.:.:.:.:.d.s.:.-.3 l xXNXNXMXmXmXNXNXNXNXNXNXNXNXNXNXNXMXmXmXMXNXNXNXNXMXMXMXMXNXNXMXvXMXNXNXNXNXNXNX",
"NXNXNXNXNXmXNXNXZ.o T T ~ # p.jXlXjXuXuXuXsXfXfXfXlXfXfXfXfXfXfXjXpX>X;XoX|.(.|.uXfXfXpXXX1 ' ,.&.d.:.:.:.d.:.:.:.:.:.r 0 1XMXNXNXmXmXMXNXNXNXNXNXNXNXMXmXmXNXNXNXvX3X`.Q.M.M.M.M.b.mXNXNXvXNXNXNXNXNXNX",
"NXNXNXNXMXmXNXMXk O T T T ; ;XdXwX`.z.z.D.'.OX5XlXfXfXfXfXlXfXfXiXK.p.a.a > # & 8 ) Y.sXtX4 ^ >.d.:.d.:.s.&.:.:.:.:.&.:.U + z xXNXNXMXmXmXMXMXNXMXMXvXmXMXNXNXxX}.,.6.7.w.e.y.g.g.N b.MXNXMXMXNXNXNXNXNX",
"NXNXNXNXMXMXNXmX- , Y T G : ..u # # 5 s 9 0 ..}.lXlXfXfXfXfXlXfXsX'.% = a a.C.H.x.9 X 0 -XY N d.&.:.d.&.~ :.:.:.-.&.&.%.-.^ : l E.MXNXNXMXMXmXmXMXMXNXNXNX0XY.:.9.g.g.g.e.w.6.6.&.o.k 9XNXMXmXNXNXNXNXNX",
"NXNXNXNXMXMXNXxX+ 3 F T G o   - P.(.{.~.'.H.h.x.5XfXlXfXfXfXfXfXiXl.C.!.W.W.{.5X$X8XS.o o a w d.s.:.s.:.H H :.:.:.a.&.-.%.&.=.^ u ) T.0XMXNXNXNXNXmX0X@XD.*.8.g.g.e.e.6.,.Q.=X9XvXmXMXMXNXmXMXNXNXNXNXNX",
"NXNXNXNXMXMXNXcX* e F U F   7 aX{.t.<.[.MXzX{.aXsXfXfXfXfXfXfXfXfXcX&X5.D S $XMXzX~.bX3Xo e 2 %.d.:.&.:.&.H H :.&.=.&.&.%.%.%.%.!.|.H.k...P.OXU.z.%.#.9.w.g.e.9.8.*.%.Z.cXNXNXNXMXMXMXMXmXmXNXNXNXNXNXNX",
"NXNXNXNXmXMXNX0X+ a F T 3 . 4XqXt.D Z <.'.&X^.XXlXfXfXfXfXfXfXfXlXiXj.D Z Z D ~./.j.uXNXc n.K.w :.:.s.&.:.:.G ~ :.=.%.%.%.' #.#.[.:X:X;X;.U G 4 1 n V V H N ^ C.'.5XcXNXNXMXmXmXmXmXvXvXvXmXMXmXMXNXNXNX",
"NXNXNXNXmXMXNXE.# F F F e # cX*Xj.Z Z D Z t.^.{.bXfXfXfXfXfXfXfXlXqXj.D D 5.<.D g.^.uXMX5XiXkX) G s.:.&.a.%.&.G G &.=.%.%.%._ #.s.Q.(.V.` ` / / F ; X * x.E.xXMXNXNXNXNXNXmXcXmXnXmXMXNXNXMXNXMXmXNXNXNX",
"NXNXNXNXmXNXNXk.# F F F G 2 0XkXj.5.t.y.t.^.j.oXlXfXfXfXfXfXfXfXjXdX/.W.t.t.W.^.^.W.cXnXjXpXhX5Xe G s.&.&.&.-.&.^ N ^ %.%.' ' ' ].s.! ^ ^ / ~ ^ ^ / ! B N N O.A.=XzXmXNXNXNXMXMXNXNXNXvX3XS.MXNXmXMXNXNX",
"NXNXNXMXmXNXMXf e 3 4 F F 2 aXbX&X/./././././.dXfXfXfXfXfXfXjXfXfXlXtX/././././.~.:XkXhXpXpXhXlX=XF F ' -.&.&.=.=.' F G _ ' ' _ ' ` ^ ^ ^ ~ ~ ~ ! ~ ~ ~ *.9.1.S $.*.h.I.5XvXMXMXcX5XF.:.$.~ vXNXMXMXNXNX",
"NXNXNXMXmXNXvX* r $ F F 2 l hXpXsXrX*X*X*XrXjXlXfXlXlXfXfXlXjXjXfXfXfXsX<X*X*X,X>XhXhX<X<XpXhXjXuXB.Y M H -.&.=.%.' ' H M M G ^ ( ` ~ ~ ~ ~ T ~ ~ ~ ! G M *.q.w.w.w.w.7.$.&.X.| *.$.3.q.e.J 8XNXMXMXNXNX",
"NXNXNXMXMXNX0X+ $ 3 F F # n.:X(.!..X.X#X-X;X;X;XwXwXwXuXuXwXuXuXuXuXuXhXfXkXdX>XoX>X<XhX<X<XhXiXL.$XuX .3 4 G =.=.%.%.( ' ^ M w M M G ! ~ ! ^ ~ ~ ~ ! G e $ n J K 6.8.q.w.q.6.K A 6.0.0.#.H.mXNXmXMXNXNX",
"NXNXNXMXMXNX7XX $ a M M 3 u u.z.m.I.Y C.`.L.K.K.L.L.L.L.Y.(.L.Y.Y.Y.Y.K.K.a.N.B.i.i.f.<X>X,X>X*XXX].p.T ( w $ > I ( o.( ' ( ` ^ T 4 3 w 4 q w r r F G G ~ G r 4 n V S $.7.w.7.0.9.b H B.3XMXNXMXmXMXNXNX",
"NXNXNXmXMXNX6X# $ F M M F O A.p.|.K.a |.OX|.|. XOX X X+X X#X+X+X;X X X;XD.p.=X;Xp.p.a.Q.Q._.).Q.O.n.F -.%.-.' U M > 3 M G ~ ! U U ~ T ~ T U P N M n n M M B G H $.K A V n J 7.0.w.K +.mXNXNXMXmXMXNXNXNX",
"NXNXMXmXMXMXgX# a r e 3 F O c.z.OXi.p  X}.}.}.}.|.|. X X X X X X X X=X-Xf.p. X;Xp.a.a.f.~.).).Q.B.T F G ~ ` U G U E Q u @ > V n V N n 4 e I ^ K 2.0.9.L J n n 6.q.0.8.K N n.=.3.0.q.H 8XNXNXmXMXNXNXNXNX",
"NXNXNXmXNXNXP., r r 2 2 F $ e i.Y.n.: L. X X X|.OXOX|. X X X X X X X X XD.O. X;XB.B.` G ' -.` U q w w 1 3 i i U E E R W Q i 1 m J $.D m $ s c.V.f.*.3.0.3.9.$.A J q.0.7.9.,.` J 3.0.K R.NXMXMXNXNXNXNXNX",
"NXNXMXmXNXmXf 3 r < b.p M F r a e F < 3 a Y ) @.m.C.F.H.H.F.G.G.G.G.K.K.B.Q p.O.p.T T / / | X./ } } / } Q I r t I  .{ { E R d q ; ; : d P h 0 j =XaX(.,.L 7.7.7.S m A 6.3.0.L 1.7.9.K U.NXNXmXNXNXNXNXNX",
"NXNXMXMXNXgX= q e 8 0Xl r G F G U G ! G G N M > $ w Q O.Q F XX,X<X>XoXK.z. .I | o.=.O.o.o.=.O.o.o.o.O.o.o.o.| | } +.| | +.| | +.t {  .| +.h. .d b.NXMXcXD.$.7.3.7.b u %.7.3.4.0.K 2.V 4XNXMXmXNXNXNXNXNX",
"NXNXMXMXNX4X* e 3 p mXZ.3 M M G G G G ^ U w > w U / X.I h n.>X,X;XY.p.K.K.F o.o.| o.o.o.o.o.o.o.o.o.o.o.X.o.| | X.| | m.C.} | X.t  .+.+.|  . .R Y cXNXNXgXN 7.7.0.J W OXS 7.7.7.K m +.mXNXmXMXNXNXNXNXNX",
"NXNXmXMXNX8X+ e e 7 gXgXu B y q < < < > 3 B E } } / R n.N.L.:X'.f.c.I.qX` Q =.o.o.o.o.o.| o.' | o.o.| ' | | | | | | { h.h.} X.} 5 { X. . .X.| E m a.nXNXcX4 2.7.3.J c.aXV 0.4.7.1.< 0XNXNXmXNXNXNXNXNXNX",
"NXNXMXmXNXmXz & q 8 k.0Xz % , 8 d P P P Q / ~ / / U (.:XB.R.x.Z.D.;XXX>XT / | %.o.o.o.| | ( | o.o.| | | | | | | } } } +.X.} } { t } { X. .} { P A J OXNX9X> 1.3.3.m T.aXS 0.4.0.K ) MXNXmXmXNXNXNXNXNXNX",
"NXNXNXvXNXNXvXE.c = # - 9 [ d j P P P d E { Q / y C..XG.H.H.Z.}.;X,X>XpXT E o.o.o.o.} / o.| | } | | | | | } | } } } }  .} } } { 5 { { { { { } d S 1.@.NXP.b 3.3.1.< gX5XA 0.7.0.J E.NXNXmXMXNXNXNXNXNXNX",
"NXNXNXmXmXMXMXNX8X% - s s @.R d t P t 6 P E Q P R n.N.H.G.'.XX*XXX<X*XyXV.r o.o.o.o.} B B / | ' ( | } / } } } } } } } { { } { [ 5 [ [ [ { [ [ y K 1.F 8Xe L 3.7.V c.NXR.S 1.1.K a.MXNXMXmXNXNXNXNXNXNXNX",
"NXNXNXNXMXmXMXNX0X= t 0 0 s R s : P , d E E E t x.A.'.XX*X,XyX>XXX`.(.(.'.8 P o.o.U B I P w y Q X.} } } } / { } } { { { { { [ R , x ] [ [ [ [ 6 1.1.@ P J 3.K J z.vXNXx.` s.C.H.zXNXNXmXNXNXNXNXNXNXNXNX",
"NXNXNXNXNXMXmXNXMXb.= t t s y s % s : P P E P s N.!.'.(.G.F.z.;.&.&.s.K.A.+.< U / | / I B i t < P } } } } } } { { { { { [ E R R 5 ] ] ] [ [ R b 1.A X ~ ,.m.L.5XMXNXMXxXvXNXNXNXNXMXmXMXNXNXNXNXNXNXNXNX",
"NXNXNXNXNXNXmXMXNXmXk.= t t s s ; & t P P P P : @.p.M.#.*.M.Q.M.,.*.&.s.s.a.H M 9 P } o.X.X.} { P q i E { Q { Q Q { { { W [ j 5 s ] ] x ] ] d m 3.K +.mXmXMXNXNXNXMXMXNXNXMXMXMXMXmXMXNXNXNXNXNXNXNXNXNX",
"NXNXNXNXNXNXMXmXNXNXMXb.= t t s 5 o s d d ] P 6 a.m.#.v v v v J D.G.K.$.C C Z C C.l.i a i I Q } } } R y q i h I R R P P d t 8 d ] ] ] x x x 1 1.4.N 2XNXNXMXMXmXMXMXMXMXMXNXMXNXNXNXNXNXNXNXNXNXNXNXNXNX",
"NXNXNXNXNXNXNXMXmXMXNXMXk.* s t t % s d d I : # B.V.h.D Z Z Z r.&X{.W.r.Q.C.M.!.|.*XqX`.) N.R p 0 i h { Q R s 0 t t t t s d ] x x x x x g h @ 1.K z.MXNXMXmXNXNXNXNXNXNXNXNXNXNXNXNXNXNXNXNXNXNXNXNXNXNX",
"NXNXNXNXNXNXNXNXMXmXMXNXzX= % , t % t s d u p D.V.M.M.!.!.'.!.$.Z C S ;.H.'.'.F.B.%X:Xz.|.tX%X|.`.n.h s g R Q [ ] [ ] { ] ] ] ] x j = f E.U.1 1.V 0XNXMXvXNXNXNXNXNXNXNXNXNXNXNXNXNXNXNXNXNXNXNXNXNXNXNX",
"NXNXNXNXNXNXNXNXNXmXmXNXNX0XS.h.f % % d d 5  .(.m.[.[.*X*X{.[.G.Q.C.F.(.!.(..X*X].].[..X[.[.[.%XeX*XqXqX'. .d j j ] j s s j s s k = - 8XMXc 9 +.E.NXNXmXMXNXNXNXNXNXNXNXNXNXNXNXNXNXNXNXNXNXNXNXNXNXNXNX",
"NXNXNXNXNXNXNXNXNXNXmXmXNXMXMXMXMXP.* d s 9 (.yXD.@XN.[.rX*X*X[.'.XX.X'.F.`.}.}.}.L.H.`.%XtX:X;X$X.X*XqXsXsXOX+.0 s f h.b.S.P.v.b.1XmXNXMXvXmXNXNXNXMXmXNXNXNXNXNXNXNXNXNXNXNXNXNXNXNXNXNXNXNXNXNXNXNXNX",
"NXNXNXNXNXNXNXNXNXNXNXMXmXMXMXMXNX0X- * * Q rX,XA.Z.OXA.].).V.G.(.'.-X5X5XaXkXbXbXbXaX=XK.K.].[.%X!..X>X$X'.`.@X3X3X8XaX0X4X1X9XmXNXNXMXNXNXMXMXMXMXMXNXNXNXNXNXNXNXNXNXNXNXNXNXNXNXNXNXNXNXNXNXNXNXNXNX",
"NXNXNXNXNXNXNXNXNXNXNXNXNXNXMXMXNXNX9Xu.0 I.$XK.5XaXb.J.@X-X;X5XaX5X@XT.i.0 g z.Z.Y.;XdX4XT.J.J.+X+X#XR.R.3X6X6X4X2X2X4X9XvXMXNXNXMXmXmXMXMXNXMXMXNXNXNXNXNXNXNXNXNXNXNXNXNXNXNXNXNXNXNXNXNXNXNXNXNXNXNX",
"NXNXNXNXNXNXNXNXNXNXNXNXNXNXMXmXNXNXmXT.W l 2 c.Z.l.9 0 ) P.OX=XOXT.v.0 2 7 )  .2 Y k E.c.U.T.J.v.x.P.E.1X4X8XxXvXmXNXNXNXNXNXmXmXMXMXNXNXNXNXNXNXNXNXNXNXNXNXNXNXNXNXNXNXNXNXNXNXNXNXNXNXNXNXNXNXNXNXNX",
"NXNXNXNXNXNXNXNXNXNXNXNXNXNXNXmXNXNXP.9 * # * l 0 2 k u p Y -X=XT.E.7XT.v...Y 7 Y l R.S.a =XgX6X4X4XaXcXmXNXNXNXNXMXMXmXMXmXMXMXNXNXNXNXNXNXNXNXNXNXNXNXNXNXNXNXNXNXNXNXNXNXNXNXNXNXNXNXNXNXNXNXNXNXNXNX",
"NXNXNXNXNXNXNXNXNXNXNXNXNXNXNXmXNXMXxXl.) R.b.f ) f 9 ) 7 0 b.2XvXNXNXNXNXcX8XP.z T.b.) +.xXNXNXNXNXNXNXNXMXmXmXMXMXMXNXNXNXNXNXNXNXNXNXNXNXNXNXNXNXNXNXNXNXNXNXNXNXNXNXNXNXNXNXNXNXNXNXNXNXNXNXNXNXNXNX",
"NXNXNXNXNXNXNXNXNXNXNXNXNXNXNXMXmXMXNXgXc.c.9X2X0 z h l * c vXNXNXMXmXMXMXNXNXNX=Xz a i.Z.MXNXmXMXMXmXMXMXMXNXNXNXNXNXNXNXNXNXNXNXNXNXNXNXNXNXNXNXNXNXNXNXNXNXNXNXNXNXNXNXNXNXNXNXNXNXNXNXNXNXNXNXNXNXNX",
"NXNXNXNXNXNXNXNXNXNXNXNXNXNXNXNXmXmXMXNXvXT...J.z f u.b.E.vXNXNXmXmXMXNXmXmXMXNXmXb.l ) 0XNXNXmXMXNXNXNXNXNXNXNXNXNXNXNXNXNXNXNXNXNXNXNXNXNXNXNXNXNXNXNXNXNXNXNXNXNXNXNXNXNXNXNXNXNXNXNXNXNXNXNXNXNXNXNX",
"NXNXNXNXNXNXNXNXNXNXNXNXNXNXNXNXNXmXmXMXNXMX8XP.4XmXMXNXNXNXMXmXmXNXNXNXNXMXvXNXNXnX4XxXNXNXmXMXNXNXNXNXNXNXNXNXNXNXNXNXNXNXNXNXNXNXNXNXNXNXNXNXNXNXNXNXNXNXNXNXNXNXNXNXNXNXNXNXNXNXNXNXNXNXNXNXNXNXNXNX",
"NXNXNXNXNXNXNXNXNXNXNXNXNXNXNXNXNXNXMXmXmXMXNXNXNXNXMXMXMXmXmXNXNXNXNXNXNXNXMXmXMXNXNXNXMXMXmXNXNXNXNXNXNXNXNXNXNXNXNXNXNXNXNXNXNXNXNXNXNXNXNXNXNXNXNXNXNXNXNXNXNXNXNXNXNXNXNXNXNXNXNXNXNXNXNXNXNXNXNXNX",
"NXNXNXNXNXNXNXNXNXNXNXNXNXNXNXNXNXNXNXNXMXMXMXMXmXMXMXMXNXNXNXNXNXNXNXNXNXNXNXNXMXmXmXmXMXMXNXNXNXNXNXNXNXNXNXNXNXNXNXNXNXNXNXNXNXNXNXNXNXNXNXNXNXNXNXNXNXNXNXNXNXNXNXNXNXNXNXNXNXNXNXNXNXNXNXNXNXNXNXNX",
"NXNXNXNXNXNXNXNXNXNXNXNXNXNXNXNXNXNXNXNXNXNXNXNXNXNXNXNXNXNXNXNXNXNXNXNXNXNXNXNXNXNXNXNXNXNXNXNXNXNXNXNXNXNXNXNXNXNXNXNXNXNXNXNXNXNXNXNXNXNXNXNXNXNXNXNXNXNXNXNXNXNXNXNXNXNXNXNXNXNXNXNXNXNXNXNXNXNXNXNX",
"NXNXNXNXNXNXNXNXNXNXNXNXNXNXNXNXNXNXNXNXNXNXNXNXNXNXNXNXNXNXNXNXNXNXNXNXNXNXNXNXNXNXNXNXNXNXNXNXNXNXNXNXNXNXNXNXNXNXNXNXNXNXNXNXNXNXNXNXNXNXNXNXNXNXNXNXNXNXNXNXNXNXNXNXNXNXNXNXNXNXNXNXNXNXNXNXNXNXNXNX",
"NXNXNXNXNXNXNXNXNXNXNXNXNXNXNXNXNXNXNXNXNXNXNXNXNXNXNXNXNXNXNXNXNXNXNXNXNXNXNXNXNXNXNXNXNXNXNXNXNXNXNXNXNXNXNXNXNXNXNXNXNXNXNXNXNXNXNXNXNXNXNXNXNXNXNXNXNXNXNXNXNXNXNXNXNXNXNXNXNXNXNXNXNXNXNXNXNXNXNXNX",
"NXNXNXNXNXNXNXNXNXNXNXNXNXNXNXNXNXNXNXNXNXNXNXNXNXNXNXNXNXNXNXNXNXNXNXNXNXNXNXNXNXNXNXNXNXNXNXNXNXNXNXNXNXNXNXNXNXNXNXNXNXNXNXNXNXNXNXNXNXNXNXNXNXNXNXNXNXNXNXNXNXNXNXNXNXNXNXNXNXNXNXNXNXNXNXNXNXNXNXNX",
"NXNXNXNXNXNXNXNXNXNXNXNXNXNXNXNXNXNXNXNXNXNXNXNXNXNXNXNXNXNXNXNXNXNXNXNXNXNXNXNXNXNXNXNXNXNXNXNXNXNXNXNXNXNXNXNXNXNXNXNXNXNXNXNXNXNXNXNXNXNXNXNXNXNXNXNXNXNXNXNXNXNXNXNXNXNXNXNXNXNXNXNXNXNXNXNXNXNXNXNX",
"NXNXNXNXNXNXNXNXNXNXNXNXNXNXNXNXNXNXNXNXNXNXNXNXNXNXNXNXNXNXNXNXNXNXNXNXNXNXNXNXNXNXNXNXNXNXNXNXNXNXNXNXNXNXNXNXNXNXNXNXNXNXNXNXNXNXNXNXNXNXNXNXNXNXNXNXNXNXNXNXNXNXNXNXNXNXNXNXNXNXNXNXNXNXNXNXNXNXNXNX",
"NXNXNXNXNXNXNXNXNXNXNXNXNXNXNXNXNXNXNXNXNXNXNXNXNXNXNXNXNXNXNXNXNXNXNXNXNXNXNXNXNXNXNXNXNXNXNXNXNXNXNXNXNXNXNXNXNXNXNXNXNXNXNXNXNXNXNXNXNXNXNXNXNXNXNXNXNXNXNXNXNXNXNXNXNXNXNXNXNXNXNXNXNXNXNXNXNXNXNXNX",
"NXNXNXNXNXNXNXNXNXNXNXNXNXNXNXNXNXNXNXNXNXNXNXNXNXNXNXNXNXNXNXNXNXNXNXNXNXNXNXNXNXNXNXNXNXNXNXNXNXNXNXNXNXNXNXNXNXNXNXNXNXNXNXNXNXNXNXNXNXNXNXNXNXNXNXNXNXNXNXNXNXNXNXNXNXNXNXNXNXNXNXNXNXNXNXNXNXNXNXNX",
"NXNXNXNXNXNXNXNXNXNXNXNXNXNXNXNXNXNXNXNXNXNXNXNXNXNXNXNXNXNXNXNXNXNXNXNXNXNXNXNXNXNXNXNXNXNXNXNXNXNXNXNXNXNXNXNXNXNXNXNXNXNXNXNXNXNXNXNXNXNXNXNXNXNXNXNXNXNXNXNXNXNXNXNXNXNXNXNXNXNXNXNXNXNXNXNXNXNXNXNX"
};
