/* XPM */
static char *_7239_1b41807513984dd8e8b5627054a2baacfa8a2eb4cc740429987d3a165830d356[] = {
/* columns rows colors chars-per-pixel */
"100 75 256 2 ",
"   c None",
".  c #070506",
"X  c #080607",
"o  c #0C0A0B",
"O  c #100E0E",
"+  c #1F1D1D",
"@  c #201E1E",
"#  c #252324",
"$  c #282727",
"%  c #292728",
"&  c #2D2B2B",
"*  c #302E2F",
"=  c #312F30",
"-  c #343233",
";  c #383637",
":  c #3A3837",
">  c #393738",
",  c #3D3B3B",
"<  c #413E3E",
"1  c #42403F",
"2  c #413F40",
"3  c #4B3E40",
"4  c #454343",
"5  c #494646",
"6  c #4B4847",
"7  c #494748",
"8  c #4D4B4B",
"9  c #514E4D",
"0  c #5A4B4D",
"q  c #53504F",
"w  c #514F50",
"e  c #5F4E50",
"r  c #555252",
"t  c #595555",
"y  c #5B5857",
"u  c #5D5B5B",
"i  c #634E51",
"p  c #645356",
"a  c #695356",
"s  c #6F5559",
"d  c #615E5D",
"f  c #6B5B5D",
"g  c #64615F",
"h  c #615F60",
"j  c #6F5F61",
"k  c #745F62",
"l  c #785E62",
"z  c #656362",
"x  c #6A6564",
"c  c #6C6967",
"v  c #696768",
"b  c #6D6B6B",
"n  c #746063",
"m  c #7D6367",
"M  c #716E6D",
"N  c #7E6B6E",
"B  c #74706F",
"V  c #716F70",
"C  c #757372",
"Z  c #7A7674",
"A  c #7C7977",
"S  c #7D7B7B",
"D  c #836469",
"F  c #806C6E",
"G  c #8D6C71",
"H  c #827E7C",
"J  c #947277",
"K  c #947478",
"L  c #9B757B",
"P  c #9F797F",
"I  c #84807E",
"U  c #A27B81",
"Y  c #858382",
"T  c #898582",
"R  c #8C8886",
"E  c #888788",
"W  c #8D8B8A",
"Q  c #928E8B",
"!  c #95918E",
"~  c #949392",
"^  c #9A9592",
"/  c #9D9996",
"(  c #9E9C9C",
")  c #AD8389",
"_  c #B3878E",
"`  c #B4888E",
"'  c #BA8C93",
"]  c #A29E9B",
"[  c #A6A19E",
"{  c #A09FA0",
"}  c #A5A4A4",
"|  c #A9A5A2",
" . c #ADA9A5",
".. c #A8A7A8",
"X. c #ACABAB",
"o. c #B1AEAB",
"O. c #B6B1AD",
"+. c #B4B3B4",
"@. c #BAB5B2",
"#. c #BEB9B5",
"$. c #BCBBBB",
"%. c #C4949B",
"&. c #C9979E",
"*. c #CF9BA3",
"=. c #D19DA5",
"-. c #D7A1A9",
";. c #DBA4AC",
":. c #DEA7AF",
">. c #DAA4AC",
",. c #C0BBB7",
"<. c #C0BBB7",
"1. c #C0BBB8",
"2. c #C2BDB9",
"3. c #C3BEBA",
"4. c #C3BEBA",
"5. c #C1BCB8",
"6. c #C4BFBB",
"7. c #C4BFBB",
"8. c #E4ABB4",
"9. c #E8AEB6",
"0. c #EAAFB8",
"q. c #EDB2BA",
"w. c #EEB3BB",
"e. c #ECB0B9",
"r. c #C5C0BC",
"t. c #C6C1BD",
"y. c #C7C2BD",
"u. c #C7C2BE",
"i. c #C6C1BD",
"p. c #C8C3BF",
"a. c #C8C3BF",
"s. c #F4B7C0",
"d. c #F7B9C2",
"f. c #F5B8C1",
"g. c #F8BAC3",
"h. c #F9BAC3",
"j. c #F8B9C2",
"k. c #F9BBC4",
"l. c #FABBC4",
"z. c #FABBC5",
"x. c #FABCC5",
"c. c #FBBCC5",
"v. c #FBBCC5",
"b. c #C3C3C3",
"n. c #C9C4C0",
"m. c #CCCBCB",
"M. c #D0CFCF",
"N. c LightGray",
"B. c #D7D8D7",
"V. c #DCDBDB",
"C. c #E4E4E4",
"Z. c #E8E7E7",
"A. c #ECEBEB",
"S. c #F4F3F3",
"D. c white",
"F. c black",
"G. c black",
"H. c black",
"J. c black",
"K. c black",
"L. c black",
"P. c black",
"I. c black",
"U. c black",
"Y. c black",
"T. c black",
"R. c black",
"E. c black",
"W. c black",
"Q. c black",
"!. c black",
"~. c black",
"^. c black",
"/. c black",
"(. c black",
"). c black",
"_. c black",
"`. c black",
"'. c black",
"]. c black",
"[. c black",
"{. c black",
"}. c black",
"|. c black",
" X c black",
".X c black",
"XX c black",
"oX c black",
"OX c black",
"+X c black",
"@X c black",
"#X c black",
"$X c black",
"%X c black",
"&X c black",
"*X c black",
"=X c black",
"-X c black",
";X c black",
":X c black",
">X c black",
",X c black",
"<X c black",
"1X c black",
"2X c black",
"3X c black",
"4X c black",
"5X c black",
"6X c black",
"7X c black",
"8X c black",
"9X c black",
"0X c black",
"qX c black",
"wX c black",
"eX c black",
"rX c black",
"tX c black",
"yX c black",
"uX c black",
"iX c black",
"pX c black",
"aX c black",
"sX c black",
"dX c black",
"fX c black",
"gX c black",
"hX c black",
"jX c black",
"kX c black",
"lX c black",
"zX c black",
"xX c black",
"cX c black",
"vX c black",
"bX c black",
"nX c black",
"mX c black",
"MX c black",
"NX c black",
"BX c black",
"VX c black",
"CX c black",
"ZX c black",
"AX c black",
"SX c black",
"DX c black",
"FX c black",
"GX c black",
"HX c black",
"JX c black",
"KX c black",
"LX c black",
"PX c black",
"IX c black",
"UX c black",
/* pixels */
"                                                                                                                                                                                                        ",
"                                                                            , z Q 9                                                                                                                     ",
"                                                                          4 I #.| ; , 9 M 4                                                                                                             ",
"                                                                      & r | y.a.! @ 9 T ^ B 4                                                                                                           ",
"                                                                    - M #.y.y. .r r F :.' Z r                                                                                                           ",
"                                                                  - Y 6.y.y.] 5 z k >.l.e.n C :                                                                                                         ",
"                                                                - Q y.6.y.^ < C d &.l.d.l.J Z 4                                                                                                         ",
"                                                              - Q y.6.y.^ ; I b P l.d.d.c.' z u                                                                                                         ",
"                                                            & T y.6.y.[ ; A ! a e.g.d.d.l.=.r Z =                                                                                                       ",
"                                                          & b 6.6.y.O.< g #.r ' c.d.d.d.g.;.9 T &                                                                                                       ",
"                                                        > 4 @.y.6.6.z < @./ 0 e.g.d.d.d.g.;.5 Q -                                                                                                       ",
"                                                        & Q y.6.y.] & ! n.B D l.d.d.d.d.l.=.5 ^ =                                                                                                       ",
"                                                      , 4 #.6.6.y.d 5 2.y.y U c.d.d.d.d.l.' 5 / *                                                                                                       ",
"                                                      & Z y.6.y.o.* Y y.2.9 ` c.d.d.d.d.c.L y ! %                                                                                                       ",
"                                                      & ] y.6.y.Q & o.y.6.r ) c.d.d.d.d.g.s S S #                                                                                                       ",
"                                                      : @.r.6.y.c 4 2.6.y.z L c.d.d.d.g.8.3 ] t -                                                                                                       ",
"                                                    ; 8 2.6.6.y.r d y.6.y.S m l.d.d.d.c.` 8  .-                                                                                                         ",
"                                                    - z y.6.6.2.5 b y.6.y.^ a s.g.d.g.s.a H Z &                                                                                                         ",
"                                                    # c ,.6.y.y.9 b y.6.y.o.0 9.g.d.l.%.6 ] ;                                                                                                           ",
"                                    - ; < 8 t u d u 9 r g b H ^ r d y.6.6.#.r -.g.g.e.i Y d &                                                                                                           ",
"                              : 4 z R | @.,.2.y.y.6.2.#.O.| ^ Y y r 2.6.6.2.d &.l.d.G z H &                                                                                                             ",
"                          , 9 Y O.y.y.y.y.6.6.6.6.6.6.6.y.y.y.y.@.x O.y.6.2.d &.c.U y W -                                                                                                               ",
"                        , S @.y.y.6.6.6.6.6.6.6.6.6.6.2.@.#.y.6.y.[ o.y.6.#.f >.U d ^ < ,                                                                                                               ",
"                      5 / y.y.6.6.6.6.6.6.6.6.6.6.6.2.| A u H #.6.6.2.6.y.o.m K Z [ 5 ;                                                                                                                 ",
"                    4 | y.6.6.6.6.6.6.6.6.6.6.6.6.6.6.2.1.] 4 T y.6.6.6.y.^ x /  .8 :                                                                                                                   ",
"                  ; ] y.6.6.6.6.6.6.6.6.6.y.y.y.y.6.6.6.6.a.! T y.6.6.6.6.o.O.| 6                                                                                                                       ",
"                & H y.6.6.6.6.6.6.6.r.y.2. .T Y [ 1.y.6.6.6.#.#.6.6.6.6.6.y.| b ;                                                                                                                       ",
"                8 #.y.6.6.6.6.6.6.y.@.H 5 & & b b z | y.6.6.6.6.6.6.6.6.6.6.O.#.C =                                                                                                                     ",
"              * Z y.6.6.6.6.6.6.y. .5 O X X o } D.X.8 o.y.6.6.6.6.6.6.6.6.6.y.y.[ -                                                                                                                     ",
"        p e < u ~ ,.y.y.6.6.6.y.@.4 o o , W = } D.D.z T y.6.6.6.6.6.6.6.6.6.6.r.@.4                                                                                                                     ",
"    , l 8.e.;.) x ] o.O.2.y.6.y.S o o o ~ V.Z C.D.D.z ! y.6.6.6.6.6.6.6.6.6.6.6.2.t                                                                                                                     ",
"  w v U v.l.e._ p z S C c Q 2.2.8 . o X # z B.D.D.o.x @.2.2.6.6.6.6.6.6.6.6.6.6.y.Z                                                                                                                     ",
"  w $.f 9.*.N } V.S.D.S.N.Z C #.r , & : b X.+.( Y 5 c Z I [ 2.6.6.6.6.6.6.6.6.6.y.O.9                                                                                                                   ",
"  4 N.} k Z B.D.D.D.D.D.D.S.S T x S C z b B I ! [ o.O.@.@.#.6.6.6.6.6.6.6.6.6.6.6.y.T ;                                                                                                                 ",
"  < C S.b.V.D.D.D.D.D.D.D.D.V.4 H ^ [ o.#.y.y.y.y.y.y.6.6.6.6.6.6.6.6.6.6.6.6.6.6.y.o.,                                                                                                                 ",
"    , Z } W +.D.D.D.D.D.D.D.S.r o.a.y.y.6.6.6.6.6.6.6.6.6.6.6.6.6.6.6.6.6.6.6.6.6.6.@.<                                                                                                                 ",
"        4 ( 6 Y N.D.D.D.D.D.C.8 S y.6.6.6.6.6.6.6.6.6.6.6.6.6.6.6.6.6.6.6.6.6.6.6.y.O.;                                                                                                                 ",
"        r ~ Z } 4 Y +.M.m.| Y ~ 8 / y.6.6.6.6.6.6.6.6.6.6.6.6.6.6.6.6.6.6.6.6.6.6.y.Q &                                                                                                                 ",
"          8 , S X.b.^ W ~ +.M.S !  .2.6.6.6.6.6.6.6.6.6.6.6.6.6.6.6.6.6.6.6.6.6.y.O., &               , 4 8 r t d z z z u t 8 4 ,                                                                       ",
"            6 Z m.S.D.S.Z.+.M ~ y.y.6.6.6.6.6.6.6.6.6.6.6.6.6.6.6.6.6.6.6.6.y.y.| 8 9 z <     8 u B T / | O.#.2.2.6.6.6.2.#.@. .~ Z r , :                                                               ",
"                5 z b z 4 5 ^ y.y.6.6.6.6.6.6.6.6.6.6.6.6.6.6.6.6.6.6.6.y.y.@.A , b #.2.] 9 4 [ ,.y.y.y.y.y.6.6.6.6.6.6.6.6.y.y.y.y.,.[ B 4 -                                                           ",
"                            5 M @.y.6.6.6.6.6.6.6.6.6.6.6.6.6.y.y.y.y.2.| Z 4 9 ^ 6.r.6.y.#.A c @.y.6.6.6.6.6.6.6.6.6.6.6.6.6.6.6.6.6.y.y.o.Z , -                                                       ",
"                              ; u #.r.6.6.#.#.#.2.2.6.6.6.2.#.O.| Q B r 5 d ^ #.y.6.6.6.6.y.y.Q W 6.6.6.6.6.6.6.6.6.6.6.6.6.6.6.6.6.6.6.6.y.y. .d &                                                     ",
"                                : Q 2.O.O.o.] R A M M x z d y 9 q u C ~ O.y.y.6.6.6.6.6.6.6.6.6.o.2.6.6.6.6.6.6.6.6.6.6.6.6.6.6.6.6.6.6.6.6.6.y.2.Y -                                                   ",
"                                - 9 Y W E A H [ O.o.| ] ] [ W I @.6.y.y.y.6.6.6.6.6.6.6.6.6.6.6.y.6.6.6.6.6.6.6.6.6.6.6.6.6.6.6.6.6.6.6.6.6.6.6.6.y./ , -                                               ",
"                              , < Y S.D.D.A.$.C z Q @.a.a.[ d o.y.6.6.6.6.6.6.6.6.6.6.6.6.6.6.6.6.6.6.6.6.6.6.6.6.6.6.6.6.6.6.6.6.6.6.6.6.6.6.6.6.6.y.| , &                                             ",
"                            : 9 y A S.D.D.D.D.S.] ~ C [ #.9 Q y.6.6.6.6.6.6.6.6.6.6.6.6.6.6.6.6.6.6.6.6.6.6.6.6.6.6.6.6.6.6.6.6.6.6.6.6.6.6.6.6.6.6.6.y.| ; >                                           ",
"                            = Z : z D.D.D.D.D.D.D.Z.B.b x 8 #.6.6.6.6.6.6.6.6.6.6.6.6.6.6.6.6.6.6.6.6.6.6.6.6.6.6.6.6.6.6.6.6.6.6.6.6.6.6.6.6.6.6.6.6.6.y.^ &                                           ",
"                            , [ Z Y D.D.D.D.D.D.D.D.D.N.& B y.6.6.6.6.6.6.6.6.6.6.6.6.6.6.6.6.6.6.6.6.6.6.6.6.6.6.6.6.6.6.6.6.6.6.6.6.6.6.6.6.6.6.6.6.6.6.y.Z #                         4 r b 8         ",
"                            4 #.Q S b.Z.D.D.D.D.D.D.D.D.r A a.6.6.6.6.6.6.6.6.6.6.6.6.6.6.6.6.6.6.6.6.6.6.6.6.6.6.6.6.6.6.6.6.6.6.6.6.6.6.6.6.6.6.6.6.6.6.y.#.6 &         6 y - : b W } b.V.Z.d         ",
"                          u 8 x R x S N.D.D.D.D.D.D.D.D.Y 5 @.y.6.6.6.6.6.6.6.6.6.6.6.6.6.6.6.6.6.6.6.6.6.6.6.6.6.6.6.6.6.6.6.6.6.6.6.6.6.6.6.6.6.6.6.6.6.6.y.^ #     < C S A X.V.S.D.D.D.D.D.u         ",
"                      8 ] V.V.~ b r ; b C.D.D.D.S.C.B.N.$.4 1 / 6.y.6.6.6.6.6.6.6.6.6.6.6.6.6.6.6.6.6.6.6.6.6.6.6.6.6.6.6.6.6.6.6.6.6.6.6.6.6.6.6.6.6.6.6.6.6.2.r $ 8 +.N.m.S.D.D.D.D.D.D.D.D.b         ",
"                    6 N.D.D.D.D.V.u d A S ~ } W S Y u r S R x r x [ 6.y.6.6.6.6.6.6.6.6.6.6.6.6.6.6.6.6.y.2.@.2.6.6.6.6.6.6.6.6.6.6.6.6.6.6.6.6.6.6.6.6.6.6.6.y.! + +.D.D.D.D.D.D.D.D.D.D.D.D.V *       ",
"                  - +.D.D.D.D.D.D.b.c  .M r W m.A.D.S.$.b ! y.@.W x H o.6.6.6.6.6.6.6.6.6.6.6.6.6.6.r.y. .Y ] 2.6.6.6.6.6.6.6.6.6.6.6.6.6.6.6.6.6.6.6.6.6.6.6.y.@.- ( D.D.D.D.D.D.D.D.D.D.D.D.Z 4       ",
"                  4 Z.D.D.D.C.V.D.C.4 t } Z.D.D.D.D.D.S.C ; | y.y.,.[ / #.6.6.6.6.6.6.2.6.6.6.6.6.y.#.I b | 6.6.6.6.6.6.6.6.6.6.6.6.6.6.6.6.6.6.6.6.6.6.6.6.6.6.6.q z D.D.D.D.D.D.D.D.D.D.D.S.( Y       ",
"                  5 Z.B.D.D.b.X.S.A b V.D.D.D.D.D.D.D.D.b.9 o.y.6.6.y.6.2.6.6.6.6.6.y.~ o.,.2.y.y.| d S @.y.6.6.6.6.6.6.6.6.6.6.6.6.6.6.6.6.6.6.6.6.6.6.6.6.6.6.y.M 4 S.D.D.D.D.D.D.D.D.D.D.S.A.( 9     ",
"                  - $.~ S.D.B.Z Y h X.D.D.D.D.D.D.D.D.D.D.b | y.6.6.6.6.6.6.6.6.6.6.y.B z Z B T I r ^ y.y.6.6.6.6.6.6.6.6.6.6.6.6.6.6.6.6.6.6.6.6.6.6.6.6.6.6.6.y.Y - C.D.D.D.D.D.D.D.D.D.D.D.D.( ; 6   ",
"                  , d z m.D.D.Y 4 M V.D.D.C.N.D.D.D.D.D.D.H | y.6.6.6.6.6.6.6.6.6.6.y.u ( S.N.8 8  .y.6.6.6.6.6.6.6.6.6.6.6.6.6.6.6.6.6.6.6.6.6.6.6.6.6.6.6.6.6.y.Q & V.D.D.D.D.D.D.D.D.D.D.D.D.W - <   ",
"                      > u V.S.W % ( D.D.V.S V.D.D.D.D.D.N.t ] r.y.y.y.y.6.6.6.6.6.y.#.4 b.S.C u @.y.6.6.6.6.6.6.6.6.6.6.6.6.6.6.6.6.6.6.6.6.6.6.6.6.6.6.6.6.6.6.y.^ % N.D.D.D.D.D.D.D.D.D.D.D.D.b.r     ",
"                          8 h 4 # m.D.D.S X.D.D.D.C.+.W A y x B Z W ] o.#.y.y.y.y.n.! 4 C.V q @.y.6.6.6.6.6.6.6.6.6.6.6.6.6.6.6.6.6.6.6.6.6.6.6.6.6.6.6.6.6.6.6.y./ & N.D.D.D.D.D.D.D.D.D.D.D.D.{ ,     ",
"                                , E Z.V.r m.V.o.b b } V.D.D.Z.m.8 ; b u t d B Y Q Y , ( } -  .y.6.6.6.6.6.6.6.6.6.6.6.6.6.6.6.6.6.6.6.6.6.6.6.6.6.6.6.6.6.6.6.6.y.! & V.D.D.D.D.D.D.D.D.D.D.D.m.5       ",
"                                  : r u : 8 r & z C.D.D.D.D.D.D.N.4 } S.B.$./ Y A A X.A.8 M y.6.6.6.6.6.6.6.6.6.6.6.6.6.6.6.6.6.6.6.6.6.6.6.6.6.6.6.6.6.6.6.6.6.y.Q ; C.D.D.D.D.D.D.D.D.D.D.S.A &       ",
"                                            , A S.D.S.S.D.D.D.D.D.+.; b.D.D.D.D.D.D.D.C.- ^ y.6.6.6.6.6.6.6.6.6.6.6.6.6.6.6.6.6.6.6.6.6.6.6.6.6.6.6.6.6.6.6.6.6.y.I 4 S.D.D.D.D.D.D.D.D.D.D.D.Q 4       ",
"                                            z S.D.m.} V.D.D.D.D.D.D.W < B.D.D.D.D.D.D.C.- ! y.6.6.6.6.6.6.6.6.6.6.6.6.6.6.6.6.6.6.6.6.6.6.6.6.6.6.6.6.6.6.6.6.6.y.b u D.D.D.D.D.D.D.D.D.D.D.} ;         ",
"                                          ; m.D.$.Y A.D.D.D.D.D.D.D.D.Y 6 m.D.D.D.D.D.D.y u y.6.6.6.6.6.6.6.6.6.6.6.6.6.6.6.6.6.6.6.6.6.6.6.6.6.6.6.6.6.6.6.6.6.6.r E D.D.D.D.D.D.D.D.D.D.~ -           ",
"                                          ; Y ..5 ~ V.V.V.V.N.m.b.b.$.+.r - X.D.D.D.D.S.$.& Y y.y.6.6.6.6.6.6.6.6.6.6.6.6.6.6.6.6.6.6.6.6.6.6.6.6.6.6.6.6.6.6.y.@., $.D.D.D.D.D.D.D.D.V.C -             ",
"                                                  : < 4 4 6 , < 4 4 * & 4 * * b } W S Y E r & Z #.y.6.6.6.6.6.6.6.6.6.6.6.6.6.6.6.6.6.6.6.6.6.6.6.6.6.6.6.6.6.y.^ 7 A.D.D.D.D.D.D.V.~ 4 &               ",
"                                                                            6 b X.N.C.A.S.A.$.r 8 ! ,.y.y.6.6.6.6.6.6.6.6.6.6.6.6.6.6.6.6.6.6.6.6.6.6.6.6.6.y.y.t y m.V.V.N.b.( b 4 &                   ",
"                                                                        > b +.Z.D.D.D.D.D.D.D.A.( 8 8 H o.6.y.y.6.6.6.6.6.6.6.6.6.6.6.6.6.6.6.6.6.6.6.6.r.y.#.A - 4 4 7 4 , ; -                         ",
"                                                                      : Y ..X.S.D.D.D.C.A.D.D.D.D.A.X.z 4 t H | #.y.y.y.y.6.6.6.6.6.6.6.6.6.6.6.6.r.y.y.@.Q r ;                                         ",
"                                                                    ; Y ( W S.D.D.S.( X.S.D.D.D.D.D.D.D.V.( z 4 5 g Y ] O.2.y.y.y.y.y.y.y.y.y.y.6.@.] C 8 ;                                             ",
"                                                                    4 +.u A.D.D.S.Z } D.D.D.D.D.D.D.D.D.D.D.D.Z.b.~ b r 8 q d C Y Q ^ ^ ^ Q I M t < - -                                                 ",
"                                                                    : 6 w V.Z.C.~ 8 Z.S.D.D.S.S.A.Z.C.B.m.b.$.o...( ~ S h , + + # & % = * # & &                                                         ",
"                                                                        ; 4 r 8 ; & r z z z h r r r 5 4 ; , ; >                                                                                         ",
"                                                                                                                                                                                                        "
};
