/* XPM */
static char *_265_9709f2afd422ec9d26cc6540bc6f89ba7018f30dcae36282b451225721a9f5cd[] = {
/* columns rows colors chars-per-pixel */
"100 75 57 1 ",
"  c #2E2E2E",
". c #2E302E",
"X c #343434",
"o c #3C3535",
"O c #3B3B3B",
"+ c #433636",
"@ c #413C3C",
"# c #563C3C",
"$ c #5A3D3B",
"% c #434343",
"& c #484140",
"* c #4C4C4C",
"= c #594242",
"- c #524F4F",
"; c #545454",
": c #595453",
"> c #5B5B5B",
", c #674143",
"< c #6C4343",
"1 c #724444",
"2 c #625D5D",
"3 c #636363",
"4 c #6A6A6A",
"5 c #747474",
"6 c #7B7B7B",
"7 c #804747",
"8 c #834A4A",
"9 c #9C5252",
"0 c #A15354",
"q c #AC5757",
"w c #AF5858",
"e c #B65A5A",
"r c #BF5B5D",
"t c #CE6261",
"y c #D66364",
"u c #DA6365",
"i c #E36667",
"p c #E96667",
"a c #E76768",
"s c #E96768",
"d c #848484",
"f c #8C8C8C",
"g c #949494",
"h c #979897",
"j c #9C9C9C",
"k c #A4A4A4",
"l c #ABABAB",
"z c #B4B4B4",
"x c #BBBBBB",
"c c #C5C5C5",
"v c #CBCBCB",
"b c #D4D4D4",
"n c #DBDBDB",
"m c #E3E3E3",
"M c #ECECEC",
"N c #F4F4F4",
"B c #FFFFFF",
/* pixels */
"BBBBBBBBBBBBBBBBBBBBBBBBBBBBBBBBBBBBBBBBBBBBBBBBBBBBBBBBBBBBBBBBBBBBBBBBBBBBBBBBBBBBBBBBBBBBBBBBBBBB",
"BBBBBBBBBBBBBBBBBBBBBBBBBBBBBBBBBBBBBBBBBBBBBBBBBBBBBBBBBBBBBBBBBBBBBBBBBBBBBBBBBBBBBBBBBBBBBBBBBBBB",
"BBBBBBBBBBBBBBBBBBBBBBBBBBBBBBBBBBBBBBBBBBBBBBBBBBBBBBBBBBBBBBBBBBBBBBBBBBBBBBBBBBBBBBBBBBBBBBBBBBBB",
"BBBBBBBBBBBBBBBBBBBBBBBBBBBBBBBBBBBBBBBBBBBBBBBBBBBBBBBBBBBBBBBBBBBBBBBBBBBBBBBBBBBBBBBBBBBBBBBBBBBB",
"BBBBBBBBBBBBBBBBBBBBBBBBBBBBBBBBBBBBBBBBBBBBBBBBBBBBBBBBBBBBBBBBBBBBBBBBBBBBBBBBBBBBBBBBBBBBBBBBBBBB",
"BBBBBBBBBBBBBBBBBBBBBBBBBBBBBBBBBBBBBBBBBBBBBBBBBBBBBBBBBBBBBBBBBBBBBBBBBBBBBBBBBBBBBBBBBBBBBBBBBBBB",
"BBBBBBBBBBBBBBBBBBBBBBBBBBBBBBBBBBBBBBBBBBBBBBBBBBBBBBBBBBBBBBBBBBBBBBBBBBBBBBBBBBBBBBBBBBBBBBBBBBBB",
"BBBBBBBBBBBBBBBBBBBBBBBBBBBBBBBBBBBBBBBBBBBBBBBBBBBBBBBBBBBBBBBBBBBBBBBBBBBBBBBBBBBBBBBBBBBBBBBBBBBB",
"BBBBBBBBBBBBBBBBBBBBBBBBBBBBBBBBBBBBBBBBBBBBBBBBBBBBBBBBBBBBBBBBBBBBBBBBBBBBBBBBBBBBBBBBBBBBBBBBBBBB",
"BBBBBBBBBBBBBBBBBBBBBBBBBBBBBBBBBBBBBBBBBBBBBBBBBBBBBBBBBBBBBBBBBBBBBBBBBBBBBBBBBBBBBBBBBBBBBBBBBBBB",
"BBBBBBBBBBBBBBBBBBBBBBBBBBBBBBBBBBBBBBBNNNBBBBBBBBBBBBBBBBBBBBBBBBBBBBBBBBBBBBBBBBBBBBBBBBBBBBBBBBBB",
"BBBBBBBBBBBBBBBBBBBBBBBBBBBBBBBBBBBBBmf2>46jvNBBBBBBBBBBBBBBBBBBBBBBBBBBBBBBBBBBBBBBBBBBBBBBBBBBBBBB",
"BBBBBBBBBBBBBBBBBBBBBBBBBBBBBBBBBBBBm>*hxld>%3jmBBBBBBBBBBBBBBBBBBBBBBBBBBBBBBBBBBBBBBBBBBBBBBBBBBBB",
"BBBBBBBBBBBBBBBBBBBBBBBBBBBBBBBBnkfkdXlBBBBMx6%*hmBBBBBBBBBBBBBBBBBBBBBBBBBBBBBBBBBBBBBBBBBBBBBBBBBB",
"BBBBBBBBBBBBBBBBBBBBBBBBBBBBBBBv;%3*X%nBNnmNBBv6O;zNBBBBBBBBBBBBBBBBBBBBBBBBBBBBBBBBBBBBBBBBBBBBBBBB",
"BBBBBBBBBBBBBBBBBBBBBBBBBBBBBBN4*cNm3%nM5%*4lMBBc3OdmBBBBBBBBBBBBBBBBBBBBBBBBBBBBBBBBBBBBBBBBBBBBBBB",
"BBBBBBBBBBBBBBBBBBBBBBBBBBBBBBn%dBBBzXzvO<0<O>xNBMgO>vBBBBBBBBBBBBBBBBBBBBBBBBBBBBBBBBBBBBBBBBBBBBBB",
"BBBBBBBBBBBBBBBBBBBBBBBBBBBBBBcXhBBBm-5n*,iuq$OdmBNz*%lBBBBBBBBBBBBBBBBBBBBBBBBBBBBBBBBBBBBBBBBBBBBB",
"BBBBBBBBBBBBBBBBBBBBBBBBBBBBBBvOdBBBBhOxdoqppy8o3bBBv;OkNBBBBBBBBBBBBBBBBBBBBBBBBBBBBBBBBBBBBBBBBBBB",
"BBBBBBBBBBBBBBBBBBBBBBBBBBBBBBm*>MBBBm;4c*#yspa9+;vBBb;OkBBBBBBBBBBBBBBBBBBBBBBBBBBBBBBBBBBBBBBBBBBB",
"BBBBBBBBBBBBBBBBBBBBBBBBBBBBBBN6XxBBBBzOflO<uappe+;vBBv*OzBBBBBBBBBBBBBBBBBBBBBBBBBBBBBBBBBBBBBBBBBB",
"BBBBBBBBBBBBBBBBBBBBBBBBBBBBBBBcO4MBBBNfOjhO<tapaw+;nBBx%*nBBBBBBBBBBBBBBBBBBBBBBBBBBBBBBBBBBBBBBBBB",
"BBBBBBBBBBBBBBBBBBBBBBBBBBBBBBBN6XhBBBBM6%jj%#wiaa0o5NBBjX6NBBBBBBBBBBBBBBBBBBBBBBBBBBBBBBBBBBBBBBBB",
"BBBBBBBBBBBBBBBBBBBBBBBBBBBBBBBBn>OkBBBBM6%fl>o1rii1XxBBN4XlBBBBBBBBBBBBBBBBBBBBBBBBBBBBBBBBBBBBBBBB",
"BBBBBBBBBBBBBBBBBBBBBBBBBBBBBBBBBv*OkNBBBNgO3kg*+<q9X6BBBvO%lmNBBBBBBBBBBBBBBBBBBBBBBBBBBBBBBBBBBBBB",
"BBBBBBBBBBBBBBBBBBBBBBBBBBBBBBBBBBv;odmBBBNx>%6lg>O+ohBBBNhOX*5lmNBBBBBBBBBBBBBBBBBBBBBBBBBBBBBBBBBB",
"BBBBBBBBBBBBBBBBBBBBBBBBBBBBBBBBBBBb4X;lNBBBmj;%dcvlxNBBBBNvld;O%fbBBBBBBBBBBBBBBBBBBBBBBBBBBBBBBBBB",
"BBBBBBBBBBBBBBBBBBBBBBBBBBBBBBBBBBBBMh%X4cBBBBMz66MBBBBBBBBBBBNx5O*hMBBBBBBBBBBBBBBBBBBBBBBBBBBBBBBB",
"BBBBBBBBBBBBBBBBBBBBBBBBBBBBBBBBBBBBBBb6OOfMBBBBBMBBBBBBBBBBBBBBNx>X3nBBBBBBBBBBBBBBBBBBBBBBBBBBBBBB",
"BBBBBBBBBBBBBBBBBBBBBBBBBBBBBBBBBBBBBBBNc3X3bBBBBBBBBBBBBBBBBBBBBBm6X;bBBBBBBBBBBBBBBBBBBBBBBBBBBBBB",
"BBBBBBBBBBBBBBBBBBBBBBBBBBBBBBBBBBBBBBBBBNhO*vBBBBBBBBBBBBBBBBBBBBBNfX;nBBBBBBBBBBBBBBBBBBBBBBBBBBBB",
"BBBBBBBBBBBBBBBBBBBBBBBBBBBBBBBBBBBBBBBBBBNgX3MBBBBBBBBBBBBBBv6dnBBBN6 5NBBBBBBBBBBBBBBBBBBBBBBBBBBB",
"BBBBBBBBBBBBBBBBBBBBBBBBBBBBBBBBBBBBBBBBBBBM>XzBBBBBBBBBBBBBN3  fBBBBM>XlBBBBBBBBBBBBBBBBBBBBBBBBBBB",
"BBBBBBBBBBBBBBBBBBBBBBBBBBBBBBBBBBBBBBBBBBBBd fBBBBBBBBBBBBBBz2>zBBBBb3X-cBBBBBBBBBBBBBBBBBBBBBBBBBB",
"BBBBBBBBBBBBBBBBBBBBBBBBBBBBBBBBBBBBBBBBBBBB6 jBBBBBBBBBBBBBBBNMBBBBn:8e<4NBBBBBBBBBBBBBBBBBBBBBBBBB",
"BBBBBBBBBBBBBBBBBBBBBBBBBBBBBBBBBBBBBBBBBBNz%%bBBBBBBBBBBBBBBBBBBBBBv&9u73NBBBBBBBBBBBBBBBBBBBBBBBBB",
"BBBBBBBBBBBBBBBBBBBBBBBBBBBBBBBBBBBBBBBNMx5O%lBBBBBBBBBBBBBBBBBBBBBBBl2=ofBBBBBBBBBBBBBBBBBBBBBBBBBB",
"BBBBBBBBBBBBBBBBBBBBBBBBBBBBBBBBBBBNMbk6*X%6vBBBBBBBBBBBBBBBBBBBBBBBBBM3 lBBBBBBBBBBBBBBBBBBBBBBBBBB",
"BBBBBBBBBBBBBBBBBBBBBBBBBBBBBBBBNmzd;OO*5lmNBBBBBBBBBBBBBBBBBBBBBBBBBBb%%bBBBBBBBBBBBBBBBBBBBBBBBBBB",
"BBBBBBBBBBBBBBBBBBBBBBBBBBBBBBMx6*O%4hcMBBBBBBBBBBBBBBBBBBBBBBBBBBBBBb>XfBBBBBBBBBBBBBBBBBBBBBBBBBBB",
"BBBBBBBBBBBBBBBBBBBBBBBBBBBBMl>o%5znNBBBBBBBBBBBBBBBBBBBBBBBBBBBBBBMk*X5MBBBBBBBBBBBBBBBBBBBBBBBBBBB",
"BBBBBBBBBBBBBBBBBBBBBBBBBBBc3X*hnNBBBBBBBBBBBBBBBBBBBBBBBBBBBBBBNbh;X*jNBBBBBBBBBBBBBBBBBBBBBBBBBBBB",
"BBBBBBBBBBBBBBBBBBBBBBBBBNj%OfmBBBBBBBBBBBBBBBBBBBBBBBBBBBBBBBBBk%O>lmBBBBBBBBBBBBBBBBBBBBBBBBBBBBBB",
"BBBBBBBBBBBBBBBBBBBBBBBBNgX;cNBBBBBBBBMjfjxmNBBBBBBBBBBBBBBBBBBN4 dNBBBBBBBBBBBBBBBBBBBBBBBBBBBBBBBB",
"BBBBBBBBBBBBBBBBBBBBBBBBjX>bBBBBBBBBBBm4%OX*5zMBBBBBBBBBBBBBBBBBf gBBBBBBBBBBBBBBBBBBBBBBBBBBBBBBBBB",
"BBBBBBBBBBBBBBBBBBBBBBBc%*vBBBBBBBBBBBBNmvl6*X>lNBBBBBBBBBBBBBBBzX5NBBBBBBBBBBBBBBBBBBBBBBBBBBBBBBBB",
"BBBBBBBBBBBBBBBBBNNNBBN4XkBBBBBBBBBBBBBBBBBBmj*X5mBBBBBBBBBBBBBBbO;MBBBBBBBBBBBBBBBBBBBBBBBBBBBBBBBB",
"BBBBBBBBBBBBBBNvf3>4jmxO3MBBBBBBBBBBBBBBBBBBBBb3X5NBBBBBBBBBBBBBM*%nBBBBBBBBBBBBBBBBBBBBBBBBBBBBBBBB",
"BBBBBBBBBBBBBNj%%5f3O;>XkBBBBBBBBBBBBBBBBBBBBBBn>XkBBBBBBBBBBBBBM>ovBBBBBBBBBBBBBBBBBBBBBBBBBBBBBBBB",
"BBBBBBBBBBBBBxO>bBBNz* %nBBBBBBBBBBBBBBBBBBBBBBBkX4NBBBBBBBBBBBBM;XvBBBBBBBBBBBBBBBBBBBBBBBBBBBBBBBB",
"BBBBBBBBBBBBBd kBBBBBlX3NBBBBBBBBBBBBBBBBBBBBBBBb%*MBBBBBBBBBBBBn%%nBBBBBBBBBBBBBBBBBBBBBBBBBBBBBBBB",
"BBBBBBBBBBBBBg fBBBBBzX5BBBBBBBBBBBBBBBBBBBBBBBBn%*MBBBBBBBBBBBBxX4NBBBBBBBBBBBBBBBBBBBBBBBBBBBBBBBB",
"BBBBBBBBBBBBBb*OjmNBBlXdBBBBBBBBBBBBBBBBBBBBBBBBcO4NBBBBBBBBBBBN6.lBBBBBBBBBBBBBBBBBBBBBBBBBBBBBBBBB",
"BBBBBBBBBBBBBBv3O*464% 5NBBBBBBBBBBBBBBBBBBBBBBNdXkBBBBBBBBBBBBxO>MBBBBBBBBBBBBBBBBBBBBBBBBBBBBBBBBB",
"BBBBBBBBBBBBBBBMxd4345O;MBBBBBBBBBBBBBBBBBBBBBMhO%nBBBBBNnvcccz; hBBBBBBBBBBBBBBBBBBBBBBBBBBBBBBBBBB",
"BBBBBBBBBBBBBBBBBBBNNN4XlBBBBBBNbnBBBBBBBBBBBBhX X6xNBBBj%OXOOXXX4cNBBBBBBBBBBBBBBBBBBBBBBBBBBBBBBBB",
"BBBBBBBBBBBBBBBBBBBBBBxO*vBBBBMdO4NBBBBBBBBBBBbkf5%X5MBBmlklzzlj5O%kBBBBBBBBBBBBBBBBBBBBBBBBBBBBBBBB",
"BBBBBBBBBBBBBBBBBBBBBBNfX;xNBBxX;vBBBBBBBBBBBBBBBBn4 jBBBBBBBBBBNx%%vBBBBBBBBBBBBBBBBBBBBBBBBBBBBBBB",
"BBBBBBBBBBBBBBBBBBBBBBBNfXO6vNk fBBBBBBBBBBBBBBBBBBzX6BBBBBBBBBBBN> lBBBBBBBBBBBBBBBBBBBBBBBBBBBBBBB",
"BBBBBBBBBBBBBBBBBBBBBBBBNz3O%4;.*gjklzzzzxxxxzzzllh3 ;kzzxxxxxzlj6O%vBBBBBBBBBBBBBBBBBBBBBBBBBBBBBBB",
"BBBBBBBBBBBBBBBBBBBBBBBBBBNch5>*%%OOOO%O%%%O%%O%@%OO%O%%%%%%OOOOO%3zBBBBBBBBBBBBBBBBBBBBBBBBBBBBBBBB",
"BBBBBBBBBBBBBBBBBBBBBBBBBBBBBNMMmnnbbbbbbbbbbbbbbbbbbbbbnbbbvvccvnNBBBBBBBBBBBBBBBBBBBBBBBBBBBBBBBBB",
"BBBBBBBBBBBBBBBBBBBBBBBBBBBBBBBBBBBBBBBBBBBBBBBBBBBBBBBBBBBBBBBBBBBBBBBBBBBBBBBBBBBBBBBBBBBBBBBBBBBB",
"BBBBBBBBBBBBBBBBBBBBBBBBBBBBBBBBBBBBBBBBBBBBBBBBBBBBBBBBBBBBBBBBBBBBBBBBBBBBBBBBBBBBBBBBBBBBBBBBBBBB",
"BBBBBBBBBBBBBBBBBBBBBBBBBBBBBBBBBBBBBBBBBBBBBBBBBBBBBBBBBBBBBBBBBBBBBBBBBBBBBBBBBBBBBBBBBBBBBBBBBBBB",
"BBBBBBBBBBBBBBBBBBBBBBBBBBBBBBBBBBBBBBBBBBBBBBBBBBBBBBBBBBBBBBBBBBBBBBBBBBBBBBBBBBBBBBBBBBBBBBBBBBBB",
"BBBBBBBBBBBBBBBBBBBBBBBBBBBBBBBBBBBBBBBBBBBBBBBBBBBBBBBBBBBBBBBBBBBBBBBBBBBBBBBBBBBBBBBBBBBBBBBBBBBB",
"BBBBBBBBBBBBBBBBBBBBBBBBBBBBBBBBBBBBBBBBBBBBBBBBBBBBBBBBBBBBBBBBBBBBBBBBBBBBBBBBBBBBBBBBBBBBBBBBBBBB",
"BBBBBBBBBBBBBBBBBBBBBBBBBBBBBBBBBBBBBBBBBBBBBBBBBBBBBBBBBBBBBBBBBBBBBBBBBBBBBBBBBBBBBBBBBBBBBBBBBBBB",
"BBBBBBBBBBBBBBBBBBBBBBBBBBBBBBBBBBBBBBBBBBBBBBBBBBBBBBBBBBBBBBBBBBBBBBBBBBBBBBBBBBBBBBBBBBBBBBBBBBBB",
"BBBBBBBBBBBBBBBBBBBBBBBBBBBBBBBBBBBBBBBBBBBBBBBBBBBBBBBBBBBBBBBBBBBBBBBBBBBBBBBBBBBBBBBBBBBBBBBBBBBB",
"BBBBBBBBBBBBBBBBBBBBBBBBBBBBBBBBBBBBBBBBBBBBBBBBBBBBBBBBBBBBBBBBBBBBBBBBBBBBBBBBBBBBBBBBBBBBBBBBBBBB",
"BBBBBBBBBBBBBBBBBBBBBBBBBBBBBBBBBBBBBBBBBBBBBBBBBBBBBBBBBBBBBBBBBBBBBBBBBBBBBBBBBBBBBBBBBBBBBBBBBBBB",
"BBBBBBBBBBBBBBBBBBBBBBBBBBBBBBBBBBBBBBBBBBBBBBBBBBBBBBBBBBBBBBBBBBBBBBBBBBBBBBBBBBBBBBBBBBBBBBBBBBBB",
"BBBBBBBBBBBBBBBBBBBBBBBBBBBBBBBBBBBBBBBBBBBBBBBBBBBBBBBBBBBBBBBBBBBBBBBBBBBBBBBBBBBBBBBBBBBBBBBBBBBB"
};
