/* XPM */
static char *_9507_10934701ea245dd8241126121f046f4c363abb61a76fe3c7206d82cfc8176a3c[] = {
/* columns rows colors chars-per-pixel */
"100 75 256 2 ",
"   c #040101",
".  c #0B0202",
"X  c #060804",
"o  c #130A03",
"O  c #150B0B",
"+  c #180906",
"@  c #061602",
"#  c #1B120C",
"$  c #181507",
"%  c #1A1615",
"&  c #150C13",
"*  c #241809",
"=  c #261B16",
"-  c #2A1005",
";  c #1B2714",
":  c #2B2418",
">  c #34291B",
",  c #312D0F",
"<  c #261D24",
"1  c #292626",
"2  c #372B25",
"3  c #3A3328",
"4  c #3B3534",
"5  c #2F3333",
"6  c #182C23",
"7  c #480F07",
"8  c #6F180D",
"9  c #4C3114",
"0  c #6F310D",
"q  c #44382B",
"w  c #4B3D32",
"e  c #463737",
"r  c #4F2B2C",
"t  c #6D352E",
"y  c #344236",
"u  c #3B411F",
"i  c #4B4237",
"p  c #534A34",
"a  c #73502D",
"s  c #6A632C",
"d  c #33504C",
"f  c #346857",
"g  c #2E7266",
"h  c #584947",
"j  c #50514F",
"k  c #685A5A",
"l  c #70514B",
"z  c #516C54",
"x  c #67675A",
"c  c #70654F",
"v  c #53716D",
"b  c #6C6765",
"n  c #756666",
"m  c #777876",
"M  c #6E736E",
"N  c #655962",
"B  c #613942",
"V  c #903412",
"C  c #AC3811",
"Z  c #8D3628",
"A  c #AD3D2F",
"S  c #DC362E",
"D  c #925212",
"F  c #AB4D16",
"G  c #8F502E",
"H  c #AF5330",
"J  c #956B2E",
"K  c #B16F33",
"L  c #AC681A",
"P  c #C96619",
"I  c #D05835",
"U  c #D07031",
"Y  c #F07535",
"T  c #EB582B",
"R  c #A3384E",
"E  c #96714C",
"W  c #B0744C",
"Q  c #8B7170",
"!  c #A75D5B",
"~  c #D75651",
"^  c #D1754D",
"/  c #E87847",
"(  c #F97848",
")  c #F87657",
"_  c #EE6C4E",
"`  c #D07866",
"'  c #F67666",
"]  c #E8554C",
"[  c #399767",
"{  c #58857A",
"}  c #4A8A75",
"|  c #708A77",
" . c #69A05B",
".. c #B88E2F",
"X. c #A38913",
"o. c #D38E34",
"O. c #E9883A",
"+. c #F28A37",
"@. c #D1A439",
"#. c #CE801E",
"$. c #B38F4F",
"%. c #8D8B76",
"&. c #B79371",
"*. c #A2A161",
"=. c #D78947",
"-. c #D1904F",
";. c #F08F4E",
":. c #D3AF4B",
">. c #E5A548",
",. c #EDB352",
"<. c #CF9168",
"1. c #EC926D",
"2. c #D0B06D",
"3. c #E8B668",
"4. c #EDAE70",
"5. c #E8C558",
"6. c #F8C85A",
"7. c #E9C550",
"8. c #E9C766",
"9. c #FBC868",
"0. c #F8C975",
"q. c #FAD877",
"w. c #ECD072",
"e. c #FAE175",
"r. c #DBC456",
"t. c #687A8A",
"y. c #496080",
"u. c #91798F",
"i. c #C66E86",
"p. c #3C9181",
"a. c #598786",
"s. c #53958B",
"d. c #768B88",
"f. c #67928B",
"g. c #679995",
"h. c #789896",
"j. c #6E8D8C",
"k. c #53AB8F",
"l. c #68A499",
"z. c #77A49B",
"x. c #72B28E",
"c. c #6AA8A4",
"v. c #79A9A5",
"b. c #79B5AB",
"n. c #79B8B5",
"m. c #71B0AE",
"M. c #68A0AA",
"N. c #2EC895",
"B. c #77C7B4",
"V. c #6CD9A0",
"C. c #7DB6C6",
"Z. c #7BCAC9",
"A. c #858887",
"S. c #879A99",
"D. c #94989A",
"F. c #8F908A",
"G. c #AC918C",
"H. c #88A49C",
"J. c #8EAA96",
"K. c #B2AD8E",
"L. c #909CA7",
"P. c #89A9A8",
"I. c #97A8A9",
"U. c #87B6AA",
"Y. c #97B6AC",
"T. c #99AAB7",
"R. c #89BAB7",
"E. c #98B8B7",
"W. c #86ABB7",
"Q. c #A5A9A9",
"!. c #B5B7A9",
"~. c #A7B8B8",
"^. c #B4B8BA",
"/. c #ACAFB1",
"(. c #AA9FA3",
"). c #D1B291",
"_. c #EDB58F",
"`. c #CEB9B0",
"'. c #EBB4AB",
"]. c #E09090",
"[. c #99C6BA",
"{. c #8CC9B4",
"}. c #A9C5BB",
"|. c #B7CEB2",
" X c #99D69F",
".X c #F6CB92",
"XX c #D0CCB2",
"oX c #F0D2B2",
"OX c #E3E5AD",
"+X c #9ABAC4",
"@X c #8EB8D2",
"#X c #A9BBC4",
"$X c #B5BCC5",
"%X c #ACB8D1",
"&X c #C8BAC9",
"*X c #E4B8D3",
"=X c #9AC6C6",
"-X c #9AD4C9",
";X c #8vars.fd0CC",
":X c #A8C7C7",
">X c #B8C7C9",
",X c #A6D6CC",
"<X c #BAC9D4",
"1X c #A7D9D7",
"2X c #B9D7D6",
"3X c #AFCED0",
"4X c #9BE9D0",
"5X c #B7E3DC",
"6X c #ABE5D5",
"7X c #B4D5E7",
"8X c #BAE6E7",
"9X c #B5F1EC",
"0X c #C7C9CA",
"qX c #C8D4CB",
"wX c #C6C9D2",
"eX c #C7D8D9",
"rX c #D6D9DA",
"tX c #D5D1CE",
"yX c #F2D7CF",
"uX c #CFE6DA",
"iX c #FCFBDB",
"pX c #F2EAD2",
"aX c #CBDDE3",
"sX c #D7DBE5",
"dX c #D8D4ED",
"fX c #E6DBE6",
"gX c #F2D3EE",
"hX c #C9E6E6",
"jX c #D8E7E8",
"kX c #D9F5EB",
"lX c #DAECF4",
"zX c #CAFEFA",
"xX c #DCFEFE",
"cX c #D8F7F7",
"vX c #C8F1F1",
"bX c #E7E8EA",
"nX c #F4EAEB",
"mX c #E7F7EB",
"MX c #vars.fdFEEC",
"NX c #F9F8E9",
"BX c #E9EBF5",
"VX c #F4ECF3",
"CX c #FEECvars.fd",
"ZX c #F9EBF7",
"AX c #ECF4FC",
"SX c #E4vars.fdFE",
"DX c #ECvars.fdFE",
"FX c #E8F6F5",
"GX c #F4F4F4",
"HX c #F5FCF5",
"JX c #FEvars.fdF5",
"KX c #F4F5FB",
"LX c #vars.fdF5vars.fd",
"PX c #F4FEFE",
"IX c #FEFEFE",
"UX c #FCF5F5",
/* pixels */
"IXIXIXIXIXIXIXIXIXIXIXIXIXIXIXIXIXIXIXJXIXIXIXIXIXIXIXIXIXLXIXIXBXIXIXIXIXIXZXCXLXCXZXLXUXHXHXkXCXZXCXBXPXJXmXHXNXMXJXJXJXIXPXDXLXIXLXIXPXGXIXIXIXIXIXJXIXIXHXIXJXIXIXIXJXJXIXIXIXIXIXIXIXIXIXIXIXIXIXIX",
"IXIXIXIXIXIXIXIXIXIXIXIXIXIXIXIXIXJXIXIXIXIXIXIXIXIXIXLXIXLXIXLXIXnXIXIXbXLXIXIXSXDXIXIXUXnXLXZX1X;Xg.a.E.jXpXJXNXMXJXJXUXIXIXIXLXIXIXBXBXIXLXIXGXIXLXIXIXJXUXIXJXIXJXIXIXIXIXIXIXIXIXIXIXIXIXIXIXIXIXIX",
"IXIXIXIXIXIXIXIXIXIXIXIXIXIXIXIXIXIXIXIXIXIXIXIXIXLXKXLXIXIXIXIXUXJXJXnXIXIXBXKX&XdXdXhXcX8X=Xg.p.c.;Xc.g.H.^.PXIXIXHXDXPXPXKXfXIXLXIXLXIXIXBXIXIXIXPXJXIXIXJXIXIXIXIXJXIXIXIXIXIXIXIXIXIXIXIXIXIXIXIXIX",
"IXIXIXIXIXIXIXIXIXIXIXIXIXIXIXIXIXIXIXIXIXIXIXIXIXIXIXIXIXIXIXPXJXMXMXGXKXIXPX2Xm.C.a.a.+X7XlXBXdXlXsXT.j.j.h.+XBXBXvX,XR.=XlXPXBXPXVXLXLXZXIXIXIXIXIXKXIXIXLXIXIXIXIXIXIXIXIXIXIXIXIXIXIXIXIXIXIXIXIXIX",
"IXIXIXIXIXIXIXIXIXIXIXIXIXIXIXIXIXIXIXIXIXIXIXIXLXIXIXIXLXKXPXLXIXIXLXKXDXjX:Xh.k.6X9XxXSXDXPXPXLXZXPXPXDXxX:XW.t.v.m.C.Z.C.@XE.I.DXPXLXLXIXIX>XsXUXIXIXIXIXLXHXIXIXIXIXIXIXIXIXIXIXIXIXIXIXIXIXIXIXIXIX",
"IXIXIXIXIXIXIXIXIXIXIXIXIXIXIXIXIXIXIXIXIXIXIXIXLXIXIXIXPXPXPXPXAXDXaXaX2Xv.a.-XjXPXBXrXXX!.Y.J.[.{.,X6X5XcXSXKXDX9X;XC.;X9XvX9X:X2XPXIXZXIXqXP.nXIXIXLXIXIXIXIXIXIXIXIXIXIXIXIXIXIXIXIXIXIXIXIXIXIXIXIX",
"IXIXIXIXIXIXIXIXIXIXIXIXIXIXIXIXIXIXIXIXIXIXIXIXIXLXIXIXIXPXPXAXvXC.M.m.s.c.9XvX{. .p t Z G E Z z z J.}.:X2X:X+XvXcXxXvX7X@X;X=X9XU.lXIXLXKX>XP.bXIXIXKXGXLXIXIXIXIXIXIXIXIXIXIXIXIXIXIXIXIXIXIXIXIXIXIX",
"IXIXIXIXIXIXIXIXIXIXIXIXIXIXIXIXIXIXIXIXIXIXIXIXLXIXLXIXIXAX<XT.M.@X;X-X9X9Xx.[ c a V I I ^ U J W W oXMXJXHXFXcX7X%X3XdXPXDX:Xg.;Xv.~.IXLXPXDXR.Q.sXIXIXIXIXPXIXIXIXIXIXIXIXIXIXIXIXIXIXIXIXIXIXIXIXIXIX",
"IXIXIXIXIXIXIXIXIXIXIXIXIXIXIXIXPXIXVXIXLXnXIXPXCXLXVXhX2X=Xb.C.dX7XzX9X:X|.XXK.2.W ^ Y Y U ..2.<.W W .XMXMXmXFXKXLXDX=X=XxXFXIX1Xj.P.DXPXIXDXA.wXPXKXIXIXIXVXIXDXFXIXCXIXIXPXAXPXPXPXPXPXIXIXJXIXIXIXIX",
"IXIXIXIXIXIXIXIXIXIXIXIXIXIXIXIXPXbXIXZXKXIXbXPXxXhX3X:X2XSXDXcXBXcX-X[.NX'.E <._...U U U O.@.:.4.2.K E ).iXMXmXPXBXFXIXBX~.vXzXSXcXL.<XDX#XS.h.PXPXIXIXIXLXIXbXPXKXIXLXLXKXIXKXIXIXIXIXIXIXIXIXIXIXIXIX",
"IXIXIXIXIXIXIXIXIXIXIXIXIXIXIXIXIXVXIXIXBXPXDX2X-X-X8XSXSX5XR.Y.x.x.|.oX` W ^ U ..K -.>.4.3.w.q.9.0.q.3.2.2.OXNXmXtXJXZXIXeX{ B.:XSXSXhX~.a.U.6XBXPXIXfXLXIXPXIXLXIXIXAXPXIXLXIXIXIXIXIXIXIXIXIXIXIXIXIX",
"IXIXIXIXIXIXIXIXIXIXIXIXIXIXIXIXIXIXbXPXDX[.v.6XwXPXPXE.j.a.s.x.|.OX<.W I Y Y ;.@.-.3.w.w.w.2...:.:.8..Xw.*.&.oXMXMXMXIXBXg.1Xs.L.I.aXDXxXg.g s.jXAXKXIXfXBXrX<XBXaX#XR.SXPXIXZXLXIXIXLXUXIXJXIXIXIXIXIX",
"IXIXIXIXIXIXIXIXIXIXIXIXIXIXIXIXIXbXIX>XH.[.c.vXPXfX~.~.jXSX1Xv iXOXH ] ) ;.;.,.>.8.e.e.w.2.-.D ..:.:.:.2.w.3.2.'.MXMXkXzX{ 1XSXPXaX%X:XxX9Xk.m.v PXIXIXIXrXM ~.M =X;Xk.E.hXPXDXIXIXIXUXIXIXIXHXIXIXIXIX",
"IXIXIXIXIXIXIXIXIXIXIXIXIXIXIXIXGXIXaXS.2XvX,XSXzXg.#XIXIXLXIX0X%.).A ] 1.;.L >.:.,.5.8.8.8.8.@...5.8.r.3.3.3._.<.W XXFXzXa.7XIXBXAXPX~.=XxX9Xs.v =XhX^./.A.#XDXcX;XZ.9XvXM j.=XFXPXIXIXIXIXJXHXIXIXIXIX",
"IXIXIXIXIXIXIXIXIXIXIXIXIXIXIXIXPX~.v 3XhX[.SXlXm.{.xXAX$XBXDXS.|.`.H ' S ;.=.D ,.7.,.6.r.5.e.:.6.5.r.8.q.8.-.<.J a pXbXDXSXt.%XIXKXPXAX>X2XxXU.g c.3X^.sXI.I.3X3X;Xs.W.AXCXlXg :XjXPXIXUXIXIXHXIXIXIXIX",
"IXIXIXIXIXIXIXIXIXIXIXIXIXIXIXIXlXY.h.h.h.>XDXjXd.lXFXL.j.M.k.s.{.OXt ~ 1.) D P ..@.@.6.e.6.e.,.5.e.e.r.9.q.0.4.J yXNXLXCXIXAXv.d BXAXPXSX#XzXhXB.b.=XDXPXPXhXE.T.+X;XvXLXZXIXU.l.,XDXPXIXUXIXPXIXIXIXIX",
"IXIXIXIXIXIXIXIXPXPXIXVXIXLXIXIXIX#X2X:Xh.DXPX>Xd.mX{ H.nX&X^.tX| %.9 ` oXW D D U -.,.w.w.q.w.5.w.r.e.e.r.:.3.1.J oXMXnXPXbXIXPXc.+XLXlXzX1XvXLXvXj.IXLXbXIXIXCXPXPXIXIXIXIXGXPXuXh.eXIXLXIXIXIXIXIXIXIX",
"IXIXIXIXIXIXIXIXGXIXIXIXIXPXIXPXLXBXSXlXj.kXPXHX{ v.} }.0X0XrXqXkXK.t R I D ^ K F H =.<.3.3.3.3.8.q.5.@.:.L ,.^ a `.IXVXPXPXHXIXc.cX%X#X;XM.xXBXxXh.rXIXIXPXVXLXPXLXIXnXnXIXPXmX[.H.rXIXUXIXIXHXIXIXIXIX",
"IXIXIXIXIXIXIXIXIXIXIXIXPXIXPXDXLXLXjXSXS.cXPXPX6Xs.l.xX>XD.^./.XXF.- 8 A C ;.1.0 F H U K =.-.<.$._.-.-.-.D 0 t `.ZXL.PXAXj.<X>Xc.%Xt.2X1Xg 9XPX1X~.sXIXBXPXIXIXIXIXGXIXIXPXKXI.}.2XPXIXLXIXIXGXIXIXIXIX",
"IXIXIXIXIXIXIXIXLXLXKXPXPXPXPXPXVXwXwXaXW.lXhXSXxXR.n.:XI.tXLXIXIXnX! t V V / 4.K 0 8 F F V D $.W W E J E _.E yXsXdX%XAX%X%XT.t.m.W.lXSXc.4XxX=Xa.hXIXPXjXDXDXFXIXIXGXIXGXFXHXS.kXHXIXIXUXIXIXIXIXIXIXIX",
"IXIXIXIXIXIXIXIXLXIXIXPXFXjXeX0XS.I.SX8X=X8X+X%X3Xv.M.E.BXLXZXIXAXPXGXG.7 V 4.$.$.J 0 V D J E *.a G.).).).`.$ 3 LX%XW.%Xy.7XAXAX=XvXvX:X,X9Xa.f.[.eXI.D.d.~.kXPXUXIXIXHXFXPXPXS.mXPXHXUXIXIXIXIXIXIXIXIX",
"IXIXIXIXIXIXIXIXLXIXPX>X:XI.$X$XAXSXSXg.g.vXxXSXPXlXT.t.eXIXHXPXDXDXmXpX&.G K J $.2.2.K G J 2..XoXyXoXpXiX%.x z BX%XT.lXt.M.7X3X1X}.E.Y.P.kX2Xv hXPXIXIX2XI.I./.Q.>XPXHXHXmXHXHXPXIXVXIXIXUXLXIXIXIXIXIX",
"IXIXIXIXIXIXIXIXLXIXFXS.hXeXIXIXDXFX2X:XxXDXPXKXAXPXSXH.$XDXDX{.Y.J.| %.&.K J w.w.2.3..X2.G $.oXiXyXXXXXXX%.!.K.m F.I.S.v :X8XzXhX{.S.kXIXbXGXPX{ Y.JXPXFXkXPXIXHXS.| S.rXPXnXIXIXIXHXIXIXGXIXUXIXIXIXIX",
"IXIXIXIXIXIXIXIXIXPXkXj.PXPXIXZXbXwXN aXPXKXLXCXIXT.E.2XY.{ B. .I.6XkXuX<.-.w.w.0.0.:.$.$.<.W 0 E &.).Q c ).XX%.!.bX| ~.}.f.{.,XU.kXFXmXIXLXbXIX[.E.HXIXPXHXIXUXDXFXkXd.S.PXUXLXIXIXHXIXHXVXIXIXIXIXIXIX",
"JXIXIXIXIXIXIXIXIXIXS.FXlXPXDXI.{.uXnXLXPXDXPXBXn.S.0XtX|  .4X4XMXMXiX2.$.3.0.9.9.q.q.0.3.-.$.J 8 $ @ - E %.z  X|.XX%.d.Q x g 4XIXJXJXIXJXbXLXnXbXF.|.uXPXmXIXIXGXIXPX}.Y.PXIXnXIXIXIXIXIXIXIXIXIXIXIXIX",
"IXIXIXIXIXIXIXIXBXPXS.eXPXaXS.jXkXPXLXIXuXU.J.A.{.mXMXiXmXpXyX'.].W E $.3.9.9.6.q.8.:.3.3.4.-.^ J @ @ , ! Q z v u.G.G.%.h Q { U.XXbXXX!.XXXX&XG.`.tXtX~.| rXUXIXIXIXPXqX^.kXIXIXIXIXIXIXIXIXIXIXIXIXIXIX",
"IXIXIXIXIXIXIXIXIXKXFXS.>XS.jXPXIXpX^.Y. X XmXiXiXiXOX).).` S S H H K 3.9.7.7.5.7.,.3.>.-.=.o.=.E @ ; p r k M F.! x x n 1 u.u.v J.K.F.&.`.'.G.G.G.!.bXDXd.qXUXIXIXIXPXkXqX>X0XIXIXIXIXIXIXIXIXIXIXIXIXIX",
"IXIXIXIXIXIXIXIXKXIXPXPXv $XPXBXLXrXqXmXNXpXoX).1.^ <.1.<.^ ~ Y H ^ 4.9.7.,.7.7.@.:.:.>.>.o.o.=.G .   = r h x b G.x.2XuXk.h.L.{.%.Q K.'.'.*X).'.G.`.NX}.E.kXIXZXIXJXPXKXbX0X0XIXIXIXIXIXIXIXIXIXIXIXIXIX",
"IXIXIXIXIXIXIXIXIXKXIXPXeXd.KXPXIXIXHXNXOX&.^ I I ^ ;.( I U H 0 L @.7.@.,.6.6.7.e.q.q.0.0.6.>.@.=.H a p p a j x a [  .K.f.d.D.6X%.*.pXyX].yXyXG.G.`.qXH.HXPXGXIXUXIXIXPXPXPXbXIXIXIXIXIXIXIXIXIXIXIXIXIX",
"IXJXIXIXIXIXIXIXIXIXjXPXlXA.lXIXfXmXNXiX_.I ( ( :.>.#.P Y ( U K :.@.@.7.7.6.6.,.5.3.,.,.>.@.o.#.P / I a a r 0 s H a p a Q %.n F.|.K.pXpXoXyXoX&.Q j | `.rXbXUXIXIXIXIXGXIXIXUXIXIXIXIXIXIXIXIXIXIXIXIXIX",
"IXIXIXIXIXIXIXIXGXKXIXPXBXI.IXbXIXPXMXpX4.^ ( Y >...X.@.+.P F U >.:.7.7.7.,.,.,.>.>.4.;.;.>.,.6.#.Y P K $.^ I H H / 1.<.` Z - : %.K._.yXyX'.XX|.| x F.G.Q yXIXrXGXbXIXIXGXIXPXUXIXIXIXIXIXIXIXIXIXIXIXIX",
"IXIXIXIXIXIXIXIXIXIXKXAXI.<XbXIXZXJXNXpX_.^ ;.O.Y P @.@.D P ;.U P #.@.>.+.;.;.O.;.;.;./ O.+.@.+.@.+.+.,.,./ ) ( ;.I ^ <._ G , 9 3 K.).).`.K. X|.|.mXfX`.gXpX(.^.0X0XIXIXIXIXIXIXIXIXIXIXIXIXIXIXIXIXIXIX",
"IXIXIXIXJXJXJXIXLXVXPXSXa.5XDXGXLXMXMXiX<.` _ ) _ L J J U ( / =.-.K K J ..D J D $.2.3.=.;.+.P @.+.Y #.U U >.=.U ( / / W G 9 , q : h n K.tXMXJXJXMXJXJXJXIXUXGXbX`.bXIXUXIXIXIXLXIXIXIXLXIXIXIXPXIXIXIXIX",
"IXIXIXJXJXJXMXJXUXIXPXaXS.lXbXIXDXmXmXOX)..X1./ ^ D s $.` I $.OX.XK J W <.-.-.` ^ =./ Y Y +.>.,.+.;.+.+.o.o.>.=.U ^ J 7 X X @ X . : l F.fXJXJXZXMXUXUXHXMXUXJXIXPXPXIXPXPXDXAXPXPXIXIXLXLXIXIXPXIXIXIXIX",
"IXIXIXIXJXJXJXIXGXPX$XL.<XIXnXZXmXJXMX).2.1.U F C 0 D L S C L 2.=.D -.W W H W ' A V K ) T I U K L I I U Y I F D L G 0 + . , 3 ; = h k h h n G.`.tXyXNXUXLXIXIXIXmXeX}.,X:XE.}.5XSXPXPXIXIXIXIXHXIXIXIXIX",
"IXIXIXIXJXJXJXIXPXAXL.sXPXPXPXPXPXJXNX<.H V C F D F F C C T F F L D <.^ W <.W Z . + 9 G ~ ] ) ) .X<.I F C V V a Z Z Z a E Q l h c m n n c c h e B h h k m F.!.0Xd.J.>XuX>XP.h.j.~.eXDXIXIXIXIXJXIXIXIXIX",
"IXIXIXIXJXJXIXIXPXL.T.PXjX2XhXSXFXuX`.G D D D X.@.L P o.*.r.$./ ) ;.4.<.W E 9 + @ @ X o 8 8 Z W E G V Z V 8 0 t G 0 7 r B l N n n m c c Q Q Q n Q n N k k h h N /.rXIXIXlXDXPXlXh.>XlXIXIXIXJXIXIXIXIXIX",
"IXIXIXIXJXIXIXIXrXt.DXxXf.Y.J.!.G.E E F U U U o.O.U / >.r.2.=.;.^ <.-.W a 9 * , . : @ : j w > z r - - 7 7 7 a &.XX!.G.%.m m | t.| F.F.M M x x M n N b n N N k N h G.ZXLXIXIXKX^.<XjXPXIXIXIXIXIXIXIXIXIX",
"IXIXUXIXJXIXIXIXPXW.W.z.}.JXG.t R A ~ _ Y Y Y +.Y Y ;./ ^ ) / ( <.E + , p p p j l Q m m m j 1 6 . . + - + . + : 6 z m A.J.I.S.M qX|.J.| | J.F.S.Q.F.M M b N b n k n ^.ZXLXIXPXaXPXIXIXIXIXIXIXPXIXIXIXIX",
"IXIXIXJXIXIXIXIXxX:X} =XaX! Z ~ 1.;.( ;.T +.+.O.>.2.w.1.' ' 1.K.pXtX; @ @ X $ $ 2 = : = . + + . & o o X + o o X X X . . . O < 1 y %.qXHXHXkX3X:XH.I./.wXtX(.m k Q B Q rXIXIXPXPXIXIXCXZXIXIXPXJXIXIXIXIX",
"IXNXIXNXnXIXaXc.j.N.u.R n R ` s 2.-.Y >.6.7.@.O./ .X4.E K.pXiXNXiXJXi   &   o O & + + O # O o # + + - & # = : 2 > q q 3 2 : = # : > j !.JXJXIXIXLXPXY.} ,XuXFXtXu.m k u.IXIXgXIXVXIXrXKXIXnXHXPXIXIXIXIX",
"IXbXJXIXLXIX:Xl.ZXgXv f J.[ s  .o.o.+.>.,.@.O.;.=.W '.NXNXiXMXNXPX0X1 X < . & & < = = = : * + = - & & # = : q i i w w w e r 2 r o q q : i (.fXLXPXjX+X{ b.:XkXHXPXtXm m BXIXIXPXPXKXD.^.IXPXPXIXIXIXIXIX",
"JXNXPXIXIXeXR.-XzX{.} G.~ ` 4.o.Y +.+.O.@.O.O./ 2.oXiXnXmXIXJXIXdXj   & & < 2 < 3 2 2 q 3 , * * O O + + # = 3 q w w w w w w w w p * . 2 4 % h &XDXh.h.E.2XY.j.I.H.P.I.P.hXPXDXxXPXFXD.T.PXIXIXGXIXIXIXIX",
"IXJXPXJXGX$XU.4XjXB.i.].` / _ ( +.+.#.o.+./ ;._.iXMXIXIXJXPXHXIXj   X & & 4 e e 4 2 2 q q , * $ . + & # # # # # : > r q i i q q > l p * = 4 1 & v E.SXDXPXPXPXPXmXmXkX}.I.E.hXjX3X>XI.wXPXIXIXJXIXIXIXIX",
"JXIXmXJXIXrXR.b.*Xk.h.2.<.;.@...o.>.>.O./ 1..XMXJXbXPXPXBXPXIXD.&   2 = 1 i q w 2 = > i i , * + & % = % = # & O + = > 3 w i q q i i 9 3 5 < & < d SXKXZXZXLXIXPXPXPXPXPXjX>XT.A.#XeXaXGXPXIXIXIXIXIXIXIX",
"MXJXGXHXIXPXlX1XN.B.k.c ) w.@.Y @.3.4.Y 1.oXiXmXFXPXIXBXPXPXXX% O O > 3 w p 2 p , : > w q , $ + = = % % & & = = # # # % = > 3 q 9 p q > e 5 < & g aXdXIXLXLXLXLXIXHXGXIXIXIXIXLXPXPXIXPXIXIXUXUXIXIXIXIX",
"NXUXHXJXLXLXPXSXeXm N.*.I ..@.T ,.4.;.<.OXiXJXnXIXLXKXCXIX^.3 @ * $ , u i p q p : : q i q * + $ & & O . . X & % & + o o O # * , , 3 2 3 4 5 & X f :XzXSXaXIXIXZXIXIXGXIXbXLXAXIXIXKXLXLXUXIXIXIXIXIXIXIX",
"IXIXBXIXIXLXIX$X;XV. XA ) ;.X.Y o.U ^ _.mXcXGXCXIXBX&XD.j = X X * , p p 9 q a 2 , > q w 3 * o +     . .     . X O O O O $ # # $ * $ $ = &   & N vXc.R.,XP.DXIXIXHXPXJXPXKXIXIXPXLXLXIXIXLXIXIXUXIXIXIXIX",
"IXIXJXLXIXIXrXD.;XuXa ~ ` ;.U Y Y ;.&.HX8XC.1Xn.fXj . . @ . 1   - > w e w w w q - w q h > $ o . 1 j %.D.M x . O + . + % % o + > : # :   o 4 /.LXLXbXR.zX;XxXPXLXIXIXIXIXIXIXIXIXIXIXIXIXIXIXIXIXIXIXIXIX",
"LXIXPXHXIXIXIXbXjXV.V.! S T Y Y K J NXjX7XC.C.g.bX; $ o * : % < + : r q w w w > = w h = = X : /.bXnX0XrXBXF.= b Q t & & . % % . & & X   1 tXIXIXIXFXE.5Xz.aXPXLXIXIXIXIXIXIXIXIXIXIXIXIXIXIXIXIXIXIXIXIX",
"IXIXUXHXUXIXIXIXVX6X . X*.K U ]  X XS.P.P.:X8Xb.J.X $ X o > 1 % $ : 9 q w w q = > e : =   4 tXIXIXGXqXQ.t.; % h R ! Q r . X X X   X # d d.PXPXmXFX:XY.2X2XPXIXVXIXIXIXIXIXIXIXIXIXIXIXIXIXIXIXIXIXIXIXIX",
"IXIXIXIXIXGXKXKXAXLX/.[ V. .$.J [ {.H.lXKXPXSX=XD.6 X $ $ $ p % + - : > w w 2 * # q . 5 # 0XIX^.FXPXPXPX~.d j d 7 B B e i z d 6 x A.I.}.hX~.eX2XP.Y.SXPXGXIXPXIXIXIXIXIXIXIXIXIXIXIXIXIXIXIXIXIXIXIXIXIX",
"IXJXIXIXIXIXLXIXLXPXIXl &.K.*. .k.k.xXBXIXLXnXPXPXi X * : . i i * * $ $ = > = $ + < 2   % IXI./.jXFXaXPXPXd.j f & X & % d M d.J.H.eX~.:X2Xh.2X:X2XeXPXIXLXIXGXPXIXIXIXIXIXIXIXIXIXIXIXIXIXIXIXIXIXIXIXIX",
"IXKXHXIXIXIXIXIXLXLXIXyXR ~ H %.;XM.=XhXKXIXUXNXMX, o X + * # 3 q , $ o o # # # 2       m IXjX$XeX^.L.Q.<XI.j.z d f v f 5 1 x Q.~.<XM eXPXFXHXPXDXHXGXnXIXIXIXmXIXIXIXIXIXIXIXIXIXIXIXIXIXIXIXIXIXIXIXIX",
"IXIXIXHXNXIXIXIXDXgXCXFXqXR ] ! DXvXt.@XW.DXIXiX).s s , - *   % 3 > : * # # & #   e D.sXwXS.PXPXDXKXPXKXwXPXcXz.f d d 5 &   X < ~.:Xt.>XPXPXGXPXnXIXIXIXUXHXPXPXIXIXIXIXIXIXIXIXIXIXIXIXIXIXIXIXIXIXIXIX",
"LXIXIXJXIXIXIXIXPXIXPXPXHXJXQ |.&X#XxXZ.M.1XqXK.&.w..X2.$.X o < # : > 3 : # + o A.BXGXIXdXS.I.KXPXIXKX$XI.<XS.h.t.d 5 1 4 N m d.I.jXlXD.wXGXLXIXZXIXnXIXHXJXIXJXIXIXIXIXIXIXIXIXIXIXIXIXIXIXIXIXIXIXIXIX",
"IXIXIXJXIXIXIXIXLXLXPXIXIXPXuXx.wXIXBXPXm.-Xc &._..X4.4..X|.k o $ = + o = & & 6 PXbXIXPX2Xh.wX&XPXPXBXrXsXBXlX<XW.T.^.wXjXIXIXIXwXT.P.S.h.h.Y.jXPXPXHXPXPXIXJXHXIXIXIXIXIXIXIXIXIXIXIXIXIXIXIXIXIXIXIXIX",
"IXIXIXIXJXIXIXIXPXIXLXCX:Xt.P.kXzXDXLXZX~.mXV. ..X4..X.X*.s z x $   o . O .   j fXLXLXSXW.1X8Xh.IXKXLXIXIXPXIXIXPXPXPXPXPXIXIXZXPXPXaXeXuXaX$XF.I.Q.~.qXbXJXPXIXIXIXIXIXIXIXIXIXIXIXIXIXIXIXIXIXIXIXIXIX",
"IXIXIXJXIXJXIXIXlXIXdXT.n.-XPXCXCXAX4XV. X X*.4.oX.XK.s o ,  .%.b # % 5 u.0X^.BXIXIXIXSXv g 6XSXZXLXIXPXPXPXPXBXDXPXPXPXLXIXIXIXKXPXPXDXPXPXPXjXjXrXbXbXHXIXPXUXIXIXIXIXIXIXIXIXIXIXIXIXIXIXIXIXIXIXIXIX",
"IXIXIXIXJXIXIXIXPXPX+XW.1XvXPXLXvXm.V.x. .K 1._.2.XX .; c %. .x./.$XBXPXHXPXDXPX,Xf.S.P.=XeXIXZXLXKXlXxXhXP.~.BXBXPXIXPXIXIXIXIXGXIXIXIXKXGXIXIXIXIXIXPXIXIXIXLXIXIXIXIXIXIXIXIXIXIXIXIXIXIXIXIXIXIXIXIX",
"IXIXIXIXIXJXIXIXCXSXZ.Z.8XIXAX+Xk.B.M ! ' ' 4.).OXF.f d.`.M j  X$XwX#X8X5X#X#XS.f.a.wXlXDXGXIXUXIXlXE.g.l.R.E.D.bXGXPXIXPXIXIXIXIXIXIXIXIXIXGXGXHXPXIXPXIXIXIXIXIXIXIXIXIXIXIXIXIXIXIXIXIXIXIXIXIXIXIXIX",
"IXIXIXIXJXJXJXIXLX%XN.Z.DXCX$Xg.fXG.a ].1.1.$.9 p z | d.D.rXHXvXlX3Xj.n.R.z.vXcXIXLXLXIXkX5XE.eXPX~.v.5XSXSXkXFXwXbXGXLXIXIXIXIXJXIXIXGXIXIXIXKXIXPXIXIXIXIXLXIXIXIXIXIXIXIXIXIXIXIXIXIXIXIXIXIXIXIXIXIX",
"IXIXIXJXJXJXIXIXfX=X4X@X<XdXW.s.HXQ 8 ! '.].9 , z x XXIXIXPXPXZXSX+Xa.n.1X1X1XW.<XPXBX>X[.6Xl.v.d.:XkXDXAXPXIXPXIXIXIXIXIXIXIXLXPXIXIXUXVXIXIXPXKXKXLXIXIXLXIXIXIXIXIXIXIXIXIXIXIXIXIXIXIXIXIXIXIXIXIXIX",
"IXIXIXIXJXJXIXIXzXt.v.aX7XW.a.6XU.; 7 r Q }.M %.z tXUXLXAXDXKXgXv.a.M.C.B.;X-XE.B.c.z.f.,Xb.P.DXSXFXLXIXIXLXLXIXLXIXIXIXIXIXIXPXmXbXVXIXIXbXjXFXPXIXIXIXIXLXLXIXIXIXIXIXIXIXIXIXIXIXIXIXIXIXIXIXIXIXIXIX",
"IXIXJXLXPXIXIXIXIXE.n.c.cXKXW.n.5 1 3 q + 5 | { x PXKXPXLXPX1Xs.g l.,XlXBXLXIXAXbXKXVXAXPXjXY.v.IXLXIXIXSX9X{.1XGXLXCXZXLXPXPXPXaXj.f.:X~.$XfX>XIXIXIXIXIXIXIXIXIXIXIXIXIXIXIXIXIXIXIXIXIXIXIXIXIXIXIXIX",
"IXIXJXIXIXIXUXLXCXDXn.v.DXIXdXt.1 6 h k 4 & 5 { ~.FXlXBXrXT.g.n.:XjXPXIXIXPXPX3XZXVXIXLXIXPXlXS.z.P.I.hX>Xv D.fXPXPXIXIXIXPXBXCXAXaX+Xa.lXLXIXLXIXIXIXIXIXIXIXIXIXIXIXIXIXIXIXIXIXIXIXIXIXIXIXIXIXIXIXIX",
"NXIXIXIXIXIXIXIXCXPXv.E.PXLXwXj x e e < 2 5 j jXA.[.2XY.<XsXlXDXLXZXCXIXKXaXE.g.SXuX>X<XeX3X3XhX,XDX>X~.h.M bXCXSXSXkXhXhXFXIXLXAXPXzXg.xXPXLXLXIXIXIXIXIXIXJXJXIXIXIXIXIXIXIXIXIXIXIXIXIXIXIXIXIXIXIXIX",
"IXIXIXJXGXGXKXPXIXlXz.:XAXBXN j S.F.Q w n Q d.PXDXE.} m.SXPXKXKXKXIXIXPXT.{ f.{.c.c.g.b.1XU.k.{.:XPXsXFX8Xl.8XzXE.~.E.v.l.,XPXIXLXlX1X;XP.aXKXLXIXIXIXIXIXIXIXIXIXIXIXIXIXIXIXIXIXIXIXIXIXIXIXIXIXIXIXIX",
"JXIXIXIXPXPXIXPXFXE.g.R.%X+X& 5 5 j b e h e 5 ^.cXxXb.{.=XAXLXIXcXSXhXh.H.xXcXh.[.6XxXSXxXSXxXU.U.hXDXcX-Xs.s.b.rXsXDXvX;X{.2XjXgXT.W.1XR.BXIXLXIXIXIXIXIXIXJXIXIXIXIXIXIXIXIXIXIXIXIXIXIXIXIXIXIXIXIXIX",
"IXJXIXPXPXHXjXeXP.Y.a.f.t.M.5 % = 1 2 2 h 1 X t.DX=Xd ,X2X^./.$X6Xs.{ [.2X^.hXIXGXPXIXCXCXIXLXfXk.B.-Xz.z.uXmXIXIXUXIXPX6Xl.l.[.wXeXcXcXPXIXIXBXIXIXIXIXIXIXIXIXIXIXIXIXIXIXIXIXIXIXIXIXIXIXIXIXIXIXIXIX",
"IXIXIXGXuX>XQ.S.L.0XI.Y.g.E.I.M m b N m A.N 5 z v j.{ :X$XwXwX<XY.z.H.Y.>XFXIXIXIXIXCXLXLXLXfXIX9X{.E.>XcXPXbXCXIXLXLXIXDX2XeXPXLXPXIXAXLXLXLXPXIXIXIXIXIXIXIXIXIXIXIXIXIXIXIXIXIXIXIXIXIXIXIXIXIXIXIXIX",
"JXIXIXPXHXHXDXPXLXVXKXPXlXSXIXLXVXUXbXrXeXqXkXcXjXkXDXPXKXIXPXSXPXPXPXPXKXIXIXLXPXFXPXPXFXDXDXFXPXHXIXLXPXPXDXUXSXPXIXZXIXIXIXIXIXIXjXIXCXLXKXDXIXIXIXIXIXIXIXIXIXIXIXIXIXIXIXIXIXIXIXIXIXIXIXIXIXIXIXIX",
"IXIXIXIXIXIXIXIXIXIXIXIXIXIXIXIXIXIXIXIXIXIXIXIXPXIXIXIXIXIXIXIXIXIXIXIXIXIXIXIXIXIXIXIXIXIXIXIXIXIXIXIXIXIXIXIXIXIXIXIXIXIXIXIXIXIXIXIXIXIXIXIXIXIXIXIXIXIXIXIXIXIXIXIXIXIXIXIXIXIXIXIXIXIXIXIXIXIXIXIX",
"IXIXIXIXIXIXIXIXIXIXIXIXIXIXIXIXIXIXIXIXIXIXIXIXIXIXIXIXIXIXIXIXIXIXIXIXIXIXIXIXIXIXIXIXIXIXIXIXIXIXIXIXIXIXIXIXIXIXIXIXIXIXIXIXIXIXIXIXIXIXIXIXIXIXIXIXIXIXIXIXIXIXIXIXIXIXIXIXIXIXIXIXIXIXIXIXIXIXIXIX",
"IXIXIXIXIXIXIXIXIXIXIXIXIXIXIXIXIXIXIXIXIXIXIXIXIXIXIXIXIXIXIXIXIXIXIXIXIXIXIXIXIXIXIXIXIXIXIXIXIXIXIXIXIXIXIXIXIXIXIXIXIXIXIXIXIXIXIXIXIXIXIXIXIXIXIXIXIXIXIXIXIXIXIXIXIXIXIXIXIXIXIXIXIXIXIXIXIXIXIXIX"
};
