/* XPM */
static char *_277_700e84002538c758b39b348d079b792f74bacf88011410832ca8dc68bb40c3c3[] = {
/* columns rows colors chars-per-pixel */
"100 75 212 2 ",
"   c #171614",
".  c #181715",
"X  c #1A1917",
"o  c #1D1C1A",
"O  c #231A17",
"+  c #221E1B",
"@  c #2D1E1B",
"#  c #371D1B",
"$  c #2B2417",
"%  c #23211D",
"&  c #2B231D",
"*  c #3A2E17",
"=  c #31241E",
"-  c #3C221E",
";  c #342A1C",
":  c #3D311C",
">  c #242524",
",  c #2A2624",
"<  c #272827",
"1  c #2B2825",
"2  c #2C2C2B",
"3  c #312620",
"4  c #342A23",
"5  c #3A2B22",
"6  c #3C2A25",
"7  c #322E2B",
"8  c #2F302F",
"9  c #393127",
"0  c #33312E",
"q  c #3A322B",
"w  c #333333",
"e  c #3A3634",
"r  c #3A3937",
"t  c #353839",
"y  c #3C3C3A",
"u  c #442521",
"i  c #452A22",
"p  c #512722",
"a  c #562924",
"s  c #5B2A25",
"d  c #4B3426",
"f  c #41362C",
"g  c #483328",
"h  c #43392E",
"j  c #523728",
"k  c #553929",
"l  c #583A29",
"z  c #433A33",
"x  c #463B35",
"c  c #493E34",
"v  c #413F3B",
"b  c #692E28",
"n  c #6B312B",
"m  c #74322B",
"M  c #7B332D",
"N  c #643A30",
"B  c #69511F",
"V  c #5D4B2D",
"C  c #42413D",
"Z  c #4D4138",
"A  c #544436",
"S  c #52453A",
"D  c #56493A",
"F  c #5B4C3C",
"G  c #654F26",
"H  c #6B5327",
"J  c #7C5E20",
"K  c #7E6025",
"L  c #3E4143",
"P  c #454443",
"I  c #474746",
"U  c #494847",
"Y  c #4D4C4B",
"T  c #554942",
"R  c #5C4C45",
"E  c #514F4E",
"W  c #51504F",
"Q  c #4E5254",
"!  c #545453",
"~  c #585655",
"^  c #595958",
"/  c #5C5C5B",
"(  c #645441",
")  c #64544C",
"_  c #6B5848",
"`  c #705D48",
"'  c #6F5B52",
"]  c #725E55",
"[  c #7A654E",
"{  c #61615F",
"}  c #7E6951",
"|  c #79655B",
" . c #7C655B",
".. c #5D5F61",
"X. c #5B6266",
"o. c #646362",
"O. c #696766",
"+. c #6D6C6C",
"@. c #71706F",
"#. c #6F6F70",
"$. c #6D7376",
"%. c #757473",
"&. c #797776",
"*. c #7B7B7A",
"=. c #83342D",
"-. c #8C362F",
";. c #91372F",
":. c #893831",
">. c #943A32",
",. c #9C3B33",
"<. c #A23C34",
"1. c #AC3E35",
"2. c #924B3C",
"3. c #B14A3D",
"4. c #8B6927",
"5. c #9B7528",
"6. c #AD5948",
"7. c #B75746",
"8. c #856E56",
"9. c #80685E",
"0. c #877057",
"q. c #8D7559",
"w. c #927559",
"e. c #93795D",
"r. c #AC6D55",
"t. c #866D62",
"y. c #886F63",
"u. c #977D63",
"i. c #967E72",
"p. c #C16A53",
"a. c #C5765B",
"s. c #B78829",
"d. c #9D8162",
"f. c #81807F",
"g. c #9B8276",
"h. c #A48464",
"j. c #AB8C6B",
"k. c #AF906C",
"l. c #B2916E",
"z. c #B69572",
"x. c #BA9975",
"c. c #CC8767",
"v. c #D18D6B",
"b. c #C29E75",
"n. c #D19873",
"m. c #C5A179",
"M. c #CBA57B",
"N. c #D6AB7E",
"B. c #7E8082",
"V. c #7F8A92",
"C. c #848484",
"Z. c #888786",
"A. c #88898A",
"S. c #8C8C8B",
"D. c #8C8E90",
"F. c #8A9196",
"G. c #939494",
"H. c #969798",
"J. c #9C9B9B",
"K. c #919EA6",
"L. c #9FA2A5",
"P. c #9CABB6",
"I. c #A4A4A4",
"U. c #A8A8A7",
"Y. c #A3A7AB",
"T. c #ABACAB",
"R. c #B0B0AF",
"E. c #ACAFB1",
"W. c #AEB2B4",
"Q. c #A3B3BE",
"!. c #A9B6BF",
"~. c #B5B5B4",
"^. c #B5B7B9",
"/. c #B7BABC",
"(. c #BCBCBB",
"). c #D9AE81",
"_. c #D7B083",
"`. c #DAB184",
"'. c #E0B788",
"]. c #E3B98A",
"[. c #C0C0BF",
"{. c #A8B7C2",
"}. c #B4BCC4",
"|. c #BAC1C7",
" X c #BBC5CE",
".X c #BDC7D0",
"XX c #C3C4C4",
"oX c #C3C7CA",
"OX c #CACBCB",
"+X c #C3CCD3",
"@X c #CBCED2",
"#X c #CDD1D4",
"$X c #CDD4DB",
"%X c #D2D3D3",
"&X c #D1D7DC",
"*X c #D5DADE",
"=X c #DCDDDD",
"-X c #E0E0DF",
";X c #D3DAE0",
":X c #D9DEE1",
">X c #DDE2E5",
",X c #DFE4E8",
"<X c #E3E4E5",
"1X c #E8E7E7",
"2X c #E4E7EA",
"3X c #E6E9EC",
"4X c #E9EBEC",
"5X c #EDEFF0",
"6X c #EEF1F2",
"7X c #F4F4F4",
"8X c #F6F7F8",
"9X c #FFFFFF",
/* pixels */
"9X9X9X9X9X9X9X9X9X9X9X9X9X9X9X9X9X9X9X9X9X9X9X9X9X9X9X9X9X9X9X9X9X9X9X9X9X9X9X9X9X9X9X9X9X9X9X9X9X9X9X9X9X9X9X9X9X9X9X9X9X9X9X9X9X9X9X9X9X9X9X9X9X9X9X9X9X9X9X9X9X9X9X9X9X9X9X9X9X9X9X9X9X9X9X9X9X9X9X9X",
"9X9X9X9X9X9X9X9X9X9X9X9X9X9X9X9X9X9X9X9X9X9X9X9X9X9X9X9X9X9X9X9X9X9X9X9X9X9X9X9X9X9X9X9X9X9X9X9X9X9X9X9X9X9X9X9X9X9X9X9X9X9X9X9X9X9X9X9X9X9X9X9X9X9X9X9X9X9X9X9X9X9X9X9X9X9X9X9X9X9X9X9X9X9X9X9X9X9X9X9X",
"9X9X9X9X9X9X9X9X9X9X9X9X9X9X9X9X9X9X9X9X9X9X9X9X9X9X9X9X9X9X9X9X9X9X9X9X9X9X9X9X9X9X9X9X9X9X9X9X9X9X9X9X9X9X9X9X9X9X9X9X9X9X9X9X9X9X9X9X9X9X9X9X9X9X9X9X9X9X9X9X9X9X9X9X9X9X9X9X9X9X9X9X9X9X9X9X9X9X9X9X",
"9X9X9X9X9X9X9X9X9X9X9X9X9X9X9X9X9X9X9X9X9X9X9X9X9X9X9X9X9X9X9X9X9X9X9X9X9X9X9X9X9X9X9X9X9X9X9X9X9X9X9X9X9X9X9X9X9X9X9X9X9X9X9X9X9X9X9X9X9X9X9X9X9X9X9X9X9X9X9X9X9X9X9X9X9X9X9X9X9X9X9X9X9X9X9X9X9X9X9X9X",
"9X9X9X9X9X9X9X9X9X9X9X9X9X9X9X9X9X9X9X9X9X9X9X9X9X9X9X9X9X9X=X5X9X9X9X9X9X9X9X9X9X9X9X9X9X9X9X9X9X9X9X9X9X9X9X9X9X9X9X9X9X9X9X9X9X9X9X9X9X9X9X9X9X9X9X9X9X9X9X9X9X9X9X9X9X9X9X9X9X9X9X9X9X9X9X9X9X9X9X9X",
"9X9X9X9X9X9X9X9X9X9X9X9X9X9X9X9X9X9X9X9X9X9X9X9X9X9X9X9X9X=XP Y I.4X9X9X9X9X9X9X9X9X9X9X9X9X9X9X9X9X9X9X9X9X9X9X9X9X9X9X9X9X9X9X9X9X9X9X9X9X9X9X9X9X9X9X9X9X9X9X9X9X9X9X9X9X9X9X9X9X9X9X9X9X9X9X9X9X9X9X",
"9X9X9X9X9X9X9X9X9X9X9X9X9X9X9X9X9X9X9X9X9X9X9X9X9X9X9X9X9XZ.X + o ! OX9X9X9X9X9X9X9X9X9X9X9X9X9X9X9X9X9X9X9X9X9X9X9X9X9X9X9X9X9X9X9X9X9X9X9X9X9X9X9X9X9X9X9X9X9X9X9X9X9X9X9X9X9X9X9X9X9X9X9X9X9X9X9X9X9X",
"9X9X9X9X9X9X9X9X9X9X9X9X9X9X9X9X9X9X9X9X9X9X9X9X9X9X9X9X1Xy w D.^ o w ~.9X9X9X9X9X9X9X9X9X9X9X9X9X9X9X9X9X9X9X9X9X9X9X9X9X9X9X9X9X9X9X9X9X9X9X9X9X9X9X9X9X9X9X9X9X9X9X9X9X9X9X9X9X9X9X9X9X9X9X9X9X9X9X9X",
"9X9X9X9X9X9X9X9X9X9X9X9X9X9X9X9X9X9X9X9X9X9X9X9X9X9X9X9X(.o ~ D.Z.o.% w #X9X9X9X8X7X5X4X3X5X6X8X9X8X8X9X9X9X9X9X9X9X9X9X9X9X9X9X9X9X9X9X9X9X9X9X9X9X9X9X9X9X9X9X9X9X9X9X9X9X9X9X9X9X9X9X9X9X9X9X9X9X9X9X",
"9X9X9X9X9X9X9X9X9X9X9X9X9X9X9X9X9X9X9X9X7X(.(.OX1X9X9X9XJ.X / X.W *.E X +.<X#XI.B...~ Y Q Q o.B.K.oX<X5X5X6X8X9X9X9X9X9X9X9X9X9X9X9X9X9X9X9X9X9X9X9X9X9X9X9X9X9X9X9X9X9X9X9X9X9X9X9X9X9X9X9X9X9X9X9X9X9X",
"9X9X9X9X9X9X9X9X9X9X9X9X9X9X9X9X9X9X9X9X<Xr o > y +.~.7XG.X X.+.e o.~ o < Q t o X       X X . . O 2 ! F.@X2X3X3X5X8X9X9X9X9X9X9X9X9X9X9X9X9X9X9X9X9X9X9X9X9X9X9X9X9X9X9X9X9X9X9X9X9X9X9X9X9X9X9X9X9X9X9X",
"9X9X9X9X9X9X9X9X9X9X9X9X9X9X9X9X9X9X9X9XOX> r / y o % o.+.X L X.> > o X X X X o o o > > 2 8 2 2 7 , X X r Z.%X3X2X2X3X7X8X9X9X9X9X9X9X9X9X9X9X9X9X9X9X9X9X9X9X9X9X9X9X9X9X9X9X9X9X9X9X9X9X9X9X9X9X9X9X9X",
"9X9X9X9X9X9X9X9X9X9X9X9X9X9X9X9X9X9X9X9X}.o ' ~.Z.o.e X >   > o X o o % > > < < > o X o > w w t e r P r + . I E.2X3X2X2X4X7X8X9X9X9X9X9X9X9X9X9X9X9X9X9X9X9X9X9X9X9X9X9X9X9X9X9X9X9X9X9X9X9X9X9X9X9X9X9X",
"9X9X9X9X9X9X9X9X9X9X9X9X9X9X9X9X9X9X9X9X|.o ^ C.Y O.%.y X X   o % > > < < < 2 2 2 > % X X o 2 w w 2 2 P E e X 2 G.<X3X2X3X3X4X7X9X9X9X9X9X9X9X9X9X9X9X9X9X9X9X9X9X9X9X9X9X9X9X9X9X9X9X9X9X9X9X9X9X9X9X9X",
"9X9X9X9X9X9X9X9X9X9X9X9X9X9X9X9X9X9X9X9X%X1 y &./ e ! 2 X X > > > > 2 8 w w 2 w w 2 < < % X o 8 w 8 > o 2 Y P o % A.2X2X2X2X3X3X5X8X9X9X9X9X9X9X9X9X9X9X9X9X9X9X9X9X9X9X9X9X9X9X9X9X9X9X9X9X9X9X9X9X9X9X",
"9X9X9X9X9X9X9X9X9X9X9X9X9X9X9X9X9X9X9X8X=XP o o.&.y X X X > > < 2 8 8 2 > o > 2 w w w 2 < > X o 8 w w 2 > + w L % > H.3X2X2X2X3X3X1X6X9X9X9X9X9X9X9X9X9X9X9X9X9X9X9X9X9X9X9X9X9X9X9X9X9X9X9X9X9X9X9X9X9X",
"9X9X9X9X9X9X9X9X9X9X9X9X9X9X9X9X9X8X8X8X9XJ.X 0 Q < o o < < < 8 8 < o X o < w w w w w w w < % o > w w w w 2 % > 8 o 8 }.1X2X2X2X3X4X4X5X8X9X9X9X9X9X9X9X9X9X9X9X9X9X9X9X9X9X9X9X9X9X9X9X9X9X9X9X9X9X9X9X",
"9X9X9X9X9X9X9X9X9X9X9X9X9X9X9X9X9X9X9X9X9X6X@.o o X > > > < < < o o o < w w w w w < > < w 8 < % o 8 8 > 8 w w 2 7 w o E &X1X1X2X2X2X2X4X4X8X9X9X9X9X9X9X9X9X9X9X9X9X9X9X9X9X9X9X9X9X9X9X9X9X9X9X9X9X9X9X",
"9X9X9X9X9X9X9X9X9X9X9X9X9X9X9X9X9X9X9X9X9X9X4X~   o > > > o o X > < 8 w w w w 2 o o 8 w w w w 8 % < w < % < w w t E w o A.2X2X2X2X2X2X4X4X4X7X9X9X9X9X9X9X9X9X9X9X9X9X9X9X9X9X9X9X9X9X9X9X9X9X9X9X9X9X9X",
"9X9X9X9X9X9X9X9X9X9X9X9X9X9X9X9X9X9X9X9X9X9X=Xy   > > > X X o < 8 w w w w 8 > X o w w w w w w w 8 2 w w < o > w P E E + t @X3X2X2X2X2X2X4X4X4X7X9X9X9X9X9X9X9X9X9X9X9X9X9X9X9X9X9X9X9X9X9X9X9X9X9X9X9X9X",
"9X9X9X9X9X9X9X9X9X9X9X9X9X9X9X9X9X9X9X9X9X9XC.X o < > o > > < 8 w w w w 2 o X > w w w w w w w w 8 2 w w w < o > w E o.r o A.3X2X2X2X2X2X2X3X3X4X7X9X9X9X9X9X9X9X9X9X9X9X9X9X9X9X9X9X9X9X9X9X9X9X9X9X9X9X",
"9X9X9X9X9X9X9X9X9X9X9X9X9X9X9X9X9X9X9X9X9X<Xy X > < > > > < 8 8 w w 2 > X o 2 w t w w w w w w 8 % X + < w w 2 o > w ~ ~ O L &X3X2X2X2X2X2X3X4X4X3X7X9X9X9X9X9X9X9X9X9X9X9X9X9X9X9X9X9X9X9X9X9X9X9X9X9X9X",
"9X9X9X9X9X9X9X9X9X9X9X9X9X9X9X9X9X9X9X9X9XU.o % < > > < > > 2 8 < < o X o 8 w w w w w w w w 2 + o 7 % o % 2 w 8 % > t ^ 8 % T.3X3X2X2X2X3X2X3X3X4X4X8X9X9X9X9X9X9X9X9X9X9X9X9X9X9X9X9X9X9X9X9X9X9X9X9X9X",
"9X9X9X9X9X9X9X9X9X9X9X9X9X9X9X9X9X9X9X9X9X&.  % > > < > > > > > > o . < w w w w w w w w 8 > o X % c q o . o < w w , 7 I P . *.3X2X2X2X2X2X2X2X3X3X4X4X8X9X9X9X9X9X9X9X9X9X9X9X9X9X9X9X9X9X9X9X9X9X9X9X9X",
"9X9X9X9X9X9X9X9X9X9X9X9X9X9X9X9X9X9X9X9X7X! X > > > > < < > < > X o < w w w w w w w w 2 o X X X .   . o o o X > w w w w Y o E >X2X2X2X2X2X2X2X3X3X4X4X5X9X9X9X9X9X9X9X9X9X9X9X9X9X9X9X9X9X9X9X9X9X9X9X9X",
"9X9X9X9X9X9X9X9X9X9X9X9X9X9X9X9X9X9X9X9X1Xy X > > > < > > > o o o < w w w w w w w 2 % . o I %.%.%.o.Y w 2 Y e X % 8 w w P > z &X3X3X2X2X3X2X2X2X3X4X3X3X5X9X9X9X9X9X9X9X9X9X9X9X9X9X9X9X9X9X9X9X9X9X9X9X",
"9X9X9X9X9X9X9X9X9X9X9X9X9X9X9X9X9X9X9X9X=Xw o > < > < < > > o o < < 8 w w 8 w 2 > . O e %.Z.&.#.~ 7 o % Y S.S.z . > w w y 2 8 oX3X2X2X2X2X2X2X3X2X4X4X4X3X7X9X9X9X9X9X9X9X9X9X9X9X9X9X9X9X9X9X9X9X9X9X9X",
"9X9X9X9X9X9X9X9X9X9X9X9X9X9X9X9X9X9X9X9X=X0 o > > < > > > X > > < < w w 8 < > X o e O.H.I.A.^ v w 8 0 z o.H.I.S.w X < w r , , |.3X2X2X2X2X2X2X2X2X3X3X4X4X4X8X9X9X9X9X9X9X9X9X9X9X9X9X9X9X9X9X9X9X9X9X9X",
"9X9X9X9X9X9X9X9X9X9X9X9X9X9X9X9X9X9X9X9X=Xw o > > < > < o > > > > < 2 % o X X . > U ! ! ! ! ! E Y U U Y E ! ! ! y X X 2 w % 8 oX2X2X2X3X2X2X2X2X2X2X4X1X4X3X6X9X9X9X9X9X9X9X9X9X9X9X9X9X9X9X9X9X9X9X9X9X",
"9X9X9X9X9X9X9X9X9X9X9X9X9X9X9X9X9X9X9X9X<Xw o > < > < > > < < > > + . . o o X X .             .                 . X X > w X t @X,X2X2X2X2X2X2X3X2X2X3X4X4X3X4X7X9X9X9X9X9X9X9X9X9X9X9X9X9X9X9X9X9X9X9X9X",
"9X9X9X9X9X9X9X9X9X9X9X9X9X9X9X9X9X9X9X9X4XC o > > < > < > > > > > . q 8.9.t.9.9.8.8.9.8.8.8.8.8.8.9.9.8.8.8.8.8.9.9.4 X , . E ;X>X<X2X2X2X2X2X2X2X2X2X3X4X4X4X4X9X9X9X9X9X9X9X9X9X9X9X9X9X9X9X9X9X9X9X9X",
"9X9X9X9X9X9X9X9X9X9X9X9X9X9X9X9X9X9X9X9X8X/ . > > > > > > < < > o . c F F y.j.).x.x.b.x.x.x.x.z.b.x.z.b.x.x.x.x.x.l.R X o . B.2X>X>X2X2X3X2X2X2X2X2X3X3X3X4X4X3X7X9X9X9X9X9X9X9X9X9X9X9X9X9X9X9X9X9X9X9X",
"9X9X9X9X9X9X9X9X9X9X9X9X9X9X9X9X9X9X9X9X9X*.. > > > > > < > > > o o O + @ & ( x.`.`.`.`.`._._.`._.`.`._._.`.`.N.[ e 1 o . 1 /.,X>X>X>X2X2X2X2X2X3X2X2X2X3X4X4X4X4X9X9X9X9X9X9X9X9X9X9X9X9X9X9X9X9X9X9X9X",
"9X9X9X9X9X9X9X9X9X9X9X9X9X9X9X9X9X9X9X9X9XL.X o > > < > > > < % X . + k l 5 o 9 q._.].].].].].].].'.].'.].].M.F + $ + X . / >X>X>X>X>X<X2X2X2X2X2X2X3X2X3X1X4X3X3X7X9X9X9X9X9X9X9X9X9X9X9X9X9X9X9X9X9X9X",
"9X9X9X9X9X9X9X9X9X9X9X9X9X9X9X9X9X9X9X9X9X#X2 o < > < > < > > X X . 5 k k l k = o A l.].].`.].].].'.].].].k.h O g l ; X % Y.>X>X>X>X>X>X2X2X2X2X2X2X2X2X3X3X4X3X3X4X9X9X9X9X9X9X9X9X9X9X9X9X9X9X9X9X9X9X",
"9X9X9X9X9X9X9X9X9X9X9X9X9X9X9X9X9X9X9X9X9X7XQ . > < > > > > > X > + 5 g g d k l d $ 1 } N.].`.].].'.`.`.d.4 & d j d 5   y #X>X>X>X>X>X>X2X2X2X2X3X2X2X2X3X3X3X4X4X4X8X9X9X9X9X9X9X9X9X9X9X9X9X9X9X9X9X9X",
"9X9X9X9X9X9X9X9X9X9X9X9X9X9X9X9X9X9X9X9X9X8X@.. o o o o o X o X 2 + ; : + O $ i k k - o c } D ( x.e.h Z & ; d g = = ; X 2 |.>X>X>X>X>X>X>X2X2X3X2X2X2X2X2X3X4X4X4X3X6X9X9X9X9X9X9X9X9X9X9X9X9X9X9X9X9X9X",
"9X9X9X9X9X9X9X9X9X9X9X9X9X9X9X9X9X9X9X9X9X7X' . X X o o + & o . F 9 o + D ` q + + : j d & + $ X 8.q O @ ; d 5 + 1 % + X X S.<X>X>X>X>X>X>X<X2X2X2X2X2X2X2X2X3X4X4X3X1X9X9X9X9X9X9X9X9X9X9X9X9X9X9X9X9X9X",
"9X9X9X9X9X9X9X9X9X9X9X9X9X9X9X9X9X9X9X9X9X9X~.% o % > 6 g g + + e.0.% h d.d.d.} h % & - g j i % j.D $ g 5 + o 4 } ` X X   ! *X>X>X>X>X>X>X2X2X2X2X2X2X2X2X2X3X4X<XG.! U.9X9X9X9X9X9X9X9X9X9X9X9X9X9X9X9X",
"9X9X9X9X9X9X9X9X9X9X9X9X9X9X9X9X9X9X9X9X9X8X*.X X + % o , 6 + q j.x.Z d.M.q.F Z c 9 o o + $ o D `.e.+ O o X + D k.m.4 % > > /.,X>X>X>X>X>X>X2X2X2X2X3X2X2X3X4X#X+.> > P 7X9X9X9X9X9X9X9X9X9X9X9X9X9X9X9X",
"9X9X9X9X9X9X9X9X9X9X9X9X9X9X9X9X9X9X9X9X9XU.% , o + & o & & . q h.b.R j.].].'.z.w.F +   O 3 F b.]._.q.5 X O } _.].N.q 2 /   B.<X>X>X>X>X>X>X2X3X2X2X2X3X3X*XH.y 8 A.X.P 7X9X9X9X9X9X9X9X9X9X9X9X9X9X9X9X",
"9X9X9X9X9X9X9X9X9X9X9X9X9X9X9X9X9X9X9X9XOXw 1 Z.0 o + & f g . 6 2.6.N F n.n.'.'.z.` c ( e.M.`.].].].].m.w.F F r.c.r.& t S.> P $X>X>X>X>X>X>X>X2X3X3X2X#XH.Y > ^ W.$X! / 8X9X9X9X9X9X9X9X9X9X9X9X9X9X9X9X",
"9X9X9X9X9X9X9X9X9X9X9X9X9X9X9X9X9X9X9X1XW o C.XXP   + 3 5 3 o @ =.,.;.@ m 3.7.6.:.2.r.c.v.v.v.c.c.a.p.p.7.7.<.,.1.;.O P ~.P % W.,X>X>X>X>X>X>X2XoXG.X.t > I F.+X;X}.w A.9X9X9X9X9X9X9X9X9X9X9X9X9X9X9X9X",
"9X9X9X9X9X9X9X9X9X9X9X9X9X9X9X9X9X9X9XH.X { XX~.e   o   . . . O n >.1.m @ s ,.1.1.1.1.1.1.1.1.1.1.3.<.1.1.3.1.1.1.m   ' OX+.  F.,X>X>X>X>X>X>XW.e > L X.F.P. X$X;XG.> XX9X9X9X9X9X9X9X9X9X9X9X9X9X9X9X9X",
"9X9X9X9X9X9X9X9X9X9X9X9X9X9X9X9X9X9X8X/ > U.OXO.  7 P 2 / S.O.o u :.,.3.M u 6 =.1.1.1.1.1.,.;.;.,.1.1.1.1.1.1.1.<.u   o.OXO.. G.,X>X>X>X>X,X/.r y F.P.Q.Q.{.+X$X+XY W 7X9X9X9X9X9X9X9X9X9X9X9X9X9X9X9X9X",
"9X9X9X9X9X9X9X9X9X9X9X9X9X9X9X9X9X9X4XC t (.G.% . E &.v +.OX~.e + M >.,.1.<.=.a >.1.1.M u # - - # p =.<.1.1.1.,.p X 2 ^ ~.U % ~.>X>X>X>X,X/.C L K.{.Q.Q.Q. X$X$XD.> T.9X9X9X9X9X9X9X9X9X9X9X9X9X9X9X9X9X",
"9X9X9X9X9X9X9X9X9X9X9X9X9X9X9X9X9X9X1Xy v ~./ 2 o ! &.Y U XXXXW . - b :.>.,.1.,.,.1.-.@ a b s u a b m ;.3.1.:.u .   w +.G.> C #X>X>X>X2XW.r P !.{.Q.Q.Q. X$X&XP.2 +.7X9X9X9X9X9X9X9X9X9X9X9X9X9X9X9X9X9X",
"9X9X9X9X9X9X9X9X9X9X9X9X9X9X9X9X9X9X5XC w D./ e . P &.! C [.}.P . o o # a m :.,.<.1.n O - - s -.1.1.1.<.-.a O o ~ P . 1 t . B.>X>X>X>XH.2 Y +X$XQ.Q.{..X$X$XL.e Q -X9X9X9X9X9X9X9X9X9X9X9X9X9X9X9X9X9X9X",
"9X9X9X9X9X9X9X9X9X9X9X9X9X9X9X9X9X9X7X^ o 2 o o X 2 #.I o.XX&.o .   . % . O @ u s n b u s :.,.,.;.=.b - O X C J.1XOX+.>   w oX,X,X#X%.> Q +X3X.X{. X$X$X+XB.2 ~ =X9X9X9X9X9X9X9X9X9X9X9X9X9X9X9X9X9X9X9X",
"9X9X9X9X9X9X9X9X9X9X9X9X9X9X9X9X9X9X9Xf., r ' H.Q % o.#.U.+.%   4 e % r o.U 2 X X o o @ @ @ @ @ O O   o ! J.-X9X7X2X>X^.$.G.>X>XW.Y 2 $.{.,X2X.X+X$X#XP.Y 1 *.1X9X9X9X9X9X9X9X9X9X9X9X9X9X9X9X9X9X9X9X9X",
"9X9X9X9X9X9X9X9X9X9X9X9X9X9X9X9X9X9X9X<X%X<X8X9X+.o O.*.C X o h u.b.8.@ #.O.y o X X . . . > % . X o X % ~.9X8X8X7X2X>X,X>X,X#XB.2 P W. X.X3X3X$X$X}.+.< E (.8X9X9X9X9X9X9X9X9X9X9X9X9X9X9X9X9X9X9X9X9X9X",
"9X9X9X9X9X9X9X9X9X9X9X9X9X9X9X9X9X9X9X9X9X9X9X7XW . % X 2 2 $ q.z.N.z.2 o % 2 c R ) R x % > > 2 R | 9   { 7X8X8X8X3X>X>X:XI.I > X..X,X}.;X7X3X.XB.w e G.4X9X9X9X9X9X9X9X9X9X9X9X9X9X9X9X9X9X9X9X9X9X9X9X",
"9X9X9X9X9X9X9X9X9X9X9X9X9X9X9X9X9X9X9X9X9X9X9X=Xy w ~ S.XXW Z j.b._.m.9 2 R ' t.t.t.i.i.] c 6 ] t.i.t.% > (.8X8X-XL./.^...< L V.{.,X,X$X6X3XH.C 2 &.=X9X9X9X9X9X9X9X9X9X9X9X9X9X9X9X9X9X9X9X9X9X9X9X9X9X",
"9X9X9X9X9X9X9X9X9X9X9X9X9X9X9X9X9X9X9X9X9X9X9X4XXX-X7X9X(.% Z e.b.N.m.4 z )  .t.t.t.t.y.y.] x  .t.t.g.r   o.6X~.P + 8 2 w $.P.Q..X5X,X+XY.W 2 O.oX9X9X9X9X9X9X9X9X9X9X9X9X9X9X9X9X9X9X9X9X9X9X9X9X9X9X9X",
"9X9X9X9X9X9X9X9X9X9X9X9X9X9X9X9X9X9X9X9X9X9X9X9X9X9X9X7X{ $ O % e V F % e )  .t.t.t.t.t.t.t.z ' t.t.g.T   > ^.Y * 4.$ t K.{.{..X,X2XH.P 2 { [.8X9X9X9X9X9X9X9X9X9X9X9X9X9X9X9X9X9X9X9X9X9X9X9X9X9X9X9X9X",
"9X9X9X9X9X9X9X9X9X9X9X9X9X9X9X9X9X9X9X9X9X9X9X9X9X9X9XR.% G 4.K B j * X z ) t.t.t.t.t.] t.t.x ' t.| | w ; $ O.{ * s.J < F..X$X|.S.P 2 o.XX7X9X9X9X9X9X9X9X9X9X9X9X9X9X9X9X9X9X9X9X9X9X9X9X9X9X9X9X9X9X9X",
"9X9X9X9X9X9X9X9X9X9X9X9X9X9X9X9X9X9X9X9X9X9X9X9X9X9X8Xo.O O : H 5.s.4.$ % 0 C Z T T c z R R 7 q q , o X O O > 7 X G 5.$ Y L.$.w 7 #.XX8X9X9X9X9X9X9X9X9X9X9X9X9X9X9X9X9X9X9X9X9X9X9X9X9X9X9X9X9X9X9X9X9X",
"9X9X9X9X9X9X9X9X9X9X9X9X9X9X9X9X9X9X9X9X9X9X9X9X9X9X4Xy F [ Z 1 % o $ X X o X X o O O + o o o O + & , $ % 8.c o % + G V + < y C.%X9X9X9X9X9X9X9X9X9X9X9X9X9X9X9X9X9X9X9X9X9X9X9X9X9X9X9X9X9X9X9X9X9X9X9X",
"9X9X9X9X9X9X9X9X9X9X9X9X9X9X9X9X9X9X9X9X9X9X9X9X9X9X4XC F l.j.h.d.h.F . + & $ = 3 4 4 3 3 3 4 4 5 4 5 1 + D ; o X   ; H $ P -X9X9X9X9X9X9X9X9X9X9X9X9X9X9X9X9X9X9X9X9X9X9X9X9X9X9X9X9X9X9X9X9X9X9X9X9X9X",
"9X9X9X9X9X9X9X9X9X9X9X9X9X9X9X9X9X9X9X9X9X9X9X9X9X9X9XO.= q.k.l.M.N.j.$ + & & ; 6 4 5 5 6 6 5 3 5 & = ; + X . . C *.2 $ 1 J.9X9X9X9X9X9X9X9X9X9X9X9X9X9X9X9X9X9X9X9X9X9X9X9X9X9X9X9X9X9X9X9X9X9X9X9X9X9X",
"9X9X9X9X9X9X9X9X9X9X9X9X9X9X9X9X9X9X9X9X9X9X9X9X9X8XR.w   3 _ u.b.M.( o @ $ @ & 5 5 4 5 4 , 4 6 5 , O 3 + o 2 C.<X8XU.*.oX9X9X9X9X9X9X9X9X9X9X9X9X9X9X9X9X9X9X9X9X9X9X9X9X9X9X9X9X9X9X9X9X9X9X9X9X9X9X9X",
"9X9X9X9X9X9X9X9X9X9X9X9X9X9X9X9X9X9X9X9X9X9X9X9X9X(.2 . # @ . 3 x f o O + + O + 4 6 3 5 = O @ , = @ > z 2 o G.9X9X9X9X9X9X9X9X9X9X9X9X9X9X9X9X9X9X9X9X9X9X9X9X9X9X9X9X9X9X9X9X9X9X9X9X9X9X9X9X9X9X9X9X9X",
"9X9X9X9X9X9X9X9X9X9X9X9X9X9X9X9X9X9X9X9X9X9X9X9X9X4X%.o O + > ,   + e 7 7 e 2 z 6 , @ , z q c R c R z R ) % ~.9X9X9X9X9X9X9X9X9X9X9X9X9X9X9X9X9X9X9X9X9X9X9X9X9X9X9X9X9X9X9X9X9X9X9X9X9X9X9X9X9X9X9X9X9X",
"9X9X9X9X9X9X9X9X9X9X9X9X9X9X9X9X9X9X9X9X9X9X9X9X9X9X6XS.8     X . O q T c z , S ] ) R ' R 1 q T ) z > , & w %X9X9X9X9X9X9X9X9X9X9X9X9X9X9X9X9X9X9X9X9X9X9X9X9X9X9X9X9X9X9X9X9X9X9X9X9X9X9X9X9X9X9X9X9X9X",
"9X9X9X9X9X9X9X9X9X9X9X9X9X9X9X9X9X9X9X9X9X9X9X9X9X9X9X9X%XG./ v > X X X X + + o & e Z 4 o % ; % o X C (.J.[.9X9X9X9X9X9X9X9X9X9X9X9X9X9X9X9X9X9X9X9X9X9X9X9X9X9X9X9X9X9X9X9X9X9X9X9X9X9X9X9X9X9X9X9X9X9X",
"9X9X9X9X9X9X9X9X9X9X9X9X9X9X9X9X9X9X9X9X9X9X9X9X9X9X9X9X9X9X8X4X@.  X + % & $ % > ~ P X o & 9 9 ; o C 5X9X9X9X9X9X9X9X9X9X9X9X9X9X9X9X9X9X9X9X9X9X9X9X9X9X9X9X9X9X9X9X9X9X9X9X9X9X9X9X9X9X9X9X9X9X9X9X9X",
"9X9X9X9X9X9X9X9X9X9X9X9X9X9X9X9X9X9X9X9X9X9X9X9X9X9X9X9X9X9X9X9X%.  X . % % % X C 1XXX>   . % % > % t -X9X9X9X9X9X9X9X9X9X9X9X9X9X9X9X9X9X9X9X9X9X9X9X9X9X9X9X9X9X9X9X9X9X9X9X9X9X9X9X9X9X9X9X9X9X9X9X9X",
"9X9X9X9X9X9X9X9X9X9X9X9X9X9X9X9X9X9X9X9X9X9X9X9X9X9X9X9X9X9X9X9Xo.X 7 7 r C C 7 < %X%X2 & 7 v C C q o I.9X9X9X9X9X9X9X9X9X9X9X9X9X9X9X9X9X9X9X9X9X9X9X9X9X9X9X9X9X9X9X9X9X9X9X9X9X9X9X9X9X9X9X9X9X9X9X9X",
"9X9X9X9X9X9X9X9X9X9X9X9X9X9X9X9X9X9X9X9X9X9X9X9X9X9X9X9X9X9X9X8X&.1 o + o % + o < (.1Xr X o % + O % > G.9X9X9X9X9X9X9X9X9X9X9X9X9X9X9X9X9X9X9X9X9X9X9X9X9X9X9X9X9X9X9X9X9X9X9X9X9X9X9X9X9X9X9X9X9X9X9X9X",
"9X9X9X9X9X9X9X9X9X9X9X9X9X9X9X9X9X9X9X9X9X9X9X9X9X9X9X9X9X9X9X9X4X%X^.I.G.S.J.T.OX7X8X(.J.S.C.f.S.I.OX5X9X9X9X9X9X9X9X9X9X9X9X9X9X9X9X9X9X9X9X9X9X9X9X9X9X9X9X9X9X9X9X9X9X9X9X9X9X9X9X9X9X9X9X9X9X9X9X9X",
"9X9X9X9X9X9X9X9X9X9X9X9X9X9X9X9X9X9X9X9X9X9X9X9X9X9X9X9X9X9X9X9X9X9X9X9X9X9X9X9X9X9X9X9X9X9X9X9X9X9X9X9X9X9X9X9X9X9X9X9X9X9X9X9X9X9X9X9X9X9X9X9X9X9X9X9X9X9X9X9X9X9X9X9X9X9X9X9X9X9X9X9X9X9X9X9X9X9X9X9X",
"9X9X9X9X9X9X9X9X9X9X9X9X9X9X9X9X9X9X9X9X9X9X9X9X9X9X9X9X9X9X9X9X9X9X9X9X9X9X9X9X9X9X9X9X9X9X9X9X9X9X9X9X9X9X9X9X9X9X9X9X9X9X9X9X9X9X9X9X9X9X9X9X9X9X9X9X9X9X9X9X9X9X9X9X9X9X9X9X9X9X9X9X9X9X9X9X9X9X9X9X",
"9X9X9X9X9X9X9X9X9X9X9X9X9X9X9X9X9X9X9X9X9X9X9X9X9X9X9X9X9X9X9X9X9X9X9X9X9X9X9X9X9X9X9X9X9X9X9X9X9X9X9X9X9X9X9X9X9X9X9X9X9X9X9X9X9X9X9X9X9X9X9X9X9X9X9X9X9X9X9X9X9X9X9X9X9X9X9X9X9X9X9X9X9X9X9X9X9X9X9X9X",
"9X9X9X9X9X9X9X9X9X9X9X9X9X9X9X9X9X9X9X9X9X9X9X9X9X9X9X9X9X9X9X9X9X9X9X9X9X9X9X9X9X9X9X9X9X9X9X9X9X9X9X9X9X9X9X9X9X9X9X9X9X9X9X9X9X9X9X9X9X9X9X9X9X9X9X9X9X9X9X9X9X9X9X9X9X9X9X9X9X9X9X9X9X9X9X9X9X9X9X9X",
"9X9X9X9X9X9X9X9X9X9X9X9X9X9X9X9X9X9X9X9X9X9X9X9X9X9X9X9X9X9X9X9X9X9X9X9X9X9X9X9X9X9X9X9X9X9X9X9X9X9X9X9X9X9X9X9X9X9X9X9X9X9X9X9X9X9X9X9X9X9X9X9X9X9X9X9X9X9X9X9X9X9X9X9X9X9X9X9X9X9X9X9X9X9X9X9X9X9X9X9X"
};
