/* XPM */
static char *d54fb771574047ebeb558fbe65f7ad65zMm1xMnlSpJHHHjf[] = {
/* columns rows colors chars-per-pixel */
"100 75 171 2 ",
"   c #0A0604",
".  c #0E0A06",
"X  c #100C07",
"o  c #130E09",
"O  c #16110B",
"+  c #1B140E",
"@  c #1E1710",
"#  c #1F1812",
"$  c #241B13",
"%  c #281F16",
"&  c #271F18",
"*  c #281F18",
"=  c #2A2017",
"-  c #272019",
";  c #2D231A",
":  c #31261C",
">  c #34291E",
",  c #382B1F",
"<  c #2D2620",
"1  c #2F2821",
"2  c #352B22",
"3  c #3A2E22",
"4  c #342E29",
"5  c #3D3125",
"6  c #363029",
"7  c #3C332A",
"8  c #3C3630",
"9  c #3F3831",
"0  c #413426",
"q  c #42362A",
"w  c #45392C",
"e  c #493C2E",
"r  c #443B32",
"t  c #4A3E32",
"y  c #463F39",
"u  c #4D4134",
"i  c #474039",
"p  c #4C443A",
"a  c #524435",
"s  c #52463A",
"d  c #55493C",
"f  c #5A4C3D",
"g  c #4F4841",
"h  c #554C42",
"j  c #5A4E42",
"k  c #5D5144",
"l  c #575048",
"z  c #5D544A",
"x  c #5F5851",
"c  c #625445",
"v  c #665847",
"b  c #62564A",
"n  c #65594C",
"m  c #6A5C4D",
"M  c #655C52",
"N  c #695E52",
"B  c #676057",
"V  c #6C6154",
"C  c #666059",
"Z  c #6C635A",
"A  c #6D6359",
"S  c #6B645B",
"D  c #6D655B",
"F  c #6B655E",
"G  c #6F665D",
"H  c #6F675E",
"J  c #6D655D",
"K  c #6D645A",
"L  c #6F685F",
"P  c #726455",
"I  c #71665A",
"U  c #71695F",
"Y  c #74695D",
"T  c #7A6D5E",
"R  c #6F6860",
"E  c #6F6861",
"W  c #726B62",
"Q  c #716961",
"!  c #746B61",
"~  c #766C61",
"^  c #716B64",
"/  c #766E65",
"(  c #756C62",
")  c #796F63",
"_  c #796E62",
"`  c #777067",
"'  c #7C7165",
"]  c #77716A",
"[  c #7B7269",
"{  c #7C7368",
"}  c #7A746C",
"|  c #7F766D",
" . c #7E776F",
".. c #7D746A",
"X. c #7F786F",
"o. c #7D7872",
"O. c #817566",
"+. c #80776C",
"@. c #81766A",
"#. c #84796D",
"$. c #887C6E",
"%. c #837B72",
"&. c #837C73",
"*. c #847C72",
"=. c #867D72",
"-. c #817B74",
";. c #847C72",
":. c #897E72",
">. c #878077",
",. c #8C8175",
"<. c #878078",
"1. c #8A837B",
"2. c #8C8378",
"3. c #8A857F",
"4. c #8E877E",
"5. c #8C847A",
"6. c #8F887E",
"7. c #918576",
"8. c #92877A",
"9. c #92897D",
"0. c #93897D",
"q. c #988C7E",
"w. c #8F8880",
"e. c #8F8981",
"r. c #958C81",
"t. c #948C83",
"y. c #998F83",
"u. c #979087",
"i. c #9A9186",
"p. c #969189",
"a. c #9E978E",
"s. c #9C948A",
"d. c #9E988F",
"f. c #9B9690",
"g. c #9F9992",
"h. c #9F9992",
"j. c #A1968A",
"k. c #A3998E",
"l. c #A39D95",
"z. c #A49C93",
"x. c #A89E92",
"c. c #A59F98",
"v. c #A7A097",
"b. c #AAA196",
"n. c #A7A098",
"m. c #ABA49B",
"M. c #AEA89F",
"N. c #B0A79C",
"B. c #B2A99E",
"V. c #AAA6A1",
"C. c #AAA6A0",
"Z. c #AEA9A1",
"A. c #B0ABA3",
"S. c #B7AFA5",
"D. c #B3ACA3",
"F. c #B8AFA4",
"G. c #B8B0A6",
"H. c #B6B1AA",
"J. c #BCB5AB",
"K. c #BFB8AE",
"L. c #BBB7B0",
"P. c #BFBAB4",
"I. c #C2BAAF",
"U. c #C5BFB6",
"Y. c #C7C0B7",
"T. c #CAC4BB",
"R. c #CFC9C0",
"E. c #D2CCC4",
"W. c #D6D1C8",
"Q. c #D9D4CC",
"!. c #DDD8D0",
/* pixels */
"$ ; ; - 2 ; @ % # o O ; i h g g y y l S Z ..M p r r h +.H M y p z U =.B ; 2 q 6 d h ..3.C.f.g.-.h ; 9 N 1.4.N u y p y 9 p H ( r.%.h < 7 N F } / W N ..w.l.^ h p h l [ W g p y D.0.; o # 2 2 % $ o . o O ",
"; $ 2 - 7 2 s r $ + $ ; 7 r r %.w 3 q 3 ; 7 q 5 0 3 5 d Z { b w t t q e w 2 0 q q 0 5 > 2 7 w S s...2.j d j k a d k n n %.B w k f s u H S.K._ u d H s j b s d z G B n M z z k Z I z R l y 2 + o 2 g y r ",
"@ X o . . o 6 r $ % % % % % 7 1.3 0 3 3 5 0 6 ; 3 3 0 d d $ 0 0 q e q e w 5 w e e e q w 0 0 w 3 6 l 7 u k 0 e q 3 u k t 6 7 5 q 0 w t j B p 5 > 3 ~ s a e 0 5 0 - ; t t 0 a a w t ; i 7 5 3 = + ; S h % ",
"; X o . O + 1 l $ % $ ; ; 7 p S 0 5 7 t e s +.G h 7 t k N p w w q w u r y M 7 2 2 3 5 : % $ % % - H 4 & ; % > 2 q p s p U b j u u r 7 6 2 + ; : & h 7 5 e 0 2 > - 5 e w t w w w 5 o 6 2 % > w 5 : % $ $ ",
"p 6 4 8 r p z { M j b ..I ( >.+.M G #.#.>.9.0.k.s.s.&._ I ..~ ' 1.%.U M Z I B N z h M C h 6 r u j =.( j p 2 2 g x j u t 0 b ' ) B / #.' z W W / [ z.6.W p y M H >.U N G M z M N B / S M h r r r 7 r y 2 ",
": 3 w [ ..2 2 r u 0 w [ A k P A c M ,.5.P k f n b B s u e q e e 5 % $ ; 3 a f k c k c U y.k f a t u a a e 5 G p % e 0 0 e t p N w 7 u a q n A V ' #.z.z.#...W :._ j s u w ..s.G V I m N k d 2 ; 2 6 l p ",
"$ ; + y ( % $ + $ = % 2 5 a m ' 7.' @.@.P d u d q 0 e w e w 0 3 : h H ; $ 2 a c n m m b 0.c f e q q q 5 5 ; I h : q 5 0 w 3 6 t t a e u t ; w k P ' i.#.N _ M c f u a 5 3 j N d s a d f t ; % $ + O < r ",
"$ % @ ; z ; @ + + ; 2 h u u d N Y U #.I A k j d 6 6 5 ; ; r r 6 r m.E.l.H R z m I _ { =.8._ V V n s d j n N I U y d y p 3 2 z l u s u s n h r s V { z.8.N n h s w > ; ; 2 y r f f t e a f % + + + + $ 2 ",
"j p 7 p b j 7 l H ..X.1.z z n G ' 0.:.0.x.s.U M h j M n d =.B M N { >.,.@.%.:.0.5.Y { Y P V m N ' =.+.@.B ~ 2 2 r p r [ g.y.5.{ M ..M.i.0.5.z s %.m.s.U b M ..G h z &.t.t.4.j j y 2 ; 2 r z < o + @ O + ",
"I r ; ; ; : ; M x.r.m c a a f f d a k 5.z.t.k 0 e w w 0 3 6 5 3 0 w q e w : f _ k e e a e e e e k @.N U 5 3 3 t r 2 ; 7 5.c a t e s z j f f f u L i.@.I c f 5 n n d k k s s p u d 8 2 a u f t 0 u 2 2 6 ",
"u % % % % : ; y B M V m f f c k j a u y z 5 3 q w e 0 3 ; 5 0 0 w q 0 w 3 : > j c t e a u e e w u U M Z 0 3 3 0 2 # 8 p A u e 5 e k j w d a a u z z I m a e 0 z u e e t e 0 0 = 6 4.s e q 3 , 0 u = = ; ",
"$ % % $ ; 2 7 i p p k k d n k s r 0 y M N p p p t s j M M / z p p g p p h h M i.2._ n h j 6 2 w p ( %.y.N j l z ..s.D.M.D.n l z B U 1.p p j 6 M D.D._ b d j I T.2.u t t e 5 3 2 S y.a q t w 5 t M > % $ ",
"S p r 7 M U W / G b z R z.%.^ S ) n { =.I z z l z G { U N A n n N G M =.q.k I _ _ ,.( n S.s.>.H y u n P V b B p._ k c k B U _ #.#.O.#.=.t.i.M V _ :.@.@.>.F.x.s.#.:.{ B ( I G %.b.y.#.{ { Y M ( Y h d p ",
"w 6 2 ; 5 0 0 t a 0 : 7 5.7 ; 3 G _ v s u e u w 5 h 3 0 w w e u e 0 t %.n t f V m V P f M =.U 6 3 q w e e e 5 ..j 0 e 0 e u a m P P I N r.%.b m f k f c b M n d f c m n V I b 0.b.j.k.q.P p 3 r 5 ; 2 B ",
"$ % q 0 t w e e t 3 = # p 2 > ; N N f s d k k w y &.w w e q q w w 3 2 U j w f P V m c s 7 N / % 3 0 w 0 3 0 w B t 5 5 q u a t c m V I w / H t u w e 0 a j t j e d c c c V V k %.i.x.D.b.{ 3 : = $ % # & ",
"O 2 r t u y p s s h l z l u s b ..j 7 q p z N { 9.x...s p s z ( z j n m...h s t r p h z ..%.5.%./ G R W ] ..#.N S U =.t.1.u.=.U %.z.r.W y.r.A j n b h n H ( @.A h j n j j m z _ q.m.D.i.I 5 ; ; ; ; 1 7 ",
"r z h p b G ' ' >.s.T.W.J.M.S.j.i...1.s.z.#.b _ Y n I t w 3 s t.N N c A _ N c d ( B.z.I A I T { A b ..[ [ I p y z m G 5.5.G =.U #.N A V N _ I k G k.y.#.@.I Y Y j h l j 2.s.y.y.y.#.#.I m A M 9 p 2 M 5.",
"w t 3 0 5 0 t t z ,.U.!.T.Y.B.q.:.k ..D.k.n a m V c V I V n T { a a k c c f d q b :.s.a q e a f a 0 w 5 s ' : 3 5 d v T T e 0 d ( m c V P I c a k I z.m P I T T T V c : l z.I.m.k.I _ m f s n z > = > 5 ",
"r t : : : 0 a u l 8.J.I.J.b.i.,.B 7 z ' z u e f P T T T I P n t f c m c d e q 5 N ,.U t 5 5 0 0 e e w 7 N m.N 5 0 w f s a 5 3 U ..c u d P P d 7 3 p 0.n I I P T I m u + N r.b.k.0.I m j t $ w j 5 0 > ; ",
"w 2 3 r y z z d h l l l M z z M S 4.m.M.u.M l U [ #.=.2.>.1.d.t.~ Y { n l h d n D.Q.U.z.>.B [ H l p y / Z.D.D.:.#.U %.%./ y.p.n.M.1.z Z Y #.z.3...t.M.y.>.,.q.0.Y n M H ' ( =.M n j p 6 7 p z S r 0 5 ; ",
"G %.H l N &.( ( #...G b 1.>.=.8.i.i.q.i.#.z h ..h.s.i.k.k.b.k.,.I #.D.T.0.I N P M { :.' b r u y w t u b d u d n 2.Y.U.M 2 j { ' A I j s s n Y Y { { _ T Y Y @.r.0.D.m.m.i._ ..I Z n A z l :.9.y.....' I ",
"h ..d = ; 3 0 q q w e w G Y m I P V c c k c n m z n @.8.8.0.:.@.T I M ( { w w a w a f f f 0 y S d c k c f a f f t :.b > : > u a u a a a a d b f d f d f d s f a d k _ O.O.O.@.q.y.,.@.A d P m I ' @.,.,.",
"2 =.h ; : 5 0 0 q q w q u k v v n c c V I m n m ( b m m m P m V P f 5 h S w 5 e 5 e a a f 0 H [ 5 w e a u t a e < r p 3 % $ > q 5 e t 0 e d U d f s u t u a f t a 5 N @.$.,.8.7.,.,.,.P 3 f m V I $.y.y.",
"^ m.y.p u s r y p j k B h M ( _ Y N b I ' #.{ B A.( t b Y +.` X...[ z.P.G.#.b G l S ..=.i.y.v.m.p.o.R S M [ %.t.H.P.L.Z.g.S l l l M U ..%.p.z.s.k.m.x.t.Z j d n N <.w.t.0.,.=.T ..#.:.#.` N n N v k #.5.",
"G N n j j j p l ( ( b z s j p k j j / m.+.I ' I n k d j n { U.b.n c n n n v j b N t.t.I I Y { { I n I A { i...B z M N N W p w 5 r M s.#.n B @.:.$.#.,.@.z 5 w j k @.#.' Y { r.b.i.5.=.i.b.y.I j n d N Z ",
"d a a a a d a % y k > : , 3 5 0 5 3 7 H u , 3 , 3 5 5 3 0 w M d a f c c f d m f u p ` t c k m V v s u w a u w e t 0 w w w t 0 w q s 4.( j I #.,.#.$.,.#.w u c f a a t w w 0 e s n V T P T P k j a w 3 y ",
"a a t 0 0 u c j 2 q : > 3 , 3 3 3 0 > 1.h = ; ; ; > 3 > 3 5 2 w u a w u t w a t k M l 0 f u f f a u e 0 0 p l t u a w w t w q t e n J.U d O.@.@.@.#.' T d t c m f a u t t w e 0 5 f n m P I P m a 5 $ + ",
"y j h h p y N M S >.h r 7 3 5 7 r l { 0.%.z y 2 2 6 r r p N p.{ u p M h u u 0 u H s.c.G G d j l r 5 7 p Z 4.#./ Z ../ / t.....) n &.T.z.( 9.>._ I Y M l %.W { #.=.>.>.>...( A ..z k j z n _ _ k z b W z ",
"r l y M s./ X.M z { =.' :.=.s.{ B @.8.8.#.( ( ..z.>.' _ B { #.$.Y n Y ..v.G 7 t e t u u d u t.T.S 3 7 r j j u f j ..s.k.F.z.,.r.z.b.b.B.k.0.:.z d u N A @.O.,.,.i.5.@.@._ T ' 5.{ A { 5.r.U j d k f s N ",
": ; % ; H j s t w s c j c f z s 0 a a a e 0 w 5 w k f a f f a e s a e > ` k 3 0 0 5 5 3 w 0 p D.U : : > w e a a a 0 M 8.y.k.s.x.D.b.z.B.N.d 0 j I k m m P I T T A p a a a f f f s e j w H r 0 a e e w 3 ",
"5 5 w 5 ` M f f 5 s f u c f u.b 3 e f a e q 5 > r k f u a u w 0 e e 0 > h 7 : > = % : : 0 5 < M z : : 2 3 w u a a f G @.8.i.y.k.b.0.#.m.=.r r P P v c d w 7 w c N H u e w t u s d q 3 3 ; 3 w u u e 3 : ",
"[ ..%.&.S.y.b l z b d 5 7 r r.=.N I ( >.8.=.[ &.C.M.s.4.=.( M M G N S [ t./ z S W N p M l N l.D.=.I U [ ( M [ 1...t.M.s.i.=.Y +...#.y.m.M.m.1.G S d d r p H W [ M W h u y 7 s t j h l N H M z B ) ..[ H ",
"O.{ $.O.' ' V h H ..M r > 3 r M z z M ' &.0.=.{ { &.%.M M h j &.( d k b z l k n c f s M k u t t d d u u j n %.H j j k b n v c d u d p n I f d t t 0 w 5 w Y B N k d f p w 3 d z ( #.=.=...Y A n B / ( k ",
"n c n m V T v k s W t 5 5 0 w 3 3 5 w t 2 A ,.I c a 5 > > > : N s = > > 3 3 : ; : 5 > 2 e 3 > 3 , 3 5 3 0 t b s e a a a a a e e u u 3 f f w 0 0 w e e e e A b ' T m c c k c f 2 > 5 5 q 0 0 0 5 % 2 s a ",
"a f d f t t d a r l 3 3 5 5 5 0 0 0 5 w t T V f a w 5 : > > ; r 2 + + + ; 3 ; > $ % ; r w > ; ; > 0 w 0 5 0 z u e a t q e w 0 7 5 0 2 t 0 3 3 0 w e w 0 0 r 2 w s d n j s j k w > 2 2 2 5 3 3 3 ; ; ; > ",
"S B M B H S h z w.&.p p s u 2 3 w j s y h ) ~ %.6.4.#.~ S S z H l p p N h r [ X.l p M ..B H B S S [ ( ( { / %.S s A / W l j M S %.y.4.n d j h M ..G N j z +.' N S H [ %./ / / G M j y j d j G B M Z j u ",
"q 6 2 7 r 2 s N I N t h h ..x.( z j s j d 7 p l 4.m.I n n b f n I A k k z n P { _ A I P m m ' A l r s c T T n n V Y 1.0.u r 3 0 d k k u t a y S { w e t e e t w w y z N p u q 7 3 % ; 2 ; 6 7 p p w 5 7 ",
"q e ; < % % 5 0 5 5 5 > 3 d S.n 3 0 0 0 w 0 3 > ; ( a e f c f c V V v k V :.P T I V P c c f n j B b u k T m P m c V 7 h B a 0 3 : 3 3 3 q w q k k 0 3 > > > > > > > d H 5 5 0 0 3 > > > 3 0 I j ; $ $ $ ",
": 5 : 6 2 ; 3 5 0 5 5 3 > 2 u 0 3 0 0 0 3 > 5 0 ; N u e e a a f a d f d c A d I V u n k f a a a d d t n Y k 5 w 5 3 2 l _ a q > : > 3 > 5 3 > 7 q , : : : ; ; ; : : p ' 5 > 3 3 2 3 > 3 > 5 N t ; % $ + ",
"h y p M H S h z %...=.U h 7 2 2 0 r 3 r j M ~ { [ =.Y n j j p d j j k n { >.[ z z s d 0 r r u y j z p p b Y W l B %.k.( t p r p h p p j j z s 6 7 h u 2 r N l h z / s.z.( ' / +.1./ p 6 h s N y 7 6 N U ",
"5 2 2 2 5 w r j / n N n j s t w t u b &.G N P @.b.B.i.( { 0.#.A b I ' I I _ T n b M M s t s d s k n m b t.U.u.P m m m c d m Y A h B I V v m c c m c u 5 u Y m k n c 2 6 n n V T ( j s d A w 3 > > 3 Z / ",
"= ; % $ $ : 0 t j 0 5 e 0 0 3 5 > : 2 5 0 a c T ,.q.8.:.,.@.Y j 3 0 e e a f f s a $ M t w q q 3 q e w 0 r n z u s a a f c P ' @.A 5.' c c c f k n c u 5 w k f u n d e 3 p V c f h 3 e e a f e 5 : % % j ",
"# ; ; = % ; 3 w N w 5 5 0 5 3 > 2 ; % ; 0 a n P P T I T P n Y j 3 5 0 > > : 3 q 5 6 r 0 3 3 3 0 0 w 5 0 2 l r > 0 a f f f n I T n #.b f f f d f n n a 2 5 q t w Y N c a 0 j t d h 7 t 0 7 w 5 3 ; ; 4 h ",
"h j M p 7 7 p ....j z &.( ) 5.G j p w y p j j G A G N n z b _ ( n j p 0 q j z p j y.+.0 5 7 5 p j s p j ) #.M z U ~ ( ' _ @.:._ #.s.1.G z k B Y 0.@.Y A N M j M ../ Z { U k 7 l 5.>.W { ( U z U z M ' #.",
"3 7 d r > 0 e d t 0 r m M y.#._ V t 5 w d Y m.m.U ' N j c V c b b b j s 7 u d n P { >._ _ n I ,.:.k u 7 5 w u t u f s t l 5.:.:.#.0.i.B.k.5.) =.2.t e f d k c m n t a >.A u d u e u e e w 5 u r 3 2 5 5 ",
"w e s y = 5 5 e 0 5 3 2 % ; > t c m a e w s s.G.I k w t a a e e e t a u > p _ O.O.O.:.,.0.7.,.,.j.>.5 : > > 0 0 q q 0 5 t #._ q.q.y.k.k.q.@.V G I 3 w w e e u a a 0 e ..k 0 e 5 3 5 5 5 0 3 p ; : > 5 3 ",
"> : 6 4 ; ; > 0 5 ; ; # + 7 y 3 0 j a q u 5 N M.R.,.u w 5 0 5 3 5 0 0 3 ; 2 ,.,.' Y #.8.q.,.#.,.i.W ; $ ; : > 5 5 3 3 7 0 u u P T ' T I m c s p h 0 u t u a t q s u s M B M b u 3 5 7 5 p u z h u y 7 3 ",
"7 G #.B s q w p h j N p p N W z u u l W &.&.M U &.~ N M ....U M N M z / y.y.( ~ ( G Z z d l j z j z M u 2 $ : ; ; 3 B :.G y 3 7 0 5 w j z z #.=.N l N ' ' 0.~ b Y :.5.#.{ #.Y h j ..>.A B N m n A Y A ' ",
"3 w 0 0 5 > > y h j ; $ : 5 u f c n n I ( M t j j T _ @.y.0.:.#./ s s N B N m _ 0.8.:.G U h 2 5 5 0 w w 3 = u z s u n V j u t k f d A y.=.3 w 0 > : ; > ; z k k c n m f a f a t l n @.T I P m c c c m V ",
"% = ; ; 2 5 > 5 & 7 % $ % ; 3 5 0 q w a U y ; f P O.I P c c c v d : > e e k P T O.@.' N 2 ; = % % : 0 3 > : r z c v m c f k k V m c H &.2 + > 3 > > > 5 > p d f k f d a e e t 7 r b A I m P m n f k n s ",
"$ $ % $ 2 3 % : p r @ + $ $ : : > > > 3 b p $ 0 k m V n s s d k p ; % 2 w s c m N P P N r ; ; ; % ; 3 0 3 3 p p p b c a f f k b v d l ..h 2 2 5 7 6 w s j h 7 7 q s u 3 3 5 7 p N G d _ :.@.U k f t j j ",
"+ ; 6 d z ; ; u M h w 5 p l ..j r s N s w j p 7 w I j u b l M U h y h h b U ( j h h j 1.Z.t.>.w.s.4.&.4.%.&.z.s.U M G G N / >.r.>.#.5.#.' G _ 5.#.p M h p r r u 0 l j 6 q s n V _ _ A n N n z u t 5 w j ",
"; ; ; r M $ % % = = > 3 0 s G p 0 u f a t a f f f S j t e 3 2 7 3 w d N @.1.M r 0 3 2 y u r r u s / N n m P T { P V @.8.$.0.s.j.j.j.i.$.@.:.q.k.I ; % % > 3 3 q 3 5 q 3 t s k j m P c e 0 3 r 2 0 w 3 > ",
"3 : % 3 r ; : = = 3 0 3 3 3 s r 3 e a d w e u a d s j e q q 3 5 u a a a f u : > > > > > : ; ; 3 > M j f k P T ' ' O.:.8.@.l O.i.y.8.8.8.,.,.,.2.G # + % : > 3 3 : 3 > ; 0 e s u j v d 3 : 2 q = : > : ; ",
"7 3 3 r z 7 > 7 r 2 5 p 6 ; h W 0 w e w 0 e a u t u j e e e 0 0 u t f f e n w : > : % % % = : > = r d r d n c P @.,.:.:.A l M _ ' _ Y I U N n I 0.` p r 7 w y r 7 3 5 N { ( [ ( ..2.i.=.I z 2 $ 3 7 3 2 ",
"p p p d S l p %.i.#.k N M B B G z y w 7 h j n l k ' ..V n k j d n s w w q p l p 2 z W N 7 q r p s H G 1.G n ..k G ) I G M n p k r t s n M l >.[ Y >.' { s.#._ P V c c m A A I @.,.G Y I n u 0 w w 5 7 2 ",
"% % $ + + $ % 2 0 y : : ; 2 ; ; 3 t a s U k e t u u c m m c f V t.s 0 3 0 t e w 5 d 1.b.e 5 0 w e e 3 7 y b +.d f s w 3 2 r q 0 3 j s a a 0 5 w e w q > y b f d d a d e t k m k B 3 3 > : > ; > : = ; 2 ",
"% % ; $ + $ $ : 5 3 ; > > > > ; : > 3 0 ( d e e e a f f f c f d N ; 3 > 3 3 5 > 3 5 q ..a 5 0 q e 0 = + + < z > > > > > 3 3 5 3 : h a e e q 0 w 0 5 3 = 6 s d f c f f a a f u p z > > : ; = % % % $ ; ; ",
"- % 2 2 2 2 y 5 ; ; 6 0 w 5 3 3 w u d d b u w t a k m V b n j j y.h 0 0 5 5 0 6 5 0 2 h t > 3 : > > ; p H %.N r 5 > : > > ; : 3 w z s p l k p w l u 2 7 t.1.#.I j r t r s u r Z 4.%...&.I l r # ; % p 7 ",
"; # 3 2 2 5 r 5 ; > 2 6 7 7 7 5 w b b k j p q d z A .._ A A %.i.y.z z / U n z U t.1.>...s N N 7 M M A y.J.x.=.I b u 0 t ..0.U %.i.b.s.M p p s j _ Z w s N k N b w 0 3 5 l d j P #.@.{ @.V f u ; @ @ $ @ ",
"+ + + + % % > : % > % ; ; : ; : 3 7 n u 3 > > 2 3 3 3 5 5 5 u 6.Z ; > S p 0 e w A 1.r 2 6 y d u s 0 5 5 j j k v w 3 > > g 4.h j n _ M 2 : 5 e u 7 z t a e 5 u f e w > 5 G d e a f n n c f a t 3 $ + + + ",
"; O + $ $ % = ; ; z ; ; ; : : 3 3 + r t > > > t u a u e t e 5 h y : : z s t d t 0 % + O + + # ; : ; = : [ r 0 w 3 : ; $ X p p e f m j > > 3 e w u Y 3 3 0 5 u e 0 > = > b d u w e f u s a w 3 # o + o . ",
"r $ O o o O + @ : p @ O + $ $ ; > p z h 3 : : 3 w d d u s d u j r q w 6 : 3 0 3 > $ + O + + ; ; % ; $ % 7 r r q 5 2 > 3 7 2 7 5 5 3 ; # % % = : u N s ; > 3 > r 7 + + + ; % % % % % ; 2 6 % % % + O + + ",
"3 : = % ; ; > : ; % = ; ; 2 > 2 u I I V I m a s P V M M p p p h j u p 2 + $ @ % w 5 5 3 3 > ; ; % r 2 % ; 2 3 2 > ; > w 0 5 ; % % % = + + @ % % > w d 5 ; : % % $ % % $ % % ; : : : > % $ $ @ + + + $ $ ",
"> > % $ $ = : : % $ % % % = > > u d P V n m j a P b 3 % = % % + $ # $ % $ % @ 2 u u w e 0 3 3 , 2 ; : ; $ + $ $ $ $ @ $ 3 > : : : ; = $ $ 2 : = ; ; 3 ; ; > ; ; + @ $ $ % $ % % % % = + $ $ + + O + + O ",
"% $ + + $ $ + @ + + + $ % % = ; 9 ; 3 : ; 3 3 5 s 5 3 ; % $ % # $ + + $ $ + @ 5 e a u 0 > ; > 3 ; 2 ; $ % % $ % % $ $ 6 3 : ; ; = % + + # 2 > ; : ; : % % = $ ; ; $ + + + o o o o O @ $ $ $ @ o o o o + ",
"6 2 o O @ $ + + + + O O o o O O % # % 3 ; ; 6 d { G N z r p : $ $ $ $ & $ ; 3 3 - % % % $ + + $ + ; # O % 2 7 ; ; % 3 7 2 % 2 2 2 ; % & ; 3 3 2 ; ; 7 t d q ; 6 t 0 > $ % + O + @ $ > % $ $ @ ; 7 $ : : ",
"3 $ O + + + # $ $ % $ $ $ $ $ $ % % ; 6 k 0 3 w k z 2 5 u I s : : , > 7 5 e f P s : : > > ; > 3 $ # $ + r ' u 2 ; ; 3 > ; 2 6 w 0 > > ; @ : ; $ = ; ; > 5 ; ; ; ; : 3 > : = @ $ = ; ; % $ $ $ $ 2 3 3 3 ",
"2 @ O O O + + + + + ; ; $ = % % = ; $ 6 k 3 ; 7 6 ; % : > 7 3 ; ; > % = 3 5 u f w ; ; > ; % ; : $ + + + ; N 5 ; % ; > : % : > % : = ; $ + ; $ $ % 3 ; $ $ $ % 2 + O $ % ; - $ $ $ @ ; % # $ = % + % > > ",
"s 5 @ + + $ # ; ; % 6 2 # $ ; ; % % $ # 7 3 ; 7 r $ $ $ % $ + + @ $ $ % : > 3 3 ; % % % $ + + $ - > 5 2 6 2 $ @ + $ ; @ @ $ @ O + + o X + + O + o o o + + O O - 2 q 7 % 5 j h r q 2 6 $ o O + O + + $ ; ",
"% # + o O $ $ % ; ; ; ; ; > 2 ; & 5 3 3 > > ; 3 2 $ % % > 7 : % ; ; > ; ; ; % 2 q 2 > ; % @ + 7 k d p w u > ; % $ + 2 $ % % % # + $ @ + + O $ O @ @ $ % ; : 2 2 w u r ; % ; ; = % $ @ + o + + O @ O . o ",
".         . .   . . o O + # + $ % ; 3 5 w e e e e e > ; 2 3 : % % $ % ; 3 : + ; : ; % $ $ % + # : % $ + O + + + + # $ . + + + + + + + + + + $ + % $ $ $ % % $ $ % > % + o O O O + O o o . O O . X . . . ",
"o . X . . O o o O + + $ % ; % % % 5 0 0 q 0 0 w 0 2 ; : 5 0 3 = ; ; ; > > > $ > 5 > > ; % % + 2 u 5 > ; ; % $ $ $ $ < O % % % $ + % $ # + + % O ; % % % ; ; : ; > 5 ; $ + + + + + + + + o + + o + o . . ",
"q 2 # + $ ; ; 2 2 > 3 2 % ; 3 2 ; : = % ; ; ; 2 2 + # @ % ; @ @ $ % ; & ; ; ; > 3 ; ; % @ O O 2 u p d t s 3 % $ + + ; $ $ $ $ + + + o o o o O o o o O @ $ $ * ; w h h > 5 u p 7 7 > ; $ o + + o @ + o $ ",
"u ; O o O O o + + + 2 : + $ % % % % $ % a 5 : w p = % ; : % $ % % ; $ % 3 3 0 w : % = ; ; $ % % + + # + $ 6 = % $ ; ; % $ ; % + $ $ @ O @ % + $ $ $ @ + @ + O ; % $ # + : r 7 3 ; ; 7 $ o O $ @ + + - < "
};
